<svg width="202" height="250" viewBox="0 0 202 250" fill="none" xmlns="http://www.w3.org/2000/svg">
<path d="M59.72 184.5C33.22 198 33.81 224 33.81 224L179.2 249.75C179.2 249.75 176.76 236.17 142.2 211.25C112.68 190 76.33 176.05 59.72 184.5Z" fill="black"/>
<path d="M169.24 122.47C169.24 122.47 182.29 147.84 178.52 152.39C174.75 156.94 164.35 152.51 164.35 152.51" fill="white"/>
<path d="M173 155C169.946 154.856 166.941 154.179 164.12 153C164.003 152.945 163.912 152.847 163.866 152.726C163.82 152.605 163.822 152.471 163.872 152.352C163.923 152.233 164.018 152.139 164.136 152.088C164.255 152.037 164.389 152.034 164.51 152.08C164.62 152.08 174.61 156.31 178.1 152.08C181.03 148.55 172.35 129.68 168.76 122.71C168.726 122.648 168.706 122.58 168.7 122.51C168.694 122.44 168.702 122.369 168.725 122.302C168.747 122.236 168.783 122.174 168.831 122.122C168.878 122.07 168.936 122.029 169 122C169.118 121.941 169.255 121.931 169.38 121.972C169.506 122.013 169.61 122.102 169.67 122.22C171.02 124.84 182.77 148.02 178.89 152.69C177.5 154.39 175.31 155 173 155Z" fill="#231F20"/>
<path d="M76.41 97.05C72.06 120.37 87.64 162.26 87.64 162.26L87.18 204.32C87.18 204.32 90.88 211.97 109.18 220.09C127.48 228.21 133.75 221.26 133.75 221.26L134.02 181.47C138.25 184.94 164.02 187.55 165.68 177.65C168.24 162.05 170.44 146.383 172.28 130.65C173.43 120.82 177.28 106.56 171.96 97.01L76.41 97.05Z" fill="white"/>
<path d="M124.89 224.55C121.05 224.55 115.89 223.55 109.01 220.55C90.72 212.44 86.89 204.86 86.73 204.55C86.7149 204.477 86.7149 204.403 86.73 204.33L87.19 162.33C86.81 161.33 83.12 151.12 79.96 138.5C76.89 126.24 73.71 109.07 75.96 96.94C75.981 96.8252 76.0415 96.7214 76.131 96.6465C76.2205 96.5716 76.3333 96.5304 76.45 96.53H172C172.089 96.5294 172.176 96.5533 172.252 96.5992C172.328 96.6451 172.389 96.7112 172.43 96.79C176.81 104.66 175.08 115.79 173.69 124.68C173.35 126.83 173.03 128.86 172.81 130.73C170.98 146.36 168.81 162.16 166.22 177.73C165.8 180.3 163.89 182.25 160.54 183.51C152.81 186.42 139.11 184.91 134.54 182.39L134.29 221.26C134.283 221.381 134.237 221.497 134.16 221.59C134 221.78 131.38 224.55 124.89 224.55ZM87.68 204.2C88.19 205.1 92.62 212.2 109.42 219.64C125.75 226.88 132.32 221.91 133.29 221.05L133.55 181.47C133.548 181.375 133.575 181.281 133.626 181.201C133.678 181.121 133.752 181.058 133.84 181.02C133.925 180.98 134.02 180.965 134.113 180.975C134.207 180.986 134.296 181.022 134.37 181.08C137.31 183.5 151.98 185.66 160.17 182.57C163.17 181.45 164.86 179.76 165.22 177.57C167.77 162.04 169.98 146.25 171.81 130.63C172.03 128.74 172.35 126.7 172.69 124.54C174.04 115.88 175.69 105.11 171.69 97.54H76.83C72.83 120.54 87.95 161.66 88.11 162.08C88.1205 162.14 88.1205 162.2 88.11 162.26L87.68 204.2Z" fill="#231F20"/>
<path d="M168.34 123H97.09C96.9574 123 96.8302 122.947 96.7365 122.854C96.6427 122.76 96.59 122.633 96.59 122.5C96.59 122.367 96.6427 122.24 96.7365 122.146C96.8302 122.053 96.9574 122 97.09 122H168.34C168.473 122 168.6 122.053 168.694 122.146C168.787 122.24 168.84 122.367 168.84 122.5C168.84 122.566 168.827 122.631 168.802 122.691C168.777 122.752 168.74 122.807 168.694 122.854C168.647 122.9 168.592 122.937 168.531 122.962C168.471 122.987 168.406 123 168.34 123Z" fill="#231F20"/>
<path d="M162.6 120.89C163.567 120.89 164.35 118.638 164.35 115.86C164.35 113.082 163.567 110.83 162.6 110.83C161.634 110.83 160.85 113.082 160.85 115.86C160.85 118.638 161.634 120.89 162.6 120.89Z" fill="#231F20"/>
<path d="M166.62 165.89C166.62 165.89 153.62 172.06 148.51 158.75Z" fill="white"/>
<path d="M159.94 167.83C158.332 167.844 156.736 167.549 155.24 166.96C152.02 165.67 149.59 162.96 148.04 158.96C148.003 158.839 148.014 158.709 148.069 158.596C148.124 158.482 148.22 158.394 148.338 158.348C148.456 158.303 148.586 158.303 148.703 158.35C148.821 158.397 148.916 158.486 148.97 158.6C150.42 162.37 152.65 164.88 155.61 166.06C160.72 168.11 166.35 165.5 166.4 165.47C166.521 165.415 166.659 165.409 166.784 165.454C166.909 165.499 167.012 165.591 167.07 165.71C167.099 165.77 167.115 165.834 167.119 165.901C167.122 165.967 167.112 166.033 167.09 166.095C167.068 166.157 167.033 166.215 166.989 166.264C166.944 166.313 166.89 166.352 166.83 166.38C164.654 167.321 162.311 167.815 159.94 167.83V167.83Z" fill="#231F20"/>
<path d="M134.05 181.47C125.353 179.285 116.995 175.921 109.21 171.47C109.21 171.47 113.51 197.92 133.13 201.06L134.05 181.47Z" fill="#231F20"/>
<path d="M133.13 201.55H133.05C113.31 198.4 108.76 171.81 108.72 171.55C108.705 171.456 108.716 171.359 108.754 171.272C108.792 171.184 108.853 171.109 108.932 171.056C109.011 171.002 109.104 170.972 109.199 170.969C109.294 170.967 109.388 170.991 109.47 171.04C117.211 175.463 125.517 178.814 134.16 181C134.275 181.026 134.376 181.091 134.448 181.184C134.519 181.277 134.555 181.393 134.55 181.51L133.63 201.09C133.626 201.161 133.608 201.23 133.577 201.293C133.546 201.357 133.503 201.413 133.45 201.46C133.356 201.524 133.244 201.556 133.13 201.55V201.55ZM109.92 172.45C110.98 177.34 116.3 197.45 132.66 200.45L133.53 181.85C125.295 179.726 117.361 176.568 109.92 172.45V172.45Z" fill="#231F20"/>
<path d="M76.41 97.05L9 46.69C9 46.69 -12.21 77.62 13.26 102C38.73 126.38 76.41 97.05 76.41 97.05Z" fill="#231F20"/>
<path d="M37.48 112.12C32.9431 112.195 28.4363 111.371 24.2193 109.696C20.0024 108.021 16.1587 105.528 12.91 102.36C-12.56 77.97 8.36 46.72 8.57 46.36C8.64848 46.2497 8.76686 46.1744 8.9 46.15C8.96609 46.1369 9.03423 46.1381 9.09979 46.1537C9.16536 46.1692 9.22681 46.1986 9.28 46.24L76.71 96.6C76.7702 96.6467 76.819 96.7066 76.8525 96.7751C76.886 96.8436 76.9034 96.9188 76.9034 96.995C76.9034 97.0712 76.886 97.1465 76.8525 97.2149C76.819 97.2834 76.7702 97.3433 76.71 97.39C76.45 97.65 57.54 112.12 37.48 112.12ZM9.11 47.41C6.71 51.25 -9.63 79.41 13.6 101.64C36.83 123.87 70.93 100.44 75.6 97.05L9.11 47.41Z" fill="#231F20"/>
<path d="M87.64 162.26C87.64 162.26 100.73 135.52 107.77 132.81C114.81 130.1 124 97.05 124 97.05H76.41C76.41 97.05 65.07 127.78 87.64 162.26Z" fill="#231F20"/>
<path d="M87.64 162.76C87.5573 162.761 87.4756 162.741 87.4023 162.703C87.329 162.665 87.2663 162.609 87.22 162.54C64.78 128.24 75.83 97.19 75.95 96.88C75.9831 96.7842 76.0451 96.7009 76.1275 96.6418C76.2099 96.5827 76.3086 96.5507 76.41 96.55H124C124.078 96.5484 124.155 96.5657 124.225 96.6006C124.294 96.6354 124.355 96.6867 124.4 96.75C124.449 96.809 124.482 96.8794 124.496 96.9546C124.51 97.0299 124.504 97.1074 124.48 97.18C124.1 98.54 115.12 130.51 107.93 133.27C101.15 135.88 88.2 162.22 88.07 162.48C88.0311 162.56 87.9717 162.628 87.8979 162.677C87.8241 162.726 87.7386 162.755 87.65 162.76H87.64ZM76.77 97.55C75.67 100.92 67.26 129.55 87.58 161.25C89.85 156.71 101.05 134.85 107.58 132.34C113.78 129.95 122.03 102.13 123.35 97.55H76.77Z" fill="#231F20"/>
<path d="M118.14 131.14C118.51 127.2 116.69 123.42 114.91 119.88C113.676 117.062 112.02 114.449 110 112.13C107.87 109.91 104.87 108.32 101.81 108.62C100.461 108.807 99.1673 109.278 98.014 110.002C96.8608 110.726 95.8743 111.686 95.12 112.82C93.6246 115.104 92.6609 117.694 92.3 120.4C91.3953 126.282 92.0547 132.299 94.212 137.846C96.3693 143.393 99.9485 148.275 104.59 152" fill="white"/>
<path d="M104.59 152.5C104.478 152.502 104.369 152.467 104.28 152.4C99.5822 148.606 95.9594 143.649 93.7717 138.021C91.584 132.393 90.9077 126.29 91.81 120.32C92.176 117.538 93.1674 114.874 94.71 112.53C95.5101 111.339 96.5525 110.331 97.7692 109.571C98.9858 108.811 100.349 108.317 101.77 108.12C103.385 108.043 104.997 108.333 106.484 108.967C107.971 109.6 109.296 110.562 110.36 111.78C112.417 114.138 114.103 116.795 115.36 119.66C117 122.92 119.03 126.98 118.63 131.19C118.625 131.255 118.607 131.319 118.577 131.377C118.547 131.436 118.505 131.487 118.455 131.529C118.405 131.571 118.347 131.603 118.284 131.622C118.221 131.641 118.155 131.647 118.09 131.64C117.959 131.627 117.838 131.564 117.754 131.462C117.67 131.361 117.629 131.231 117.64 131.1C118.01 127.17 116.04 123.25 114.47 120.1C113.247 117.331 111.62 114.76 109.64 112.47C108.672 111.37 107.472 110.498 106.127 109.917C104.782 109.336 103.324 109.061 101.86 109.11C100.583 109.293 99.3585 109.744 98.2676 110.434C97.1767 111.123 96.2438 112.035 95.53 113.11C94.0698 115.327 93.1328 117.847 92.79 120.48C91.9159 126.274 92.5738 132.197 94.6984 137.658C96.8229 143.119 100.34 147.929 104.9 151.61C104.952 151.65 104.996 151.7 105.028 151.757C105.06 151.815 105.081 151.878 105.088 151.943C105.096 152.008 105.09 152.074 105.072 152.138C105.053 152.201 105.022 152.259 104.98 152.31C104.935 152.371 104.876 152.42 104.808 152.453C104.74 152.486 104.665 152.502 104.59 152.5V152.5Z" fill="#231F20"/>
<path d="M174.73 136.85C170.87 136.85 167.84 130.53 167.84 122.47C167.84 114.41 170.84 108.08 174.73 108.08C178.62 108.08 181.61 114.4 181.61 122.47C181.61 130.54 178.58 136.85 174.73 136.85ZM174.73 109.08C171.54 109.08 168.84 115.21 168.84 122.47C168.84 129.73 171.54 135.85 174.73 135.85C177.92 135.85 180.61 129.72 180.61 122.47C180.61 115.22 177.91 109.08 174.73 109.08V109.08Z" fill="#231F20"/>
<path d="M48.89 47.25C49.22 46.25 49.54 45.33 49.89 44.37C50.07 43.87 50.27 43.37 50.47 42.89C50.5851 42.5892 50.7996 42.3369 51.0779 42.175C51.3563 42.0131 51.6817 41.9513 52 42C52.78 42.08 53.55 42.25 54.33 42.37C54.7414 42.4603 55.1594 42.5171 55.58 42.54C55.893 42.5459 56.1991 42.4473 56.45 42.26C57.34 41.41 58.19 40.52 59.04 39.62C59.1806 39.4519 59.2779 39.2518 59.3232 39.0374C59.3685 38.8229 59.3606 38.6006 59.3 38.39C59.1 37.45 58.87 36.52 58.68 35.58C58.5923 35.2135 58.5586 34.8362 58.58 34.46C58.5882 34.3233 58.6244 34.1898 58.6863 34.0676C58.7482 33.9455 58.8346 33.8374 58.94 33.75C60.3779 32.8131 61.9489 32.0984 63.6 31.63C63.8419 31.5493 64.104 31.5529 64.3436 31.64C64.5833 31.7271 64.7864 31.8928 64.92 32.11C65.52 32.92 66.14 33.72 66.71 34.55C66.8947 34.8657 67.1665 35.1213 67.4929 35.2863C67.8193 35.4512 68.1863 35.5185 68.55 35.48C69.55 35.4 70.61 35.38 71.64 35.33C71.8289 35.3196 72.0124 35.2631 72.1745 35.1655C72.3366 35.0679 72.4724 34.9321 72.57 34.77C72.94 34.23 73.28 33.67 73.64 33.12C74 32.57 74.26 32.18 74.58 31.72C74.7247 31.4853 74.9464 31.3082 75.2072 31.2188C75.468 31.1294 75.7518 31.1334 76.01 31.23C77.43 31.72 78.86 32.23 80.27 32.77C80.5365 32.8777 80.7582 33.0733 80.8982 33.3243C81.0383 33.5753 81.0883 33.8666 81.04 34.15C80.96 34.94 80.78 35.72 80.65 36.5C80.65 36.87 80.54 37.25 80.51 37.62C80.482 37.8607 80.5109 38.1046 80.5943 38.3321C80.6776 38.5596 80.8132 38.7644 80.99 38.93C81.74 39.64 82.5 40.34 83.22 41.07C83.4297 41.2955 83.6971 41.4594 83.9932 41.544C84.2892 41.6285 84.6028 41.6306 84.9 41.55C85.9 41.33 86.9 41.08 87.95 40.86C88.2844 40.7466 88.6498 40.7677 88.9689 40.9189C89.2881 41.07 89.5359 41.3394 89.66 41.67C90.24 42.89 90.8 44.11 91.34 45.35C91.4396 45.5153 91.505 45.6989 91.5323 45.89C91.5596 46.0811 91.5481 46.2757 91.4987 46.4623C91.4492 46.6489 91.3628 46.8236 91.2445 46.9761C91.1262 47.1286 90.9784 47.2557 90.81 47.35C90.29 47.77 89.72 48.13 89.18 48.53C88.8 48.81 88.42 49.11 88.06 49.43C87.9106 49.5505 87.7901 49.7028 87.707 49.8758C87.624 50.0488 87.5806 50.2381 87.58 50.43C87.58 51.5 87.58 52.57 87.67 53.63C87.6761 53.9213 87.7588 54.206 87.9097 54.4552C88.0607 54.7045 88.2746 54.9096 88.53 55.05L90.28 56.05C90.6437 56.2658 90.9943 56.5029 91.33 56.76C91.5752 56.9196 91.7572 57.1596 91.8448 57.4388C91.9324 57.718 91.9201 58.0189 91.81 58.29C91.34 59.57 90.86 60.86 90.37 62.14C90.2825 62.3307 90.1753 62.5117 90.05 62.68C89.9346 62.8885 89.7569 63.0556 89.5416 63.1579C89.3264 63.2601 89.0845 63.2923 88.85 63.25L86.08 62.79H85.87C85.4822 62.6881 85.0727 62.7051 84.6946 62.8388C84.3166 62.9726 83.9875 63.2169 83.75 63.54C83.23 64.15 82.64 64.71 82.07 65.3C81.8112 65.5555 81.6269 65.8767 81.5371 66.2291C81.4472 66.5815 81.4551 66.9518 81.56 67.3C81.79 68.19 82.01 69.09 82.19 70C82.2637 70.1743 82.2994 70.3623 82.2947 70.5515C82.29 70.7406 82.2449 70.9266 82.1626 71.097C82.0802 71.2674 81.9625 71.4182 81.8172 71.5394C81.6719 71.6607 81.5024 71.7495 81.32 71.8C80.07 72.4 78.79 72.97 77.51 73.51C77.2255 73.6667 76.8917 73.7084 76.5774 73.6266C76.263 73.5447 75.992 73.3456 75.82 73.07C75.32 72.45 74.82 71.79 74.41 71.14C73.41 69.74 73.16 69.62 71.41 69.7L69.41 69.82C69.0905 69.8223 68.777 69.9074 68.5001 70.0668C68.2232 70.2263 67.9924 70.4548 67.83 70.73C67.43 71.41 67.04 72.09 66.61 72.73C66.3872 73.0881 66.1292 73.4231 65.84 73.73C65.7086 73.8731 65.5384 73.9748 65.3502 74.0228C65.1619 74.0707 64.9638 74.0628 64.78 74L60.78 72.49C60.5961 72.4096 60.4216 72.309 60.26 72.19C60.0533 72.0752 59.8875 71.899 59.7853 71.6858C59.6832 71.4726 59.6499 71.233 59.69 71L60.14 68.25C60.14 67.97 60.2 67.69 60.22 67.41C60.2463 67.1817 60.2184 66.9504 60.1385 66.7349C60.0585 66.5195 59.9289 66.3259 59.76 66.17C59.02 65.5033 58.29 64.8367 57.57 64.17C57.3625 63.9679 57.1047 63.8251 56.8233 63.7565C56.5419 63.6879 56.2472 63.696 55.97 63.78C55.07 64 54.17 64.2 53.27 64.41H53.17C51.98 64.63 51.6 64.48 51.09 63.41C50.58 62.34 50 61 49.48 59.72C49.394 59.5746 49.3391 59.413 49.3188 59.2453C49.2986 59.0776 49.3133 58.9075 49.3622 58.7458C49.4111 58.5841 49.493 58.4343 49.6028 58.3059C49.7126 58.1776 49.8479 58.0734 50 58C50.72 57.46 51.45 56.93 52.21 56.44C52.5786 56.2295 52.8774 55.9155 53.0694 55.5369C53.2613 55.1583 53.338 54.7318 53.29 54.31C53.23 53.31 53.2 52.38 53.15 51.42C53.1475 51.2198 53.0949 51.0235 52.9971 50.8488C52.8993 50.6742 52.7593 50.5267 52.59 50.42C51.79 49.91 50.98 49.42 50.19 48.89C49.6243 48.6135 49.1744 48.146 48.92 47.57L48.89 47.25ZM79.47 52.62C79.4727 51.4148 79.2364 50.2209 78.7749 49.1075C78.3134 47.9941 77.6358 46.9833 76.7812 46.1334C75.9267 45.2834 74.9121 44.6113 73.7962 44.1559C72.6803 43.7005 71.4852 43.4707 70.28 43.48C67.8892 43.5495 65.6177 44.5404 63.9404 46.2456C62.2632 47.9508 61.31 50.2383 61.28 52.63C61.293 55.029 62.2498 57.3264 63.9433 59.0255C65.6368 60.7247 67.9311 61.689 70.33 61.71C71.5312 61.7287 72.7241 61.5068 73.8382 61.0573C74.9523 60.6077 75.9651 59.9397 76.8169 59.0925C77.6688 58.2453 78.3424 57.2362 78.798 56.1245C79.2537 55.0129 79.4822 53.8213 79.47 52.62V52.62Z" fill="white"/>
<path d="M65.15 74.6C64.9723 74.5958 64.7966 74.562 64.63 74.5L63.5 74.08L60.58 73C60.3849 72.9191 60.2002 72.815 60.03 72.69C59.7279 72.5237 59.4843 72.2685 59.3322 71.959C59.1802 71.6495 59.127 71.3007 59.18 70.96L59.37 69.75C59.46 69.24 59.54 68.75 59.62 68.22C59.6615 67.955 59.6882 67.6879 59.7 67.42C59.7184 67.2663 59.7009 67.1105 59.6489 66.9647C59.5968 66.8189 59.5116 66.6873 59.4 66.58C58.73 65.97 58.08 65.36 57.4 64.74L57.19 64.54C57.0422 64.3961 56.8581 64.2949 56.6573 64.2474C56.4566 64.1998 56.2467 64.2076 56.05 64.27C55.41 64.43 54.76 64.57 54.11 64.72L53.34 64.9H53.21C51.78 65.16 51.21 64.9 50.6 63.59C50.1 62.59 49.6 61.4 49 59.89C48.7927 59.4996 48.7445 59.0441 48.8657 58.6191C48.9869 58.194 49.268 57.8324 49.65 57.61C50.49 56.98 51.2 56.47 51.89 56.03C52.1824 55.8659 52.4193 55.6185 52.5706 55.3193C52.722 55.0202 52.781 54.6828 52.74 54.35C52.74 53.75 52.68 53.15 52.65 52.55C52.65 52.19 52.65 51.82 52.65 51.46C52.6517 51.3386 52.6223 51.2188 52.5646 51.112C52.5068 51.0052 52.4226 50.915 52.32 50.85L51.32 50.23L49.89 49.32C49.2303 48.9845 48.7125 48.4241 48.43 47.74C48.4195 47.6872 48.4195 47.6328 48.43 47.58V47.23C48.4204 47.1771 48.4204 47.1229 48.43 47.07L48.71 46.24L49.42 44.18C49.6 43.67 49.8 43.18 50.01 42.68C50.1571 42.2797 50.4339 41.9401 50.7964 41.7154C51.1588 41.4907 51.5861 41.3937 52.01 41.44C52.54 41.5 53.06 41.59 53.58 41.69L54.36 41.82L54.68 41.88C54.9568 41.9362 55.2378 41.9696 55.52 41.98C55.7063 41.9836 55.8898 41.9351 56.05 41.84C56.99 40.95 57.87 40.02 58.62 39.22C58.7065 39.112 58.7647 38.984 58.7891 38.8478C58.8136 38.7116 58.8036 38.5714 58.76 38.44C58.67 38.02 58.58 37.6 58.48 37.18C58.38 36.76 58.25 36.18 58.14 35.62C58.0458 35.2036 58.0088 34.7764 58.03 34.35C58.0494 34.1382 58.1128 33.9327 58.2161 33.7468C58.3195 33.5608 58.4604 33.3984 58.63 33.27C60.1075 32.3058 61.7225 31.5708 63.42 31.09C63.7599 30.9865 64.1239 30.9948 64.4587 31.1136C64.7936 31.2324 65.0814 31.4554 65.28 31.75C65.49 32.04 65.7 32.33 65.92 32.61C66.31 33.14 66.7 33.67 67.07 34.21C67.205 34.453 67.4093 34.6502 67.6569 34.7767C67.9044 34.9031 68.184 34.953 68.46 34.92C69.14 34.92 69.81 34.84 70.46 34.82L71.53 34.77C71.6421 34.7665 71.7513 34.7332 71.8462 34.6734C71.9412 34.6137 72.0184 34.5296 72.07 34.43C72.29 34.11 72.5 33.79 72.71 33.43L73.3 32.52C73.56 32.12 73.82 31.72 74.1 31.34C74.3054 31.0153 74.6165 30.7713 74.9808 30.6493C75.3452 30.5272 75.7404 30.5346 76.1 30.67C77.83 31.27 79.1 31.74 80.38 32.21C80.7481 32.3553 81.0557 32.6217 81.2521 32.9653C81.4484 33.3089 81.5218 33.7091 81.46 34.1C81.46 34.65 81.31 35.19 81.22 35.71C81.17 35.97 81.12 36.23 81.08 36.49C81.04 36.75 80.97 37.21 80.94 37.57C80.9176 37.7362 80.9349 37.9053 80.9905 38.0635C81.0461 38.2217 81.1385 38.3645 81.26 38.48L81.76 38.94C82.35 39.5 82.94 40.05 83.51 40.63C83.6599 40.794 83.8526 40.9127 84.0665 40.9728C84.2803 41.0329 84.5067 41.0319 84.72 40.97L86.18 40.64C86.7067 40.5133 87.2367 40.3933 87.77 40.28C88.2149 40.1458 88.6939 40.182 89.1135 40.3817C89.5332 40.5813 89.8635 40.9301 90.04 41.36C90.62 42.58 91.19 43.82 91.72 45.06C91.9765 45.4968 92.05 46.0172 91.9245 46.508C91.799 46.9987 91.4847 47.42 91.05 47.68C90.73 47.94 90.4 48.17 90.05 48.4L89.39 48.87C89.02 49.15 88.65 49.44 88.29 49.74C88.1937 49.8226 88.1168 49.9255 88.0649 50.0414C88.0131 50.1572 87.9875 50.2831 87.99 50.41V51.06C87.99 51.91 87.99 52.75 88.06 53.6C88.0637 53.8071 88.1233 54.0093 88.2324 54.1853C88.3416 54.3613 88.4962 54.5046 88.68 54.6L89.4 55.03L90.4 55.65C90.7795 55.8735 91.1467 56.1171 91.5 56.38C91.8275 56.6069 92.0688 56.9377 92.1849 57.3188C92.3011 57.6999 92.2852 58.109 92.14 58.48C91.66 59.77 91.14 61.05 90.69 62.34C90.6046 62.5526 90.4938 62.754 90.36 62.94C90.195 63.2417 89.9388 63.4835 89.6281 63.6308C89.3173 63.778 88.968 63.8233 88.63 63.76L86 63.36H85.76C85.4616 63.278 85.1452 63.2897 84.8537 63.3934C84.5622 63.4972 84.3095 63.688 84.13 63.94C83.75 64.39 83.33 64.81 82.93 65.21L82.43 65.72C82.2302 65.9164 82.0882 66.1639 82.0195 66.4354C81.9507 66.707 81.9578 66.9922 82.04 67.26C82.26 68.13 82.49 69.06 82.68 69.99C82.7632 70.2189 82.7996 70.4622 82.7871 70.7055C82.7745 70.9487 82.7133 71.1869 82.607 71.4061C82.5007 71.6252 82.3515 71.8208 82.1682 71.9812C81.9849 72.1417 81.7713 72.2636 81.54 72.34C80.38 72.89 79.12 73.46 77.7 74.06C77.3162 74.2624 76.8706 74.3141 76.4507 74.205C76.0307 74.0958 75.6667 73.8337 75.43 73.47C75.02 72.95 74.63 72.41 74.25 71.87L74 71.52C73.1 70.26 73 70.22 71.47 70.29L69.47 70.41C69.2334 70.4093 69.0007 70.4709 68.7954 70.5885C68.59 70.7061 68.4192 70.8756 68.3 71.08L67.9 71.75C67.63 72.21 67.36 72.67 67.07 73.11C66.8283 73.4708 66.5502 73.8059 66.24 74.11C66.1032 74.2639 65.9353 74.3872 65.7474 74.4716C65.5596 74.5561 65.356 74.5998 65.15 74.6ZM56.45 63.21C56.9887 63.2108 57.5056 63.4226 57.89 63.8L58.1 64C58.76 64.61 59.41 65.23 60.1 65.83C60.3229 66.0374 60.4955 66.2929 60.6047 66.5771C60.7139 66.8613 60.7567 67.1667 60.73 67.47C60.7154 67.768 60.6853 68.0651 60.64 68.36C60.56 68.87 60.48 69.36 60.39 69.9L60.19 71.1C60.1644 71.2389 60.1847 71.3823 60.2479 71.5086C60.311 71.6349 60.4135 71.7372 60.54 71.8C60.6728 71.8949 60.8133 71.9786 60.96 72.05L63.88 73.14L65.01 73.56C65.101 73.5965 65.2016 73.6016 65.2958 73.5744C65.39 73.5472 65.4724 73.4894 65.53 73.41C65.7964 73.1419 66.0343 72.847 66.24 72.53C66.52 72.09 66.79 71.65 67.05 71.2L67.46 70.53C67.6659 70.1813 67.958 69.8915 68.3082 69.6883C68.6585 69.4852 69.0551 69.3755 69.46 69.37L71.46 69.25C73.35 69.16 73.76 69.36 74.85 70.9L75.11 71.25C75.48 71.78 75.85 72.31 76.25 72.81C76.3007 72.9038 76.3701 72.9861 76.4539 73.052C76.5377 73.1179 76.6342 73.166 76.7372 73.1931C76.8403 73.2203 76.9479 73.2261 77.0533 73.21C77.1587 73.194 77.2597 73.1566 77.35 73.1C78.76 72.5 80 71.95 81.14 71.4C81.8 71.08 81.89 70.89 81.74 70.15C81.56 69.24 81.33 68.32 81.11 67.47C80.9842 67.0372 80.9773 66.5786 81.0899 66.1422C81.2025 65.7059 81.4305 65.3078 81.75 64.99L82.26 64.47C82.65 64.07 83.05 63.68 83.41 63.25C83.7074 62.8585 84.1136 62.5634 84.5778 62.4015C85.042 62.2396 85.5437 62.2182 86.02 62.34H86.2L88.97 62.8C89.1093 62.8288 89.2541 62.8111 89.3823 62.7497C89.5106 62.6883 89.6151 62.5865 89.68 62.46C89.78 62.3181 89.867 62.1675 89.94 62.01C90.4333 60.73 90.9133 59.45 91.38 58.17C91.4616 57.9946 91.475 57.7951 91.4177 57.6103C91.3604 57.4255 91.2365 57.2686 91.07 57.17C90.7492 56.9286 90.4153 56.7049 90.07 56.5C89.74 56.29 89.4 56.1 89.07 55.9L88.33 55.46C88.0065 55.2758 87.7356 55.0118 87.543 54.6932C87.3505 54.3746 87.2427 54.012 87.23 53.64C87.23 52.78 87.18 51.93 87.16 51.07V50.42C87.1517 50.1464 87.2059 49.8744 87.3186 49.6249C87.4312 49.3753 87.5993 49.1548 87.81 48.98C88.1809 48.654 88.5681 48.3469 88.97 48.06C89.19 47.89 89.42 47.73 89.65 47.57C89.88 47.41 90.28 47.13 90.58 46.89C90.7051 46.826 90.8153 46.7364 90.9035 46.6269C90.9916 46.5175 91.0557 46.3907 91.0915 46.2549C91.1274 46.119 91.1342 45.9771 91.1115 45.8384C91.0889 45.6997 91.0373 45.5674 90.96 45.45C90.42 44.22 89.86 42.99 89.29 41.79C89.2522 41.6763 89.1916 41.5716 89.1119 41.4822C89.0321 41.3928 88.935 41.3206 88.8264 41.27C88.7178 41.2194 88.6 41.1916 88.4803 41.1882C88.3605 41.1847 88.2413 41.2058 88.13 41.25L86.56 41.6L85 42C84.622 42.0968 84.2249 42.0903 83.8502 41.9812C83.4756 41.8721 83.1371 41.6645 82.87 41.38C82.31 40.81 81.72 40.27 81.14 39.72L80.64 39.25C80.4071 39.0353 80.2285 38.7682 80.1189 38.4709C80.0094 38.1736 79.9721 37.8546 80.01 37.54C80.01 37.15 80.1 36.77 80.16 36.38C80.22 35.99 80.25 35.85 80.3 35.58C80.4 35.05 80.49 34.58 80.54 34.06C80.577 33.8867 80.5523 33.7059 80.4702 33.5488C80.388 33.3918 80.2535 33.2684 80.09 33.2C78.87 32.73 77.56 32.26 75.84 31.66C75.6825 31.6058 75.5108 31.6103 75.3564 31.6728C75.202 31.7353 75.0754 31.8515 75 32C74.73 32.38 74.48 32.76 74.23 33.15L73.64 34.05C73.43 34.38 73.21 34.72 72.99 35.05C72.8522 35.2795 72.6593 35.471 72.4288 35.6072C72.1983 35.7434 71.9375 35.82 71.67 35.83L70.59 35.88C69.92 35.88 69.26 35.88 68.59 35.97C68.1408 36.017 67.6876 35.9346 67.2837 35.7326C66.8798 35.5307 66.5419 35.2175 66.31 34.83C65.95 34.3 65.56 33.83 65.18 33.27L64.53 32.4C64.4509 32.2665 64.3279 32.1646 64.182 32.1117C64.036 32.0588 63.8763 32.0582 63.73 32.11C62.1322 32.5676 60.612 33.262 59.22 34.17C59.147 34.2697 59.1021 34.3871 59.09 34.51C59.0725 34.8459 59.1028 35.1826 59.18 35.51C59.29 36.02 59.4 36.51 59.52 37.05C59.64 37.59 59.71 37.9 59.8 38.32C59.88 38.6088 59.8862 38.913 59.818 39.2047C59.7499 39.4965 59.6096 39.7665 59.41 39.99C58.65 40.8 57.75 41.75 56.8 42.65C56.4563 42.9168 56.035 43.0643 55.6 43.07C55.2638 43.059 54.9292 43.0189 54.6 42.95H54.3L53.5 42.81C53 42.72 52.5 42.63 52 42.58C51.7859 42.5508 51.5683 42.598 51.3855 42.7132C51.2026 42.8284 51.0662 43.0043 51 43.21C50.8 43.69 50.61 44.17 50.43 44.65C50.19 45.33 49.96 46.02 49.73 46.65L49.47 47.4V47.59C49.6911 48.0193 50.0407 48.3689 50.47 48.59L51.89 49.5L52.89 50.13C53.1288 50.2781 53.3265 50.484 53.4645 50.7287C53.6026 50.9734 53.6767 51.249 53.68 51.53C53.68 51.89 53.68 52.26 53.68 52.63C53.68 53.22 53.73 53.81 53.77 54.4C53.8247 54.9121 53.7301 55.429 53.4977 55.8886C53.2652 56.3481 52.9049 56.7306 52.46 56.99C51.8 57.42 51.1 57.91 50.28 58.53C49.79 58.9 49.74 59.1 49.95 59.64C50.56 61.13 51.05 62.26 51.53 63.29C51.94 64.14 52.08 64.22 53.07 64.03L53.92 63.84C54.56 63.69 55.21 63.55 55.84 63.39C56.0355 63.3062 56.2403 63.2458 56.45 63.21V63.21ZM70.36 62.21C67.8261 62.1968 65.4001 61.1823 63.6111 59.3877C61.8221 57.5931 60.8152 55.164 60.81 52.63C60.8101 51.3695 61.0612 50.1216 61.5488 48.9592C62.0364 47.7969 62.7507 46.7433 63.65 45.86C65.4143 44.0959 67.7861 43.0728 70.28 43C71.5511 42.9828 72.813 43.2184 73.9922 43.6933C75.1714 44.1681 76.2445 44.8727 77.1489 45.766C78.0534 46.6593 78.7712 47.7235 79.2607 48.8967C79.7501 50.0699 80.0015 51.3288 80 52.6C80.0353 53.8176 79.8261 55.03 79.3846 56.1654C78.9432 57.3007 78.2786 58.336 77.43 59.21C76.5226 60.1712 75.426 60.934 74.2092 61.4503C72.9923 61.9667 71.6818 62.2253 70.36 62.21V62.21ZM70.24 44C68.0099 44.0698 65.8928 44.9976 64.33 46.59C63.5252 47.3807 62.8861 48.3238 62.45 49.3643C62.0139 50.4048 61.7895 51.5218 61.79 52.65C61.7926 54.9196 62.6933 57.0959 64.2953 58.7035C65.8973 60.3111 68.0705 61.2194 70.34 61.23V61.23C71.5203 61.2403 72.6901 61.0067 73.7759 60.5439C74.8617 60.081 75.8402 59.3988 76.65 58.54C77.4077 57.766 78.0018 56.8474 78.3969 55.8389C78.7921 54.8304 78.9802 53.7527 78.95 52.67V52.67C78.9593 51.5288 78.7414 50.3972 78.309 49.3411C77.8766 48.285 77.2384 47.3255 76.4314 46.5186C75.6245 45.7117 74.665 45.0734 73.6089 44.641C72.5528 44.2086 71.4212 43.9907 70.28 44H70.24Z" fill="#231F20"/>
<path d="M121.74 79.06C120.26 79.06 118.74 78.99 117.29 79.06C116.24 79.2134 115.172 78.9497 114.314 78.3255C113.456 77.7013 112.877 76.7661 112.7 75.72C111.74 72.289 110.033 69.1131 107.7 66.42C104.407 62.4001 102.833 57.2435 103.32 52.07C104.32 41.36 112.9 34.87 123.9 35.94C140.13 37.5 144.75 54.31 136.26 65.94C133.97 69.09 131.77 72.16 130.8 76C130.26 78.14 128.67 79.1 126.44 79C124.86 79 123.3 79.06 121.74 79.06Z" fill="white"/>
<path d="M116.94 79.58C115.832 79.6433 114.739 79.2973 113.869 78.6079C112.998 77.9184 112.412 76.9335 112.22 75.84C111.256 72.4852 109.573 69.3802 107.29 66.74C103.918 62.6056 102.306 57.312 102.8 52C102.963 49.603 103.605 47.263 104.687 45.118C105.769 42.9729 107.27 41.0661 109.1 39.51C111.18 37.8831 113.561 36.6841 116.106 35.9821C118.651 35.2801 121.31 35.0891 123.93 35.42C131.05 36.11 136.66 39.87 139.3 45.74C142.19 52.16 141.17 60.02 136.64 66.25C134.48 69.25 132.24 72.31 131.26 76.15C130.68 78.43 128.95 79.62 126.4 79.54C125.35 79.54 124.28 79.54 123.23 79.54H121.74H120.37C119.37 79.54 118.32 79.54 117.31 79.54L116.94 79.58ZM121.59 36.33C117.294 36.238 113.101 37.6532 109.74 40.33C108.008 41.7991 106.589 43.6019 105.569 45.6309C104.548 47.6599 103.947 49.8736 103.8 52.14C103.558 54.6404 103.812 57.1638 104.546 59.5661C105.281 61.9684 106.481 64.2023 108.08 66.14C110.453 68.8942 112.197 72.1327 113.19 75.63C113.26 76.0945 113.42 76.5407 113.663 76.9431C113.905 77.3454 114.224 77.696 114.602 77.9747C114.98 78.2534 115.41 78.4547 115.866 78.5672C116.322 78.6796 116.796 78.701 117.26 78.63C118.26 78.63 119.36 78.63 120.38 78.63H121.74H123.23C124.28 78.63 125.36 78.63 126.44 78.63C128.53 78.71 129.83 77.82 130.29 75.99C131.29 71.99 133.61 68.81 135.83 65.76C140.15 59.82 141.13 52.34 138.39 46.24C135.86 40.62 130.69 37.17 123.83 36.5C123.08 36.37 122.33 36.33 121.59 36.33Z" fill="#231F20"/>
<path d="M127.7 79.08H115.71C114.633 79.08 113.76 79.953 113.76 81.03V81.64C113.76 82.717 114.633 83.59 115.71 83.59H127.7C128.777 83.59 129.65 82.717 129.65 81.64V81.03C129.65 79.953 128.777 79.08 127.7 79.08Z" fill="white"/>
<path d="M127.71 84.09H115.71C115.062 84.09 114.44 83.8333 113.981 83.376C113.522 82.9187 113.263 82.298 113.26 81.65V81C113.263 80.352 113.522 79.7314 113.981 79.274C114.44 78.8167 115.062 78.56 115.71 78.56H127.71C128.358 78.56 128.98 78.8167 129.439 79.274C129.898 79.7314 130.157 80.352 130.16 81V81.63C130.161 81.9526 130.099 82.2722 129.976 82.5706C129.854 82.8691 129.674 83.1403 129.446 83.3689C129.218 83.5974 128.948 83.7788 128.65 83.9025C128.352 84.0263 128.033 84.09 127.71 84.09V84.09ZM115.71 79.58C115.327 79.58 114.96 79.7314 114.688 80.0012C114.417 80.2709 114.263 80.6372 114.26 81.02V81.65C114.26 81.8399 114.298 82.028 114.371 82.2034C114.444 82.3787 114.551 82.5379 114.685 82.6718C114.82 82.8056 114.98 82.9115 115.156 82.9833C115.332 83.055 115.52 83.0913 115.71 83.09H127.71C127.9 83.0913 128.088 83.055 128.264 82.9833C128.44 82.9115 128.6 82.8056 128.735 82.6718C128.869 82.5379 128.976 82.3787 129.049 82.2034C129.122 82.028 129.16 81.8399 129.16 81.65V81C129.157 80.6172 129.003 80.2509 128.732 79.9812C128.46 79.7114 128.093 79.56 127.71 79.56L115.71 79.58Z" fill="#231F20"/>
<path d="M127.7 83.59H115.71C114.633 83.59 113.76 84.463 113.76 85.54V86.15C113.76 87.227 114.633 88.1 115.71 88.1H127.7C128.777 88.1 129.65 87.227 129.65 86.15V85.54C129.65 84.463 128.777 83.59 127.7 83.59Z" fill="white"/>
<path d="M127.71 88.61H115.71C115.06 88.61 114.437 88.3519 113.978 87.8924C113.518 87.4329 113.26 86.8098 113.26 86.16V85.54C113.26 84.8902 113.518 84.2671 113.978 83.8076C114.437 83.3481 115.06 83.09 115.71 83.09H127.71C128.36 83.09 128.983 83.3481 129.442 83.8076C129.902 84.2671 130.16 84.8902 130.16 85.54V86.16C130.16 86.8098 129.902 87.4329 129.442 87.8924C128.983 88.3519 128.36 88.61 127.71 88.61ZM115.71 84.09C115.325 84.09 114.957 84.2428 114.685 84.5147C114.413 84.7866 114.26 85.1554 114.26 85.54V86.16C114.26 86.5446 114.413 86.9134 114.685 87.1853C114.957 87.4572 115.325 87.61 115.71 87.61H127.71C128.095 87.61 128.463 87.4572 128.735 87.1853C129.007 86.9134 129.16 86.5446 129.16 86.16V85.54C129.16 85.1554 129.007 84.7866 128.735 84.5147C128.463 84.2428 128.095 84.09 127.71 84.09H115.71Z" fill="#231F20"/>
<path d="M127.87 88.11C127.87 89.81 125.11 91.19 121.71 91.19C118.31 91.19 115.55 89.81 115.55 88.11H127.87Z" fill="white"/>
<path d="M121.71 91.69C117.97 91.69 115.05 90.12 115.05 88.11C115.05 87.9774 115.103 87.8502 115.196 87.7564C115.29 87.6627 115.417 87.61 115.55 87.61H127.87C128.003 87.61 128.13 87.6627 128.224 87.7564C128.317 87.8502 128.37 87.9774 128.37 88.11C128.37 90.12 125.45 91.69 121.71 91.69ZM116.17 88.61C116.7 89.67 118.82 90.69 121.71 90.69C124.6 90.69 126.71 89.69 127.25 88.61H116.17Z" fill="#231F20"/>
<path d="M119 77.29C118.934 77.285 118.87 77.267 118.811 77.237C118.753 77.2071 118.7 77.1659 118.658 77.1157C118.615 77.0655 118.582 77.0074 118.562 76.9446C118.542 76.8818 118.535 76.8157 118.54 76.75V76.31C118.95 72.7849 119.02 69.2286 118.75 65.69C116.52 65.3455 114.407 64.4672 112.59 63.13C111.465 62.3551 110.57 61.291 110 60.05C109.696 59.3946 109.567 58.6717 109.624 57.9516C109.682 57.2315 109.925 56.5385 110.33 55.94C110.685 55.5171 111.123 55.1723 111.618 54.9271C112.112 54.682 112.652 54.5418 113.204 54.5155C113.755 54.4892 114.306 54.5773 114.822 54.7743C115.337 54.9713 115.807 55.2728 116.2 55.66C117.656 57.6008 118.66 59.8419 119.14 62.22C119.359 63.0696 119.529 63.931 119.65 64.8C121.328 64.9674 123.023 64.825 124.65 64.38V64.12V63.74C124.99 60.82 125.41 57.18 127.52 54.87C127.87 54.48 129.12 53.24 130.46 53.38C130.791 53.425 131.105 53.5519 131.374 53.7493C131.643 53.9466 131.858 54.2082 132 54.51C132.437 55.3591 132.665 56.3001 132.665 57.255C132.665 58.2099 132.437 59.1509 132 60C131.136 61.6415 129.816 62.999 128.2 63.91C127.352 64.4185 126.449 64.831 125.51 65.14C125.208 68.9657 125.373 72.814 126 76.6C126.017 76.7309 125.983 76.8634 125.905 76.9698C125.827 77.0761 125.71 77.1478 125.58 77.17C125.449 77.1874 125.317 77.1534 125.21 77.075C125.104 76.9967 125.032 76.8802 125.01 76.75C124.41 73.0115 124.252 69.2154 124.54 65.44C122.968 65.8274 121.343 65.9524 119.73 65.81C119.979 69.3329 119.902 72.8712 119.5 76.38V76.83C119.49 76.9556 119.433 77.0727 119.34 77.158C119.247 77.2432 119.126 77.2904 119 77.29ZM113.41 55.51H113.26C112.853 55.5101 112.452 55.5998 112.084 55.7726C111.715 55.9454 111.39 56.1972 111.13 56.51C110.835 56.9723 110.662 57.5012 110.625 58.0482C110.588 58.5951 110.69 59.1425 110.92 59.64C111.425 60.7138 112.209 61.6325 113.19 62.3C114.797 63.4832 116.655 64.2804 118.62 64.63C118.5 63.9 118.36 63.17 118.17 62.45C117.733 60.223 116.803 58.1219 115.45 56.3C115.178 56.0302 114.852 55.8204 114.494 55.6844C114.136 55.5483 113.753 55.4889 113.37 55.51H113.41ZM130.33 54.37C129.542 54.501 128.83 54.9175 128.33 55.54C126.44 57.62 126.04 61.08 125.72 63.86V64.04C126.442 63.7763 127.135 63.4413 127.79 63.04C129.237 62.2307 130.42 61.0228 131.2 59.56C131.563 58.8531 131.753 58.0698 131.753 57.275C131.753 56.4802 131.563 55.6969 131.2 54.99C131.136 54.8288 131.032 54.6869 130.897 54.5782C130.762 54.4695 130.601 54.3978 130.43 54.37H130.33Z" fill="#231F20"/>
<path d="M175.93 56C169.42 56 164.32 43.72 164.32 28C164.32 12.28 169.42 0.0500031 175.93 0.0500031C182.44 0.0500031 187.54 12.33 187.54 28C187.54 43.67 182.44 56 175.93 56ZM175.93 1.09C170.08 1.09 165.32 13.18 165.32 28.04C165.32 42.9 170.08 55.04 175.93 55.04C181.78 55.04 186.54 42.95 186.54 28.04C186.54 13.13 181.78 1.1 175.93 1.1V1.09Z" fill="#231F20"/>
<path d="M191.77 44.1C191.2 44.1 190.61 44.1 189.99 44.04C184.35 43.68 177.57 41.72 170.9 38.52C164.23 35.32 158.47 31.25 154.66 27.07C150.85 22.89 149.35 18.82 150.73 15.95C152.11 13.08 156.06 11.7 161.87 12.07C167.51 12.43 174.29 14.39 180.96 17.59C187.63 20.79 193.39 24.86 197.2 29C201.01 33.14 202.5 37.25 201.12 40.12C199.89 42.72 196.6 44.1 191.77 44.1ZM160.12 13C155.73 13 152.68 14.2 151.64 16.38C150.46 18.82 151.83 22.47 155.4 26.38C159.12 30.47 164.78 34.45 171.34 37.6C177.9 40.75 184.54 42.67 190.06 43.02C195.34 43.36 199.06 42.15 200.22 39.7C201.38 37.25 200.03 33.61 196.46 29.7C192.74 25.61 187.08 21.63 180.52 18.48C173.96 15.33 167.32 13.41 161.8 13.06C161.22 13.02 160.66 13 160.12 13Z" fill="#231F20"/>
<path d="M160.09 44.1C155.26 44.1 151.97 42.72 150.73 40.16C149.35 37.29 150.73 33.34 154.66 29.04C158.59 24.74 164.24 20.79 170.9 17.59C177.56 14.39 184.35 12.43 189.99 12.07C195.79 11.7 199.75 13.07 201.13 15.95C202.5 18.82 201.13 22.77 197.2 27.07C193.27 31.37 187.62 35.32 181 38.52C174.38 41.72 167.51 43.68 161.87 44C161.25 44.08 160.66 44.1 160.09 44.1ZM191.74 13C191.2 13 190.64 13.02 190.06 13.06C184.54 13.41 177.89 15.33 171.34 18.48C164.79 21.63 159.12 25.61 155.4 29.7C151.83 33.62 150.46 37.27 151.63 39.7C152.8 42.13 156.52 43.36 161.8 43.02C167.32 42.67 173.97 40.75 180.52 37.6C187.07 34.45 192.74 30.47 196.46 26.38C200.03 22.46 201.4 18.81 200.22 16.38C199.18 14.21 196.13 13 191.74 13Z" fill="#231F20"/>
<path d="M175.93 34.1C179.271 34.1 181.98 31.3913 181.98 28.05C181.98 24.7087 179.271 22 175.93 22C172.589 22 169.88 24.7087 169.88 28.05C169.88 31.3913 172.589 34.1 175.93 34.1Z" fill="#231F20"/>
<path d="M90.45 30.77C90.372 30.7684 90.2953 30.7489 90.226 30.7131C90.1567 30.6772 90.0965 30.6259 90.0501 30.5631C90.0037 30.5003 89.9724 30.4277 89.9585 30.3509C89.9446 30.274 89.9486 30.1951 89.97 30.12L96.54 8.29C96.5701 8.19714 96.6252 8.11438 96.6993 8.05086C96.7734 7.98734 96.8636 7.94551 96.96 7.93L100.16 7.56C100.256 7.54692 100.354 7.56276 100.442 7.60549C100.529 7.64822 100.601 7.71593 100.65 7.8L112.06 27.51C112.099 27.5821 112.12 27.6629 112.12 27.745C112.12 27.8271 112.099 27.9079 112.06 27.98C112.026 28.0542 111.972 28.1181 111.906 28.1654C111.839 28.2128 111.761 28.2419 111.68 28.25L107.45 28.76C107.351 28.7727 107.251 28.7545 107.164 28.7079C107.076 28.6614 107.005 28.5887 106.96 28.5L104.62 24.27L96.29 25.27L95.06 29.92C95.0313 30.0155 94.9754 30.1004 94.8989 30.1644C94.8225 30.2284 94.729 30.2686 94.63 30.28L90.5 30.77H90.45ZM97.45 8.89L91.19 29.68L94.19 29.32L95.42 24.68C95.4439 24.5828 95.4969 24.4953 95.572 24.4291C95.6471 24.363 95.7406 24.3214 95.84 24.31L104.84 23.24C104.94 23.2266 105.042 23.2444 105.131 23.2909C105.221 23.3375 105.294 23.4105 105.34 23.5L107.68 27.72L110.81 27.35L100 8.59L97.45 8.89ZM96.78 22C96.7096 22.0005 96.64 21.9856 96.5761 21.9562C96.5121 21.9268 96.4554 21.8837 96.41 21.83C96.3566 21.7675 96.3188 21.6932 96.2997 21.6132C96.2805 21.5333 96.2807 21.4499 96.3 21.37L98.56 12.54C98.5839 12.4428 98.6369 12.3553 98.712 12.2891C98.7871 12.223 98.8806 12.1814 98.98 12.17C99.0801 12.1551 99.1824 12.1722 99.2722 12.2189C99.362 12.2656 99.4347 12.3395 99.48 12.43L103.68 20.5C103.719 20.5721 103.74 20.6529 103.74 20.735C103.74 20.8171 103.719 20.8979 103.68 20.97C103.641 21.0396 103.586 21.0993 103.52 21.1444C103.454 21.1894 103.379 21.2187 103.3 21.23L96.84 21.99L96.78 22ZM99.2 14L97.45 20.87L102.45 20.27L99.2 14Z" fill="#231F20"/>
<path d="M150.87 65.76L151.5 65.88C151.831 65.9413 152.165 65.9847 152.5 66.01C152.817 66.029 153.134 65.9953 153.44 65.91C153.722 65.8179 153.977 65.6562 154.18 65.44C154.413 65.1528 154.562 64.8067 154.61 64.44C154.666 64.1896 154.666 63.9301 154.61 63.6796C154.555 63.4291 154.446 63.1938 154.29 62.99C153.955 62.5545 153.464 62.2673 152.92 62.19C152.454 62.0989 151.97 62.1584 151.54 62.36C151.113 62.5843 150.764 62.9331 150.54 63.36L148.1 62.2C148.329 61.7515 148.634 61.3457 149 61C149.356 60.6703 149.769 60.4092 150.22 60.23C150.681 60.0541 151.167 59.9496 151.66 59.92C152.785 59.8612 153.907 60.0882 154.92 60.58C155.419 60.8268 155.867 61.1661 156.24 61.58C156.6 61.9718 156.867 62.4402 157.02 62.95C157.185 63.5155 157.209 64.113 157.09 64.69C156.97 65.4232 156.62 66.0991 156.09 66.62C155.549 67.1369 154.838 67.4391 154.09 67.47C154.485 67.5851 154.853 67.7804 155.169 68.0436C155.486 68.3068 155.745 68.6324 155.93 69C156.286 69.7576 156.385 70.6112 156.21 71.43C156.113 72.0625 155.867 72.6627 155.49 73.18C155.137 73.6441 154.691 74.0291 154.18 74.31C153.653 74.5856 153.08 74.7619 152.49 74.83C151.864 74.8997 151.231 74.8795 150.61 74.77C150.046 74.6668 149.496 74.4991 148.97 74.27C148.489 74.057 148.047 73.7665 147.66 73.41C147.279 73.0594 146.97 72.6383 146.75 72.17C146.505 71.648 146.359 71.0852 146.32 70.51L149.03 70.3C149.044 70.8511 149.233 71.3834 149.57 71.82C149.943 72.2406 150.453 72.5137 151.01 72.59C151.34 72.6565 151.68 72.6565 152.01 72.59C152.31 72.5415 152.599 72.4363 152.86 72.28C153.121 72.1259 153.346 71.918 153.52 71.67C153.704 71.4071 153.827 71.1064 153.88 70.79C153.965 70.3963 153.934 69.9862 153.79 69.61C153.655 69.2946 153.442 69.0191 153.17 68.81C152.867 68.5887 152.529 68.4197 152.17 68.31C151.811 68.1867 151.443 68.0897 151.07 68.02L150.48 67.92L150.87 65.76Z" fill="white"/>
<path d="M151.76 75.4C151.344 75.3977 150.93 75.3609 150.52 75.29C149.918 75.1767 149.331 74.9955 148.77 74.75C148.237 74.5201 147.747 74.2023 147.32 73.81C146.905 73.4115 146.566 72.9404 146.32 72.42C146.051 71.8441 145.888 71.224 145.84 70.59C145.834 70.5234 145.841 70.4562 145.862 70.3926C145.882 70.329 145.916 70.2702 145.96 70.22C146.047 70.1216 146.169 70.0607 146.3 70.05L149.01 69.83C149.144 69.8236 149.275 69.8663 149.38 69.95C149.479 70.0409 149.54 70.166 149.55 70.3C149.565 70.7472 149.715 71.1794 149.98 71.54C150.28 71.8663 150.689 72.0724 151.13 72.12C151.385 72.1649 151.645 72.1649 151.9 72.12C152.14 72.0788 152.37 71.994 152.58 71.87C152.774 71.7457 152.944 71.5863 153.08 71.4C153.223 71.1971 153.319 70.9647 153.36 70.72C153.425 70.4237 153.405 70.1149 153.3 69.83C153.201 69.5906 153.039 69.3831 152.83 69.23C152.585 69.0437 152.312 68.8985 152.02 68.8C151.691 68.6935 151.358 68.6034 151.02 68.53L150.43 68.43C150.3 68.4057 150.185 68.3311 150.11 68.2224C150.036 68.1138 150.007 67.9799 150.03 67.85L150.43 65.66C150.454 65.5303 150.529 65.4154 150.638 65.3405C150.746 65.2656 150.88 65.2366 151.01 65.26L151.64 65.38C151.971 65.4403 152.305 65.4803 152.64 65.5C152.896 65.5207 153.154 65.4936 153.4 65.42C153.602 65.3639 153.783 65.249 153.92 65.09C154.093 64.8786 154.201 64.6215 154.23 64.35C154.273 64.1673 154.275 63.9774 154.235 63.794C154.195 63.6106 154.115 63.4384 154 63.29C153.872 63.1234 153.713 62.9837 153.531 62.879C153.349 62.7743 153.148 62.7067 152.94 62.68C152.574 62.6099 152.196 62.659 151.86 62.82C151.506 62.9926 151.216 63.2726 151.03 63.62C150.967 63.7292 150.865 63.8104 150.744 63.8475C150.624 63.8846 150.494 63.8748 150.38 63.82L147.95 62.67C147.888 62.6414 147.832 62.5999 147.788 62.5481C147.743 62.4964 147.709 62.4357 147.69 62.37C147.661 62.3092 147.646 62.2425 147.646 62.175C147.646 62.1075 147.661 62.0408 147.69 61.98C147.939 61.4647 148.278 60.9975 148.69 60.6C149.091 60.2274 149.559 59.9354 150.07 59.74C150.579 59.5414 151.115 59.4233 151.66 59.39C152.219 59.3537 152.78 59.3873 153.33 59.49C153.969 59.6052 154.589 59.8106 155.17 60.1C155.722 60.3757 156.22 60.7482 156.64 61.2C157.051 61.6458 157.355 62.1793 157.53 62.76C157.717 63.4106 157.744 64.0966 157.61 64.76C157.464 65.5992 157.054 66.3699 156.44 66.96C156.148 67.2416 155.809 67.4715 155.44 67.64C155.864 67.9465 156.207 68.3515 156.44 68.82C156.842 69.6739 156.958 70.635 156.77 71.56C156.656 72.2814 156.375 72.9663 155.95 73.56C155.556 74.0836 155.055 74.5167 154.48 74.83C153.897 75.1346 153.263 75.3311 152.61 75.41C152.327 75.4243 152.043 75.4209 151.76 75.4V75.4ZM146.89 71C146.944 71.3466 147.049 71.6834 147.2 72C147.393 72.4119 147.665 72.7821 148 73.09C148.347 73.411 148.746 73.6713 149.18 73.86C149.666 74.0742 150.177 74.2287 150.7 74.32C151.27 74.4292 151.854 74.4495 152.43 74.38C152.962 74.3259 153.478 74.1697 153.95 73.92C154.395 73.6687 154.783 73.3283 155.09 72.92C155.418 72.4633 155.634 71.9357 155.72 71.38C155.878 70.6663 155.793 69.9204 155.48 69.26C155.319 68.9516 155.095 68.6802 154.823 68.4632C154.551 68.2463 154.237 68.0885 153.9 68C153.786 67.9593 153.691 67.8798 153.631 67.7754C153.57 67.6711 153.549 67.5487 153.57 67.43C153.594 67.3172 153.651 67.2144 153.735 67.1357C153.82 67.057 153.926 67.0061 154.04 66.99C154.676 66.9688 155.282 66.7123 155.74 66.27C156.207 65.8323 156.517 65.2521 156.62 64.62C156.723 64.1226 156.702 63.6076 156.56 63.12C156.431 62.6771 156.202 62.2699 155.89 61.93C155.555 61.5686 155.154 61.2734 154.71 61.06C153.78 60.6007 152.746 60.3905 151.71 60.45C151.271 60.4745 150.839 60.569 150.43 60.73C150.031 60.8837 149.665 61.111 149.35 61.4C149.14 61.5994 148.953 61.8207 148.79 62.06L150.34 62.8C150.605 62.4505 150.948 62.1666 151.34 61.97C151.867 61.7216 152.459 61.648 153.03 61.76C153.702 61.8606 154.308 62.2194 154.72 62.76C154.914 63.0205 155.05 63.3195 155.119 63.6368C155.188 63.9541 155.188 64.2825 155.12 64.6C155.059 65.0575 154.868 65.4878 154.57 65.84C154.3 66.1304 153.953 66.3384 153.57 66.44C153.211 66.5515 152.834 66.5923 152.46 66.56C152.094 66.5414 151.73 66.4979 151.37 66.43H151.23L151.01 67.62H151.11C151.504 67.6905 151.891 67.7908 152.27 67.92C152.669 68.0523 153.044 68.2481 153.38 68.5C153.755 68.7787 154.04 69.1611 154.2 69.6001C154.36 70.0391 154.388 70.5154 154.28 70.97C154.218 71.3478 154.074 71.7075 153.858 72.0237C153.642 72.3398 153.359 72.6048 153.03 72.8C152.72 72.9817 152.382 73.1102 152.03 73.18C151.656 73.245 151.274 73.245 150.9 73.18C150.216 73.074 149.596 72.7176 149.16 72.18C148.862 71.8049 148.663 71.3615 148.58 70.89L146.89 71Z" fill="#231F20"/>
<path d="M159.47 73.29L161.93 73.74L159.24 78.74L157.08 78.34L159.47 73.29Z" fill="white"/>
<path d="M159.24 79.26H159.15L156.99 78.86C156.913 78.8497 156.84 78.8206 156.777 78.7752C156.715 78.7298 156.664 78.6697 156.63 78.6C156.596 78.5317 156.578 78.4564 156.578 78.38C156.578 78.3036 156.596 78.2283 156.63 78.16L159.02 73.09C159.065 72.9893 159.143 72.9069 159.241 72.8561C159.339 72.8053 159.452 72.789 159.56 72.81L162.02 73.26C162.099 73.2723 162.173 73.3044 162.236 73.3534C162.299 73.4024 162.349 73.4666 162.38 73.54C162.414 73.61 162.432 73.687 162.432 73.765C162.432 73.843 162.414 73.92 162.38 73.99L159.68 78.99C159.637 79.0701 159.574 79.1373 159.497 79.1848C159.419 79.2323 159.331 79.2582 159.24 79.26V79.26ZM157.81 78L158.97 78.21L161.17 74.12L159.76 73.86L157.81 78Z" fill="#231F20"/>
<path d="M170.28 66.26L167.14 68.26L166 66.31L171 63.51L173.2 63.92L170.58 78.21L168.16 77.77L170.28 66.26Z" fill="white"/>
<path d="M170.59 78.71H170.5L168.08 78.26C168.015 78.2491 167.953 78.2254 167.897 78.1903C167.841 78.1552 167.792 78.1094 167.754 78.0555C167.716 78.0015 167.689 77.9406 167.674 77.8761C167.66 77.8117 167.659 77.745 167.67 77.68L169.58 67.29L167.41 68.67C167.353 68.7065 167.288 68.7307 167.221 68.741C167.154 68.7513 167.086 68.7476 167.02 68.73C166.953 68.7165 166.89 68.689 166.835 68.6494C166.78 68.6097 166.734 68.5588 166.7 68.5L165.6 66.56C165.573 66.5003 165.559 66.4355 165.559 66.37C165.559 66.3045 165.573 66.2397 165.6 66.18C165.615 66.1154 165.645 66.055 165.686 66.0031C165.728 65.9512 165.78 65.9092 165.84 65.88L170.84 63.08C170.939 63.021 171.056 62.9997 171.17 63.02L173.37 63.42C173.499 63.4467 173.613 63.5214 173.689 63.6291C173.766 63.7368 173.798 63.8694 173.78 64L171.15 78.3C171.127 78.4139 171.066 78.5167 170.977 78.5912C170.888 78.6658 170.776 78.7077 170.66 78.71H170.59ZM168.75 77.37L170.19 77.63L172.63 64.32L171.1 64L166.71 66.46L167.31 67.46L170.01 65.74C170.093 65.6886 170.188 65.6613 170.285 65.6613C170.382 65.6613 170.477 65.6886 170.56 65.74C170.641 65.795 170.704 65.8727 170.742 65.9634C170.779 66.0541 170.789 66.1538 170.77 66.25L168.75 77.37Z" fill="#231F20"/>
<path d="M182 77.3L175.92 76.19L176.36 73.78L183.76 65.85L186.51 66.36L184.82 75.57L186.9 75.95L186.5 78.13L184.42 77.75L183.89 80.66L181.46 80.21L182 77.3ZM183.46 69.3L178.82 74.42L182.44 75.08L183.46 69.3Z" fill="white"/>
<path d="M183.9 81.16H183.81L181.38 80.71C181.25 80.6857 181.135 80.6111 181.06 80.5024C180.986 80.3938 180.957 80.2599 180.98 80.13L181.42 77.71L175.84 76.71C175.775 76.6994 175.713 76.6752 175.658 76.6391C175.603 76.6029 175.556 76.5555 175.52 76.5C175.481 76.4478 175.453 76.3877 175.439 76.3238C175.425 76.2599 175.426 76.1938 175.44 76.13L175.88 73.72C175.898 73.6259 175.944 73.5392 176.01 73.47L183.41 65.54C183.469 65.4824 183.54 65.4389 183.618 65.4129C183.696 65.387 183.779 65.3791 183.86 65.39L186.61 65.9C186.74 65.9243 186.855 65.9989 186.93 66.1076C187.004 66.2162 187.033 66.3501 187.01 66.48L185.41 75.2L187 75.49C187.13 75.5143 187.245 75.5889 187.32 75.6976C187.394 75.8062 187.423 75.9401 187.4 76.07L187 78.25C186.989 78.3151 186.965 78.3772 186.929 78.4323C186.893 78.4875 186.846 78.5344 186.79 78.57C186.737 78.6072 186.677 78.6334 186.613 78.6472C186.55 78.6609 186.484 78.6619 186.42 78.65L184.83 78.36L184.39 80.78C184.361 80.9087 184.287 81.0226 184.18 81.1C184.094 81.1444 183.997 81.1651 183.9 81.16V81.16ZM182.06 79.81L183.5 80.07L183.94 77.66C183.964 77.5303 184.039 77.4154 184.148 77.3405C184.256 77.2656 184.39 77.2366 184.52 77.26L186.11 77.55L186.33 76.35L184.74 76.06C184.675 76.0483 184.614 76.0236 184.559 75.9875C184.504 75.9515 184.457 75.9047 184.42 75.85C184.383 75.7967 184.357 75.7366 184.343 75.673C184.329 75.6095 184.328 75.5439 184.34 75.48L185.94 66.76L183.94 66.4L176.84 74L176.51 75.77L182.1 76.77C182.23 76.7943 182.345 76.8689 182.42 76.9776C182.494 77.0862 182.523 77.2201 182.5 77.35L182.06 79.81ZM182.41 75.62H182.32L178.7 75C178.613 74.9845 178.531 74.9456 178.464 74.8875C178.397 74.8294 178.348 74.7542 178.32 74.67C178.291 74.5852 178.285 74.4944 178.303 74.4066C178.321 74.3188 178.361 74.2372 178.42 74.17L183.06 69C183.117 68.9397 183.188 68.8944 183.266 68.8682C183.345 68.8421 183.428 68.8358 183.51 68.85C183.649 68.8735 183.774 68.9485 183.86 69.06C183.937 69.1712 183.972 69.3056 183.96 69.44L182.9 75.21C182.877 75.3239 182.816 75.4267 182.727 75.5012C182.638 75.5758 182.526 75.6177 182.41 75.62ZM179.77 74.13L182.01 74.54L182.67 70.92L179.77 74.13Z" fill="#231F20"/>
<path d="M97.09 79.86C96.2099 79.86 95.3495 79.599 94.6177 79.1101C93.8859 78.6211 93.3155 77.9261 92.9787 77.1129C92.6419 76.2998 92.5538 75.4051 92.7255 74.5419C92.8972 73.6786 93.321 72.8857 93.9434 72.2634C94.5657 71.641 95.3586 71.2172 96.2218 71.0455C97.0851 70.8738 97.9798 70.9619 98.7929 71.2987C99.6061 71.6356 100.301 72.2059 100.79 72.9377C101.279 73.6695 101.54 74.5299 101.54 75.41C101.537 76.5894 101.068 77.7198 100.234 78.5537C99.3997 79.3877 98.2694 79.8574 97.09 79.86V79.86ZM97.09 71.96C96.4077 71.96 95.7406 72.1623 95.1733 72.5414C94.6059 72.9205 94.1637 73.4594 93.9026 74.0898C93.6415 74.7202 93.5732 75.4138 93.7063 76.0831C93.8394 76.7523 94.168 77.367 94.6505 77.8495C95.133 78.332 95.7477 78.6606 96.4169 78.7937C97.0862 78.9268 97.7799 78.8585 98.4103 78.5974C99.0407 78.3363 99.5795 77.8941 99.9586 77.3267C100.338 76.7594 100.54 76.0924 100.54 75.41C100.527 74.5028 100.158 73.637 99.5126 72.9992C98.8673 72.3614 97.9973 72.0025 97.09 72V71.96Z" fill="#D1D3D4"/>
<path d="M61.29 25.56C61.1582 25.5574 61.0325 25.5039 60.9393 25.4107C60.8461 25.3175 60.7926 25.1918 60.79 25.06V19C60.7926 18.8682 60.8461 18.7425 60.9393 18.6493C61.0325 18.5561 61.1582 18.5026 61.29 18.5C61.4226 18.5 61.5498 18.5527 61.6436 18.6464C61.7373 18.7402 61.79 18.8674 61.79 19V25.11C61.7776 25.2338 61.7194 25.3484 61.627 25.4317C61.5345 25.5149 61.4144 25.5606 61.29 25.56Z" fill="#231F20"/>
<path d="M64.35 22.5H58.24C58.1074 22.5 57.9802 22.4473 57.8864 22.3536C57.7927 22.2598 57.74 22.1326 57.74 22C57.74 21.8674 57.7927 21.7402 57.8864 21.6464C57.9802 21.5527 58.1074 21.5 58.24 21.5H64.35C64.4818 21.5026 64.6075 21.5561 64.7007 21.6493C64.7939 21.7425 64.8474 21.8682 64.85 22C64.85 22.1326 64.7973 22.2598 64.7036 22.3536C64.6098 22.4473 64.4826 22.5 64.35 22.5Z" fill="#231F20"/>
<path d="M147.54 52.49C147.471 52.5037 147.399 52.5037 147.33 52.49C147.27 52.4631 147.217 52.4246 147.172 52.3766C147.128 52.3286 147.093 52.2722 147.071 52.2107C147.048 52.1491 147.038 52.0838 147.042 52.0184C147.045 51.953 147.062 51.889 147.09 51.83L149.21 47.27C149.232 47.203 149.268 47.1415 149.316 47.0894C149.364 47.0374 149.422 46.996 149.487 46.9681C149.551 46.9401 149.621 46.9262 149.692 46.9272C149.763 46.9283 149.832 46.9442 149.896 46.9741C149.96 47.0039 150.017 47.047 150.063 47.1004C150.109 47.1538 150.144 47.2164 150.164 47.284C150.184 47.3517 150.19 47.4228 150.18 47.4928C150.171 47.5627 150.147 47.63 150.11 47.69L148 52.2C147.958 52.2861 147.892 52.3587 147.811 52.4099C147.73 52.4611 147.636 52.4888 147.54 52.49V52.49Z" fill="#231F20"/>
<path d="M150.88 51.27C150.811 51.2837 150.739 51.2837 150.67 51.27L146.11 49.15C146.006 49.0856 145.929 48.9852 145.894 48.8678C145.859 48.7504 145.868 48.6242 145.92 48.5132C145.972 48.4022 146.062 48.3141 146.175 48.2655C146.287 48.217 146.414 48.2115 146.53 48.25L151.09 50.36C151.15 50.3879 151.204 50.4274 151.249 50.4763C151.293 50.5252 151.328 50.5825 151.35 50.6448C151.372 50.7072 151.382 50.7733 151.379 50.8394C151.375 50.9055 151.359 50.9703 151.33 51.03C151.284 51.1075 151.218 51.1708 151.139 51.2132C151.059 51.2555 150.97 51.2752 150.88 51.27V51.27Z" fill="#231F20"/>
<path d="M100.01 40.29C100.667 40.29 101.2 39.7572 101.2 39.1C101.2 38.4428 100.667 37.91 100.01 37.91C99.3528 37.91 98.82 38.4428 98.82 39.1C98.82 39.7572 99.3528 40.29 100.01 40.29Z" fill="#D1D3D4"/>
<path d="M81.42 15.07C78.84 15.07 78.84 19.07 81.42 19.07C84 19.07 84 15.07 81.42 15.07Z" fill="#D1D3D4"/>
<path d="M85.73 87.11C85.4648 87.11 85.2104 87.2154 85.0229 87.4029C84.8354 87.5904 84.73 87.8448 84.73 88.11C84.73 88.3752 84.8354 88.6296 85.0229 88.8171C85.2104 89.0046 85.4648 89.11 85.73 89.11C85.9952 89.11 86.2496 89.0046 86.4371 88.8171C86.6246 88.6296 86.73 88.3752 86.73 88.11C86.73 87.8448 86.6246 87.5904 86.4371 87.4029C86.2496 87.2154 85.9952 87.11 85.73 87.11Z" fill="#D1D3D4"/>
<path d="M145.29 81.65C142.72 81.65 142.72 85.65 145.29 85.65C147.86 85.65 147.87 81.65 145.29 81.65Z" fill="#D1D3D4"/>
<path d="M128.554 16.4042L120.775 18.8346L123.206 26.6138L130.985 24.1834L128.554 16.4042Z" fill="#D1D3D4"/>
<path d="M177.695 85.9591L171.087 83.618L168.746 90.2255L175.353 92.5666L177.695 85.9591Z" fill="#D1D3D4"/>
<path d="M134.05 5.62001C133.767 5.62001 133.491 5.53614 133.256 5.37901C133.02 5.22188 132.837 4.99855 132.729 4.73725C132.621 4.47595 132.592 4.18842 132.647 3.91103C132.703 3.63364 132.839 3.37884 133.039 3.17885C133.239 2.97886 133.494 2.84266 133.771 2.78749C134.048 2.73231 134.336 2.76063 134.597 2.86886C134.859 2.9771 135.082 3.16038 135.239 3.39554C135.396 3.63071 135.48 3.90718 135.48 4.19001C135.48 4.56927 135.329 4.933 135.061 5.20117C134.793 5.46935 134.429 5.62001 134.05 5.62001V5.62001ZM134.05 3.76001C133.965 3.76001 133.882 3.78523 133.811 3.83248C133.74 3.87973 133.685 3.94688 133.653 4.02546C133.62 4.10403 133.612 4.19049 133.628 4.2739C133.645 4.35731 133.686 4.43393 133.746 4.49407C133.806 4.5542 133.883 4.59516 133.966 4.61175C134.05 4.62834 134.136 4.61982 134.215 4.58728C134.293 4.55473 134.36 4.49962 134.408 4.42891C134.455 4.35819 134.48 4.27506 134.48 4.19001C134.48 4.07597 134.435 3.9666 134.354 3.88595C134.273 3.80531 134.164 3.76001 134.05 3.76001V3.76001Z" fill="#D1D3D4"/>
</svg>
