<svg width="334" height="210" viewBox="0 0 334 210" fill="none" xmlns="http://www.w3.org/2000/svg">
<path d="M323.34 1.20999H10.66C5.80541 1.20999 1.87 5.14541 1.87 9.99999V200C1.87 204.855 5.80541 208.79 10.66 208.79H323.34C328.195 208.79 332.13 204.855 332.13 200V9.99999C332.13 5.14541 328.195 1.20999 323.34 1.20999Z" fill="white"/>
<path d="M323.34 1.20999C324.495 1.20868 325.638 1.43514 326.705 1.87641C327.772 2.31768 328.742 2.9651 329.558 3.78159C330.375 4.59808 331.022 5.5676 331.464 6.63465C331.905 7.70169 332.131 8.8453 332.13 9.99999V200C332.131 201.155 331.905 202.298 331.464 203.365C331.022 204.432 330.375 205.402 329.558 206.218C328.742 207.035 327.772 207.682 326.705 208.124C325.638 208.565 324.495 208.791 323.34 208.79H10.66C9.50531 208.791 8.3617 208.565 7.29465 208.124C6.22761 207.682 5.25808 207.035 4.44159 206.218C3.6251 205.402 2.97769 204.432 2.53642 203.365C2.09514 202.298 1.86868 201.155 1.87 200V9.99999C1.86868 8.8453 2.09514 7.70169 2.53642 6.63465C2.97769 5.5676 3.6251 4.59808 4.44159 3.78159C5.25808 2.9651 6.22761 2.31768 7.29465 1.87641C8.3617 1.43514 9.50531 1.20868 10.66 1.20999H323.34ZM323.34 0.209991H10.66C8.06434 0.212639 5.57575 1.24493 3.74035 3.08034C1.90494 4.91575 0.872642 7.40434 0.869995 9.99999V200C0.872642 202.596 1.90494 205.084 3.74035 206.92C5.57575 208.755 8.06434 209.787 10.66 209.79H323.34C325.936 209.787 328.424 208.755 330.26 206.92C332.095 205.084 333.127 202.596 333.13 200V9.99999C333.127 7.40434 332.095 4.91575 330.26 3.08034C328.424 1.24493 325.936 0.212639 323.34 0.209991V0.209991Z" fill="#231F20"/>
<path d="M332.13 10V200C332.131 201.155 331.905 202.298 331.464 203.365C331.022 204.432 330.375 205.402 329.558 206.218C328.742 207.035 327.772 207.682 326.705 208.124C325.638 208.565 324.495 208.791 323.34 208.79H202.64C178.973 179.375 166.07 142.754 166.07 105C166.07 67.2458 178.973 30.6254 202.64 1.21H323.34C324.495 1.20868 325.638 1.43514 326.705 1.87642C327.772 2.31769 328.742 2.96511 329.558 3.7816C330.375 4.59808 331.022 5.56761 331.464 6.63465C331.905 7.7017 332.131 8.84531 332.13 10V10Z" fill="black"/>
<path d="M332.13 10V200C332.131 201.155 331.905 202.298 331.464 203.365C331.022 204.432 330.375 205.402 329.558 206.218C328.742 207.035 327.772 207.682 326.705 208.124C325.638 208.565 324.495 208.791 323.34 208.79H202.64C188.004 190.651 177.381 169.615 171.47 147.07C171.42 146.9 171.38 146.74 171.34 146.57C171.3 146.4 171.25 146.24 171.21 146.07C164.855 121.141 164.386 95.0749 169.841 69.9333C175.296 44.7917 186.525 21.2638 202.64 1.21H323.34C324.495 1.20868 325.638 1.43514 326.705 1.87642C327.772 2.31769 328.742 2.96511 329.558 3.7816C330.375 4.59808 331.022 5.56761 331.464 6.63465C331.905 7.7017 332.131 8.84531 332.13 10V10Z" fill="black"/>
<path d="M235.25 146.07L235.08 146.57L234.91 147.07H171.47C171.42 146.9 171.38 146.74 171.34 146.57C171.3 146.4 171.25 146.24 171.21 146.07H235.25Z" fill="#231F20"/>
<path d="M275.7 78.66L262.7 88.51C262.653 88.5546 262.597 88.5889 262.536 88.6104C262.475 88.632 262.41 88.6403 262.345 88.635C262.281 88.6296 262.218 88.6107 262.161 88.5794C262.104 88.5481 262.055 88.5051 262.016 88.4533C261.977 88.4016 261.949 88.3421 261.935 88.2789C261.92 88.2157 261.919 88.1502 261.932 88.0866C261.945 88.023 261.971 87.9628 262.008 87.91C262.046 87.8571 262.094 87.8128 262.15 87.78L275.15 77.93C275.197 77.8916 275.251 77.8633 275.31 77.847C275.368 77.8306 275.43 77.8265 275.49 77.835C275.55 77.8434 275.607 77.8642 275.659 77.8961C275.711 77.9279 275.755 77.9701 275.79 78.02C275.862 78.1171 275.893 78.2387 275.876 78.3585C275.859 78.4782 275.796 78.5866 275.7 78.66V78.66Z" fill="black"/>
<path d="M263.54 116.55C263.466 116.455 263.431 116.335 263.444 116.216C263.457 116.096 263.517 115.986 263.61 115.91L320 71.09C320.047 71.0481 320.102 71.0163 320.161 70.9964C320.221 70.9765 320.284 70.969 320.346 70.9744C320.409 70.9798 320.469 70.9978 320.525 71.0276C320.58 71.0573 320.629 71.098 320.667 71.1472C320.706 71.1964 320.735 71.253 320.751 71.3137C320.767 71.3743 320.771 71.4376 320.762 71.4997C320.753 71.5617 320.731 71.6213 320.698 71.6747C320.665 71.728 320.621 71.7741 320.57 71.81L264.14 116.62C264.062 116.686 263.962 116.722 263.86 116.72C263.798 116.715 263.738 116.697 263.683 116.668C263.628 116.639 263.579 116.599 263.54 116.55Z" fill="black"/>
<path d="M294.66 120C294.622 119.953 294.595 119.899 294.578 119.841C294.562 119.783 294.557 119.723 294.565 119.663C294.572 119.603 294.592 119.546 294.622 119.494C294.652 119.442 294.692 119.396 294.74 119.36L328.35 93.47C328.447 93.3978 328.569 93.3668 328.688 93.3837C328.808 93.4005 328.917 93.4639 328.99 93.56C329.061 93.6567 329.092 93.7769 329.077 93.8959C329.062 94.0149 329.002 94.1236 328.91 94.2L295.3 120.1C295.253 120.138 295.199 120.165 295.141 120.182C295.083 120.198 295.023 120.203 294.963 120.195C294.903 120.188 294.846 120.168 294.794 120.138C294.742 120.108 294.696 120.068 294.66 120.02V120Z" fill="black"/>
<path d="M245.82 135.5H332.13V152.58H241.78C241.472 152.58 241.168 152.508 240.893 152.371C240.617 152.234 240.376 152.035 240.19 151.79C240.007 151.542 239.884 151.255 239.83 150.951C239.776 150.648 239.793 150.336 239.88 150.04L243.74 137.04C243.872 136.592 244.147 136.2 244.522 135.922C244.898 135.644 245.353 135.496 245.82 135.5V135.5Z" fill="black"/>
<path d="M332.13 168.79V174.25H229.76C228.3 174.25 226.67 173.06 226.67 171.61V168.79H332.13Z" fill="#231F20"/>
<path d="M332.13 135.5V152.58H241.78C241.472 152.58 241.168 152.508 240.893 152.371C240.617 152.234 240.376 152.035 240.19 151.79C240.007 151.542 239.884 151.255 239.83 150.951C239.776 150.648 239.793 150.336 239.88 150.04L240.76 147.04L240.91 146.54L241.06 146.04L243.74 137.04C243.871 136.59 244.144 136.196 244.52 135.916C244.895 135.636 245.352 135.487 245.82 135.49L332.13 135.5Z" fill="white"/>
<path d="M332.13 135.5V152.58H241.78C241.472 152.58 241.168 152.508 240.893 152.371C240.617 152.234 240.376 152.035 240.19 151.79C240.007 151.542 239.884 151.255 239.83 150.951C239.776 150.648 239.793 150.336 239.88 150.04L240.76 147.04L240.91 146.54L241.06 146.04L243.74 137.04C243.871 136.59 244.144 136.196 244.52 135.916C244.895 135.636 245.352 135.487 245.82 135.49H332.13V135.5ZM333.13 134.49H245.82C245.141 134.492 244.482 134.715 243.941 135.124C243.4 135.533 243.006 136.108 242.82 136.76L240.14 145.76L239.99 146.25L239.84 146.75L238.96 149.75C238.83 150.195 238.805 150.664 238.886 151.12C238.968 151.577 239.154 152.008 239.43 152.38C239.709 152.749 240.071 153.049 240.485 153.256C240.9 153.462 241.357 153.57 241.82 153.57H333.17V134.5L333.13 134.49Z" fill="#231F20"/>
<path d="M332.13 131.1V132H244.72C244.49 131.985 244.26 131.985 244.03 132C242.783 132.129 241.599 132.613 240.619 133.394C239.638 134.176 238.903 135.223 238.5 136.41L235.25 146.01L235.08 146.51L234.91 147.01L227.66 168.41C227.62 168.513 227.593 168.62 227.58 168.73V168.73C227.576 168.793 227.576 168.857 227.58 168.92C227.583 169.364 227.761 169.789 228.076 170.101C228.39 170.414 228.816 170.59 229.26 170.59H332.13V171.51H229.25C228.832 171.51 228.42 171.409 228.049 171.216C227.678 171.022 227.36 170.743 227.12 170.4C226.844 170.002 226.688 169.534 226.67 169.05C226.665 169.007 226.665 168.963 226.67 168.92C226.665 168.847 226.665 168.773 226.67 168.7V168.7C226.689 168.509 226.729 168.322 226.79 168.14L233.94 147.03L234.11 146.53L234.28 146.03L237.63 136.13C237.96 135.162 238.485 134.272 239.173 133.515C239.861 132.758 240.698 132.15 241.63 131.73C241.87 131.608 242.121 131.511 242.38 131.44C243.127 131.188 243.911 131.059 244.7 131.06L332.13 131.1Z" fill="#231F20"/>
<path d="M273 166.54C272.76 166.542 272.522 166.489 272.305 166.385C272.088 166.281 271.899 166.129 271.75 165.94C271.605 165.754 271.502 165.539 271.448 165.309C271.394 165.08 271.392 164.841 271.44 164.61L273.03 157.39C273.16 156.818 273.482 156.308 273.942 155.944C274.402 155.58 274.973 155.385 275.56 155.39H303.67C304.257 155.385 304.827 155.58 305.288 155.944C305.748 156.308 306.07 156.818 306.2 157.39L307.79 164.6C307.839 164.833 307.835 165.074 307.78 165.306C307.724 165.537 307.618 165.753 307.469 165.939C307.32 166.125 307.131 166.275 306.917 166.379C306.703 166.483 306.468 166.538 306.23 166.54H273Z" fill="white"/>
<path d="M305.67 157.5C305.572 157.04 305.321 156.627 304.958 156.329C304.594 156.031 304.14 155.866 303.67 155.86H275.52C275.05 155.866 274.596 156.031 274.232 156.329C273.869 156.627 273.618 157.04 273.52 157.5L271.93 164.71C271.895 164.87 271.897 165.036 271.935 165.195C271.973 165.354 272.047 165.503 272.15 165.63C272.25 165.759 272.379 165.864 272.527 165.935C272.674 166.006 272.836 166.042 273 166.04H306.23C306.393 166.039 306.555 166.002 306.702 165.931C306.849 165.86 306.979 165.757 307.081 165.63C307.184 165.502 307.257 165.353 307.294 165.194C307.332 165.035 307.334 164.87 307.3 164.71L305.67 157.5Z" fill="white"/>
<path d="M303.63 155.86C304.1 155.866 304.554 156.031 304.918 156.329C305.281 156.627 305.532 157.04 305.63 157.5L307.22 164.71C307.254 164.87 307.252 165.035 307.214 165.194C307.177 165.354 307.104 165.502 307.001 165.63C306.899 165.757 306.769 165.86 306.622 165.931C306.475 166.002 306.313 166.039 306.15 166.04H273C272.836 166.042 272.674 166.006 272.527 165.935C272.379 165.864 272.25 165.759 272.15 165.63C272.047 165.503 271.973 165.354 271.935 165.195C271.897 165.036 271.895 164.87 271.93 164.71L273.52 157.5C273.618 157.04 273.869 156.627 274.232 156.329C274.596 156.031 275.05 155.866 275.52 155.86H303.63V155.86ZM303.63 154.86H275.52C274.817 154.861 274.136 155.102 273.59 155.544C273.044 155.987 272.666 156.603 272.52 157.29L270.93 164.49C270.864 164.798 270.868 165.116 270.94 165.422C271.013 165.728 271.153 166.015 271.35 166.26C271.55 166.501 271.803 166.693 272.089 166.822C272.375 166.95 272.687 167.011 273 167H306.23C306.543 167.001 306.852 166.931 307.134 166.796C307.416 166.661 307.664 166.464 307.86 166.22C308.056 165.976 308.196 165.692 308.268 165.387C308.341 165.083 308.345 164.766 308.28 164.46L306.69 157.24C306.542 156.555 306.163 155.941 305.617 155.501C305.071 155.06 304.391 154.82 303.69 154.82L303.63 154.86Z" fill="#231F20"/>
<path d="M275.7 78.66L262.7 88.51C262.653 88.5546 262.597 88.5889 262.536 88.6104C262.475 88.632 262.41 88.6403 262.345 88.635C262.281 88.6296 262.218 88.6107 262.161 88.5794C262.104 88.5481 262.055 88.5051 262.016 88.4533C261.977 88.4016 261.949 88.3421 261.935 88.2789C261.92 88.2157 261.919 88.1502 261.932 88.0866C261.945 88.023 261.971 87.9628 262.008 87.91C262.046 87.8571 262.094 87.8128 262.15 87.78L275.15 77.93C275.197 77.8916 275.251 77.8633 275.31 77.847C275.368 77.8306 275.43 77.8265 275.49 77.835C275.55 77.8434 275.607 77.8642 275.659 77.8961C275.711 77.9279 275.755 77.9701 275.79 78.02C275.862 78.1171 275.893 78.2387 275.876 78.3585C275.859 78.4782 275.796 78.5866 275.7 78.66V78.66Z" fill="#231F20"/>
<path d="M263.54 116.55C263.466 116.455 263.431 116.335 263.444 116.216C263.457 116.096 263.517 115.986 263.61 115.91L320 71.09C320.047 71.0481 320.102 71.0163 320.161 70.9964C320.221 70.9765 320.284 70.969 320.346 70.9744C320.409 70.9798 320.469 70.9978 320.525 71.0276C320.58 71.0573 320.629 71.098 320.667 71.1472C320.706 71.1964 320.735 71.253 320.751 71.3137C320.767 71.3743 320.771 71.4376 320.762 71.4997C320.753 71.5617 320.731 71.6213 320.698 71.6747C320.665 71.728 320.621 71.7741 320.57 71.81L264.14 116.62C264.062 116.686 263.962 116.722 263.86 116.72C263.798 116.715 263.738 116.697 263.683 116.668C263.628 116.639 263.579 116.599 263.54 116.55Z" fill="#231F20"/>
<path d="M294.66 120C294.622 119.953 294.595 119.899 294.578 119.841C294.562 119.783 294.557 119.723 294.565 119.663C294.572 119.603 294.592 119.546 294.622 119.494C294.652 119.442 294.692 119.396 294.74 119.36L328.35 93.47C328.447 93.3978 328.569 93.3668 328.688 93.3837C328.808 93.4005 328.917 93.4639 328.99 93.56C329.061 93.6567 329.092 93.7769 329.077 93.8959C329.062 94.0149 329.002 94.1236 328.91 94.2L295.3 120.1C295.253 120.138 295.199 120.165 295.141 120.182C295.083 120.198 295.023 120.203 294.963 120.195C294.903 120.188 294.846 120.168 294.794 120.138C294.742 120.108 294.696 120.068 294.66 120.02V120Z" fill="#231F20"/>
<path d="M332.13 62.55V67.31H244.72V126.7H332.13V131.56H243.13C242.871 131.559 242.613 131.532 242.36 131.48C241.565 131.301 240.856 130.857 240.347 130.221C239.838 129.585 239.56 128.794 239.56 127.98V66.13C239.559 65.6603 239.65 65.195 239.829 64.7607C240.008 64.3265 240.27 63.9317 240.602 63.5992C240.934 63.2666 241.328 63.0027 241.762 62.8227C242.195 62.6427 242.66 62.55 243.13 62.55H332.13Z" fill="#231F20"/>
<path d="M243.17 62.05C242.09 62.0526 241.054 62.4837 240.291 63.2485C239.528 64.0134 239.1 65.0496 239.1 66.13V128C239.102 128.813 239.346 129.607 239.8 130.282C240.254 130.957 240.898 131.481 241.65 131.79C241.876 131.872 242.107 131.942 242.34 132V132C242.61 132.052 242.885 132.079 243.16 132.08H332.16V131.08H243.16C242.757 131.079 242.358 130.998 241.986 130.842C241.614 130.687 241.276 130.46 240.992 130.174C240.708 129.888 240.483 129.549 240.33 129.176C240.177 128.803 240.099 128.403 240.1 128V66.13C240.099 65.726 240.177 65.3257 240.331 64.9521C240.485 64.5785 240.71 64.2388 240.996 63.9527C241.281 63.6666 241.62 63.4395 241.993 63.2846C242.366 63.1297 242.766 63.05 243.17 63.05H332.17V62.05H243.17Z" fill="#231F20"/>
<path d="M275.7 78.66L262.7 88.51C262.653 88.5546 262.597 88.5889 262.536 88.6104C262.475 88.632 262.41 88.6403 262.345 88.635C262.281 88.6296 262.218 88.6107 262.161 88.5794C262.104 88.5481 262.055 88.5051 262.016 88.4533C261.977 88.4016 261.949 88.3421 261.935 88.2789C261.92 88.2157 261.919 88.1502 261.932 88.0866C261.945 88.023 261.971 87.9628 262.008 87.91C262.046 87.8571 262.094 87.8128 262.15 87.78L275.15 77.93C275.197 77.8916 275.251 77.8633 275.31 77.847C275.368 77.8306 275.43 77.8265 275.49 77.835C275.55 77.8434 275.607 77.8642 275.659 77.8961C275.711 77.9279 275.755 77.9701 275.79 78.02C275.862 78.1171 275.893 78.2387 275.876 78.3585C275.859 78.4782 275.796 78.5866 275.7 78.66V78.66Z" fill="black"/>
<path d="M320.61 71.81L264.18 116.62C264.102 116.686 264.002 116.722 263.9 116.72C263.807 116.718 263.716 116.688 263.64 116.634C263.564 116.579 263.507 116.503 263.475 116.415C263.444 116.327 263.44 116.232 263.464 116.142C263.488 116.051 263.539 115.971 263.61 115.91L320 71.09C320.047 71.0481 320.102 71.0163 320.161 70.9964C320.221 70.9765 320.284 70.969 320.346 70.9744C320.409 70.9798 320.469 70.9978 320.525 71.0276C320.58 71.0573 320.629 71.098 320.667 71.1472C320.706 71.1964 320.735 71.253 320.751 71.3137C320.767 71.3743 320.771 71.4376 320.762 71.4997C320.753 71.5617 320.731 71.6213 320.698 71.6747C320.665 71.728 320.621 71.7741 320.57 71.81H320.61Z" fill="black"/>
<path d="M329 93.58C329.071 93.6767 329.102 93.7969 329.087 93.9159C329.072 94.0349 329.012 94.1436 328.92 94.22L295.3 120.1C295.253 120.138 295.199 120.165 295.141 120.182C295.083 120.198 295.023 120.203 294.963 120.195C294.903 120.188 294.846 120.168 294.794 120.138C294.742 120.108 294.696 120.068 294.66 120.02C294.622 119.973 294.595 119.919 294.578 119.861C294.562 119.803 294.557 119.743 294.565 119.683C294.572 119.623 294.592 119.566 294.622 119.514C294.652 119.462 294.692 119.416 294.74 119.38L328.35 93.49C328.398 93.4527 328.454 93.4254 328.513 93.4098C328.572 93.3941 328.633 93.3903 328.694 93.3987C328.754 93.4071 328.813 93.4274 328.865 93.4585C328.918 93.4897 328.964 93.531 329 93.58V93.58Z" fill="black"/>
<path d="M320.61 71.81L264.18 116.62C264.102 116.686 264.002 116.722 263.9 116.72C263.807 116.718 263.716 116.688 263.64 116.634C263.564 116.579 263.507 116.503 263.475 116.415C263.444 116.327 263.44 116.232 263.464 116.142C263.488 116.051 263.539 115.971 263.61 115.91L320 71.09C320.047 71.0481 320.102 71.0163 320.161 70.9964C320.221 70.9765 320.284 70.969 320.346 70.9744C320.409 70.9798 320.469 70.9978 320.525 71.0276C320.58 71.0573 320.629 71.098 320.667 71.1472C320.706 71.1964 320.735 71.253 320.751 71.3137C320.767 71.3743 320.771 71.4376 320.762 71.4997C320.753 71.5617 320.731 71.6213 320.698 71.6747C320.665 71.728 320.621 71.7741 320.57 71.81H320.61Z" fill="white"/>
<path d="M328.91 94.22L295.3 120.1C295.253 120.138 295.199 120.165 295.141 120.182C295.083 120.198 295.023 120.203 294.963 120.195C294.903 120.188 294.846 120.168 294.794 120.138C294.742 120.108 294.696 120.068 294.66 120.02C294.622 119.973 294.595 119.919 294.578 119.861C294.562 119.803 294.557 119.743 294.565 119.683C294.572 119.623 294.592 119.566 294.622 119.514C294.652 119.462 294.692 119.416 294.74 119.38L328.35 93.49C328.447 93.4178 328.569 93.3868 328.688 93.4037C328.808 93.4205 328.917 93.4839 328.99 93.58C329.061 93.6767 329.092 93.7969 329.077 93.9159C329.062 94.0349 329.002 94.1436 328.91 94.22Z" fill="white"/>
<path d="M275.7 78.66L262.7 88.51C262.653 88.5546 262.597 88.5889 262.536 88.6104C262.475 88.632 262.41 88.6403 262.345 88.635C262.281 88.6296 262.218 88.6107 262.161 88.5794C262.104 88.5481 262.055 88.5051 262.016 88.4533C261.977 88.4016 261.949 88.3421 261.935 88.2789C261.92 88.2157 261.919 88.1502 261.932 88.0866C261.945 88.023 261.971 87.9628 262.008 87.91C262.046 87.8571 262.094 87.8128 262.15 87.78L275.15 77.93C275.197 77.8916 275.251 77.8633 275.31 77.847C275.368 77.8306 275.43 77.8265 275.49 77.835C275.55 77.8434 275.607 77.8642 275.659 77.8961C275.711 77.9279 275.755 77.9701 275.79 78.02C275.862 78.1171 275.893 78.2387 275.876 78.3585C275.859 78.4782 275.796 78.5866 275.7 78.66V78.66Z" fill="white"/>
<path d="M332.13 10V21.85H1.87V10C1.86868 8.84531 2.09515 7.7017 2.53642 6.63465C2.97769 5.56761 3.62511 4.59808 4.4416 3.7816C5.25809 2.96511 6.22761 2.31769 7.29466 1.87642C8.3617 1.43514 9.50531 1.20868 10.66 1.21H323.34C324.495 1.20868 325.638 1.43514 326.705 1.87642C327.772 2.31769 328.742 2.96511 329.558 3.7816C330.375 4.59808 331.022 5.56761 331.464 6.63465C331.905 7.7017 332.131 8.84531 332.13 10V10Z" fill="white"/>
<path d="M323.34 1.20999C324.495 1.20868 325.638 1.43514 326.705 1.87641C327.772 2.31768 328.742 2.9651 329.558 3.78159C330.375 4.59808 331.022 5.5676 331.464 6.63465C331.905 7.70169 332.131 8.8453 332.13 9.99999V21.85H1.87V9.99999C1.86868 8.8453 2.09514 7.70169 2.53642 6.63465C2.97769 5.5676 3.6251 4.59808 4.44159 3.78159C5.25808 2.9651 6.22761 2.31768 7.29465 1.87641C8.3617 1.43514 9.50531 1.20868 10.66 1.20999H323.34ZM323.34 0.209991H10.66C8.06434 0.212639 5.57575 1.24493 3.74035 3.08034C1.90494 4.91575 0.872642 7.40434 0.869995 9.99999V22.85H333.13V9.99999C333.127 7.40434 332.095 4.91575 330.26 3.08034C328.424 1.24493 325.936 0.212639 323.34 0.209991V0.209991Z" fill="#231F20"/>
<path d="M230.1 44.25H207.27C207.005 44.25 206.75 44.1446 206.563 43.9571C206.375 43.7696 206.27 43.5152 206.27 43.25C206.27 42.9848 206.375 42.7304 206.563 42.5429C206.75 42.3553 207.005 42.25 207.27 42.25H230.1C230.365 42.25 230.62 42.3553 230.807 42.5429C230.995 42.7304 231.1 42.9848 231.1 43.25C231.1 43.5152 230.995 43.7696 230.807 43.9571C230.62 44.1446 230.365 44.25 230.1 44.25Z" fill="white"/>
<path d="M264.64 44.25H241.81C241.545 44.25 241.29 44.1446 241.103 43.9571C240.915 43.7696 240.81 43.5152 240.81 43.25C240.81 42.9848 240.915 42.7304 241.103 42.5429C241.29 42.3553 241.545 42.25 241.81 42.25H264.64C264.905 42.25 265.16 42.3553 265.347 42.5429C265.535 42.7304 265.64 42.9848 265.64 43.25C265.64 43.5152 265.535 43.7696 265.347 43.9571C265.16 44.1446 264.905 44.25 264.64 44.25Z" fill="white"/>
<path d="M299.17 44.25H276.34C276.075 44.25 275.82 44.1446 275.633 43.9571C275.445 43.7696 275.34 43.5152 275.34 43.25C275.34 42.9848 275.445 42.7304 275.633 42.5429C275.82 42.3553 276.075 42.25 276.34 42.25H299.17C299.435 42.25 299.69 42.3553 299.877 42.5429C300.065 42.7304 300.17 42.9848 300.17 43.25C300.17 43.5152 300.065 43.7696 299.877 43.9571C299.69 44.1446 299.435 44.25 299.17 44.25V44.25Z" fill="white"/>
<path d="M111.31 95.16H23.5C22.3065 95.16 21.1619 94.6859 20.318 93.842C19.4741 92.9981 19 91.8535 19 90.66C19 89.4665 19.4741 88.3219 20.318 87.478C21.1619 86.6341 22.3065 86.16 23.5 86.16H111.31C112.503 86.16 113.648 86.6341 114.492 87.478C115.336 88.3219 115.81 89.4665 115.81 90.66C115.81 91.8535 115.336 92.9981 114.492 93.842C113.648 94.6859 112.503 95.16 111.31 95.16V95.16Z" fill="#D1D3D4"/>
<path d="M123.49 114.59H23.5C22.3065 114.59 21.1619 114.116 20.318 113.272C19.4741 112.428 19 111.283 19 110.09C19 108.897 19.4741 107.752 20.318 106.908C21.1619 106.064 22.3065 105.59 23.5 105.59H123.5C124.693 105.59 125.838 106.064 126.682 106.908C127.526 107.752 128 108.897 128 110.09C128 111.283 127.526 112.428 126.682 113.272C125.838 114.116 124.693 114.59 123.5 114.59H123.49Z" fill="#D1D3D4"/>
<path d="M90.74 134.2H23.5C23.3674 134.2 23.2402 134.147 23.1464 134.054C23.0527 133.96 23 133.833 23 133.7C23 133.567 23.0527 133.44 23.1464 133.346C23.2402 133.253 23.3674 133.2 23.5 133.2H90.74C90.8726 133.2 90.9998 133.253 91.0936 133.346C91.1873 133.44 91.24 133.567 91.24 133.7C91.24 133.833 91.1873 133.96 91.0936 134.054C90.9998 134.147 90.8726 134.2 90.74 134.2Z" fill="#D1D3D4"/>
<path d="M80 146H23.5C23.3674 146 23.2402 145.947 23.1464 145.854C23.0527 145.76 23 145.633 23 145.5C23 145.367 23.0527 145.24 23.1464 145.146C23.2402 145.053 23.3674 145 23.5 145H80C80.1326 145 80.2598 145.053 80.3536 145.146C80.4473 145.24 80.5 145.367 80.5 145.5C80.4974 145.632 80.4439 145.758 80.3507 145.851C80.2575 145.944 80.1318 145.997 80 146V146Z" fill="#D1D3D4"/>
<path d="M88.9 161.5H30.79C26.7638 161.5 23.5 164.764 23.5 168.79C23.5 172.816 26.7638 176.08 30.79 176.08H88.9C92.9262 176.08 96.19 172.816 96.19 168.79C96.19 164.764 92.9262 161.5 88.9 161.5Z" fill="black"/>
<path d="M74.58 44.25H51.75C51.4848 44.25 51.2304 44.1446 51.0429 43.9571C50.8554 43.7696 50.75 43.5152 50.75 43.25C50.75 42.9848 50.8554 42.7304 51.0429 42.5429C51.2304 42.3553 51.4848 42.25 51.75 42.25H74.58C74.8452 42.25 75.0996 42.3553 75.2871 42.5429C75.4746 42.7304 75.58 42.9848 75.58 43.25C75.58 43.5152 75.4746 43.7696 75.2871 43.9571C75.0996 44.1446 74.8452 44.25 74.58 44.25Z" fill="#D1D3D4"/>
<path d="M31.12 51.74C35.3284 51.74 38.74 48.3284 38.74 44.12C38.74 39.9116 35.3284 36.5 31.12 36.5C26.9116 36.5 23.5 39.9116 23.5 44.12C23.5 48.3284 26.9116 51.74 31.12 51.74Z" fill="#D1D3D4"/>
<path d="M201.57 111.87C201.695 110.088 201.317 108.308 200.48 106.73C199.654 105.687 198.883 104.603 198.17 103.48C197.17 101.39 197.88 98.94 197.65 96.64C197.452 94.7198 196.605 92.9245 195.25 91.55C194.05 90.34 192.51 89.55 191.37 88.25C189.49 86.17 188.95 83.25 187.88 80.67C186.366 77.0167 183.742 73.9315 180.38 71.85C182.43 75.96 177.77 81.19 179.88 85.28C180.55 86.57 181.88 87.52 182.32 88.89C183.5 92.2 179.55 95.79 180.82 99.07C181.45 100.71 183.2 101.66 184.02 103.22C185.12 105.31 184.26 107.86 184.35 110.22C184.47 113.48 186.46 116.4 188.82 118.66C190.29 120.08 191.93 121.29 193.52 122.57C195.42 124.09 196.22 125.69 197.89 123.24C200.192 119.886 201.47 115.936 201.57 111.87Z" fill="#231F20"/>
<path d="M203.69 113.74C203.08 111.21 202.69 108.47 203.69 106.09C204.86 103.39 207.76 101.48 208.1 98.56C208.33 96.65 207.35 94.72 207.74 92.83C208.13 90.94 209.66 89.65 210.93 88.26C213.855 85.0415 215.594 80.9211 215.86 76.58C217.824 78.9077 219.41 81.5297 220.56 84.35C221.56 87.22 221.56 90.6 219.88 93.12C219.387 93.706 218.986 94.3635 218.69 95.07C218.11 96.92 219.69 98.66 220.53 100.43C221.018 101.438 221.222 102.56 221.12 103.676C221.017 104.791 220.613 105.857 219.95 106.76C218.28 108.84 215.06 109.65 214.24 112.19C214.033 113.136 213.935 114.102 213.95 115.07C213.777 116.748 213.105 118.335 212.021 119.627C210.938 120.919 209.492 121.857 207.87 122.32C205.87 122.8 205.93 122.02 205.58 120.32C205.08 118.12 204.23 116 203.69 113.74Z" fill="#231F20"/>
<path d="M197.4 95.56C196 90.71 195.4 85.64 193.96 80.8C192.7 77.0248 191.163 73.3481 189.36 69.8L195.36 72.34C197.29 73.15 199.36 74.11 200.29 76C201.87 79.28 199.03 83.49 200.69 86.74C201.415 87.7947 202.214 88.7972 203.08 89.74C204.85 92.23 204.58 95.65 203.6 98.55C203.19 99.79 201.36 106.24 199.73 104.45C199.08 103.73 199.02 101.06 198.73 100.08C198.36 98.56 197.84 97.08 197.4 95.56Z" fill="#231F20"/>
<path d="M200.71 160.06C199.52 152.12 195.71 124.16 195.71 123.87L196.71 123.74C196.71 124.02 200.51 151.98 201.71 159.91L200.71 160.06Z" fill="#231F20"/>
<path d="M203.47 149.12L202.52 148.8C203.82 144.94 203.97 140.75 204.14 136.32C204.35 130.71 204.57 124.92 207.27 119.76L208.16 120.23C205.56 125.23 205.35 130.86 205.16 136.36C205 140.67 204.81 145.12 203.47 149.12Z" fill="#231F20"/>
<path d="M203.05 149.08C202.34 141.78 201.96 134.61 201.58 127.67C201.13 119.42 200.67 110.88 199.68 102.31L200.68 102.2C201.68 110.8 202.14 119.35 202.59 127.61C202.96 134.54 203.35 141.71 204.05 148.98L203.05 149.08Z" fill="#231F20"/>
<path d="M190.38 131.74H212.79L211.05 157C210.969 158.196 210.436 159.315 209.559 160.133C208.683 160.95 207.528 161.403 206.33 161.4H196.84C195.642 161.4 194.489 160.946 193.613 160.13C192.737 159.313 192.204 158.195 192.12 157L190.38 131.74Z" fill="white"/>
<path d="M206.33 161.91H196.84C195.516 161.906 194.243 161.402 193.275 160.499C192.307 159.596 191.716 158.36 191.62 157.04L189.88 131.77C189.876 131.703 189.886 131.635 189.908 131.572C189.93 131.508 189.965 131.45 190.01 131.4C190.058 131.35 190.115 131.31 190.179 131.283C190.242 131.255 190.311 131.241 190.38 131.24H212.79C212.858 131.24 212.926 131.254 212.989 131.281C213.051 131.308 213.108 131.347 213.155 131.397C213.201 131.447 213.238 131.505 213.261 131.569C213.284 131.634 213.294 131.702 213.29 131.77L211.55 157C211.464 158.327 210.877 159.573 209.908 160.484C208.939 161.396 207.66 161.905 206.33 161.91V161.91ZM190.91 132.24L192.62 157C192.696 158.068 193.173 159.068 193.956 159.799C194.739 160.53 195.769 160.938 196.84 160.94H206.33C207.401 160.938 208.431 160.53 209.214 159.799C209.997 159.068 210.474 158.068 210.55 157L212.26 132.27L190.91 132.24Z" fill="#231F20"/>
</svg>
