<svg width="342" height="230" viewBox="0 0 342 230" fill="none" xmlns="http://www.w3.org/2000/svg">
<path d="M314.66 11.41H68.87V180.18H314.66V11.41Z" fill="white"/>
<path d="M314.66 180.69H68.87C68.7374 180.69 68.6102 180.637 68.5164 180.544C68.4227 180.45 68.37 180.323 68.37 180.19V11.41C68.37 11.2774 68.4227 11.1502 68.5164 11.0564C68.6102 10.9627 68.7374 10.91 68.87 10.91H314.66C314.792 10.9126 314.918 10.9661 315.011 11.0593C315.104 11.1525 315.157 11.2782 315.16 11.41V180.19C315.157 180.322 315.104 180.448 315.011 180.541C314.918 180.634 314.792 180.687 314.66 180.69V180.69ZM69.37 179.69H314.16V11.91H69.37V179.69Z" fill="#231F20"/>
<path d="M314.66 0.949997H68.87V11.41H314.66V0.949997Z" fill="white"/>
<path d="M314.66 11.91H68.87C68.7374 11.91 68.6102 11.8573 68.5164 11.7636C68.4227 11.6698 68.37 11.5426 68.37 11.41V1C68.37 0.867392 68.4227 0.740214 68.5164 0.646446C68.6102 0.552678 68.7374 0.5 68.87 0.5H314.66C314.793 0.5 314.92 0.552678 315.014 0.646446C315.107 0.740214 315.16 0.867392 315.16 1V11.41C315.16 11.5426 315.107 11.6698 315.014 11.7636C314.92 11.8573 314.793 11.91 314.66 11.91ZM69.37 10.91H314.16V1.46H69.37V10.91Z" fill="#231F20"/>
<path d="M165.12 116.48H165C153.95 113.57 153.57 92.68 153.09 66.24V66.1C152.74 46.61 147.27 46.32 147.22 46.32C147.088 46.3174 146.963 46.2639 146.869 46.1707C146.776 46.0775 146.723 45.9518 146.72 45.82C146.717 45.7553 146.728 45.6907 146.751 45.6302C146.774 45.5696 146.808 45.5143 146.853 45.4676C146.898 45.4209 146.952 45.3837 147.012 45.3584C147.071 45.333 147.135 45.32 147.2 45.32C147.627 45.3471 148.044 45.4593 148.427 45.6499C148.81 45.8405 149.151 46.1057 149.43 46.43C151.43 48.33 153.86 53.28 154.09 66.08V66.22C154.56 92.22 154.94 112.8 165.26 115.51C165.387 115.545 165.495 115.629 165.56 115.743C165.626 115.857 165.644 115.993 165.61 116.12C165.581 116.226 165.517 116.32 165.428 116.385C165.339 116.451 165.23 116.484 165.12 116.48Z" fill="#D1D3D4"/>
<path d="M153 152.17C152.891 152.172 152.785 152.137 152.7 152.07C152.596 151.989 152.528 151.871 152.509 151.74C152.49 151.61 152.523 151.477 152.6 151.37C152.66 151.29 158.27 143.82 158.27 127.81C158.27 117.89 165.27 117.6 165.27 117.6C165.4 117.602 165.524 117.652 165.618 117.741C165.712 117.83 165.77 117.951 165.78 118.08C165.783 118.146 165.772 118.213 165.749 118.275C165.725 118.338 165.69 118.395 165.644 118.443C165.599 118.491 165.544 118.53 165.483 118.557C165.422 118.584 165.357 118.599 165.29 118.6C165.05 118.6 159.23 118.9 159.23 127.81C159.23 144.19 153.6 151.67 153.36 151.98C153.315 152.034 153.261 152.078 153.199 152.111C153.137 152.144 153.07 152.164 153 152.17V152.17Z" fill="#D1D3D4"/>
<path d="M227.06 140.44H227C219.62 138.91 216.65 120.82 215.38 113.1C215.19 111.93 215.04 111.03 214.93 110.49C214.15 106.87 209.68 105.39 209.63 105.37C209.497 105.329 209.387 105.237 209.322 105.114C209.257 104.991 209.244 104.848 209.285 104.715C209.326 104.582 209.418 104.472 209.541 104.407C209.664 104.342 209.807 104.329 209.94 104.37C210.15 104.44 215.01 106.06 215.94 110.23C216.05 110.78 216.2 111.7 216.4 112.89C217.53 119.76 220.52 138.02 227.23 139.41C227.296 139.417 227.359 139.436 227.418 139.467C227.476 139.498 227.527 139.541 227.569 139.592C227.611 139.643 227.642 139.702 227.661 139.765C227.68 139.828 227.687 139.894 227.68 139.96C227.673 140.026 227.654 140.089 227.623 140.148C227.592 140.206 227.549 140.257 227.498 140.299C227.447 140.341 227.388 140.372 227.325 140.391C227.262 140.41 227.196 140.417 227.13 140.41L227.06 140.44Z" fill="#D1D3D4"/>
<path d="M211.25 103.25C210.712 103.25 210.18 103.149 209.68 102.95C209.561 102.891 209.468 102.789 209.422 102.665C209.375 102.54 209.378 102.402 209.43 102.28C209.457 102.22 209.495 102.167 209.543 102.122C209.591 102.078 209.648 102.043 209.709 102.021C209.771 101.998 209.836 101.989 209.902 101.992C209.967 101.995 210.031 102.012 210.09 102.04C210.818 102.314 211.622 102.314 212.35 102.04C212.914 101.774 213.42 101.398 213.837 100.935C214.254 100.471 214.575 99.929 214.78 99.34C215.6 97.46 215.94 91.82 216.37 84.68C216.95 75.11 217.67 63.21 219.91 53.3C221.5 46.3 229.3 41.8 229.63 41.61C229.747 41.5487 229.884 41.5353 230.01 41.5726C230.137 41.6099 230.245 41.695 230.31 41.81C230.375 41.9254 230.391 42.0618 230.356 42.1893C230.32 42.3167 230.235 42.4249 230.12 42.49C230.04 42.49 222.38 46.91 220.88 53.49C218.66 63.32 217.95 75.18 217.37 84.71C216.93 91.95 216.58 97.71 215.69 99.71C215.435 100.425 215.038 101.081 214.522 101.638C214.007 102.194 213.383 102.641 212.69 102.95C212.233 103.138 211.744 103.24 211.25 103.25Z" fill="#D1D3D4"/>
<path d="M209.57 76.35H165.23V150.91H209.57V76.35Z" fill="white"/>
<path d="M209.58 151.41H165.23C165.097 151.41 164.97 151.357 164.876 151.264C164.783 151.17 164.73 151.043 164.73 150.91V76.35C164.733 76.2182 164.786 76.0925 164.879 75.9993C164.972 75.9061 165.098 75.8526 165.23 75.85H209.58C209.712 75.8526 209.838 75.9061 209.931 75.9993C210.024 76.0925 210.077 76.2182 210.08 76.35V150.91C210.08 151.043 210.027 151.17 209.934 151.264C209.84 151.357 209.713 151.41 209.58 151.41ZM165.73 150.41H209.08V76.85H165.73V150.41Z" fill="#231F20"/>
<path d="M271.23 94H226.89V168.56H271.23V94Z" fill="white"/>
<path d="M271.24 169.06H226.89C226.757 169.06 226.63 169.007 226.536 168.914C226.443 168.82 226.39 168.693 226.39 168.56V94C226.39 93.8674 226.443 93.7402 226.536 93.6464C226.63 93.5527 226.757 93.5 226.89 93.5H271.24C271.373 93.5 271.5 93.5527 271.594 93.6464C271.687 93.7402 271.74 93.8674 271.74 94V168.56C271.74 168.693 271.687 168.82 271.594 168.914C271.5 169.007 271.373 169.06 271.24 169.06ZM227.39 168.06H270.74V94.5H227.39V168.06Z" fill="#231F20"/>
<path d="M146.94 26.32H102.6V100.88H146.94V26.32Z" fill="white"/>
<path d="M147 101.38H102.6C102.467 101.38 102.34 101.327 102.246 101.234C102.153 101.14 102.1 101.013 102.1 100.88V26.32C102.1 26.1874 102.153 26.0602 102.246 25.9665C102.34 25.8727 102.467 25.82 102.6 25.82H147C147.133 25.82 147.26 25.8727 147.354 25.9665C147.447 26.0602 147.5 26.1874 147.5 26.32V100.88C147.5 101.013 147.447 101.14 147.354 101.234C147.26 101.327 147.133 101.38 147 101.38ZM103.15 100.38H146.5V26.82H103.1L103.15 100.38Z" fill="#231F20"/>
<path d="M140.48 76H110.39C110.257 76 110.13 75.9473 110.036 75.8536C109.943 75.7598 109.89 75.6326 109.89 75.5C109.89 75.3674 109.943 75.2402 110.036 75.1464C110.13 75.0527 110.257 75 110.39 75H140.48C140.613 75 140.74 75.0527 140.834 75.1464C140.927 75.2402 140.98 75.3674 140.98 75.5C140.98 75.6326 140.927 75.7598 140.834 75.8536C140.74 75.9473 140.613 76 140.48 76Z" fill="#231F20"/>
<path d="M152.64 129.33H106.46V168.19H152.64V129.33Z" fill="white"/>
<path d="M152.64 168.69H106.46C106.327 168.69 106.2 168.637 106.106 168.544C106.013 168.45 105.96 168.323 105.96 168.19V129.33C105.96 129.197 106.013 129.07 106.106 128.976C106.2 128.883 106.327 128.83 106.46 128.83H152.64C152.772 128.833 152.898 128.886 152.991 128.979C153.084 129.072 153.137 129.198 153.14 129.33V168.19C153.14 168.323 153.087 168.45 152.994 168.544C152.9 168.637 152.773 168.69 152.64 168.69ZM106.96 167.69H152.14V129.83H107L106.96 167.69Z" fill="#231F20"/>
<path d="M276.15 24.97H229.97V63.83H276.15V24.97Z" fill="white"/>
<path d="M276.15 64.32H230C229.867 64.32 229.74 64.2673 229.646 64.1736C229.553 64.0798 229.5 63.9526 229.5 63.82V25C229.5 24.8674 229.553 24.7402 229.646 24.6464C229.74 24.5527 229.867 24.5 230 24.5H276.18C276.313 24.5 276.44 24.5527 276.534 24.6464C276.627 24.7402 276.68 24.8674 276.68 25V63.82C276.68 63.8883 276.666 63.9558 276.639 64.0185C276.612 64.0812 276.573 64.1378 276.523 64.1846C276.473 64.2314 276.415 64.2676 276.351 64.2909C276.286 64.3142 276.218 64.3241 276.15 64.32ZM230.47 63.32H275.65V25.47H230.47V63.32Z" fill="#231F20"/>
<path d="M273.1 34.43H233.68C233.547 34.43 233.42 34.3773 233.326 34.2835C233.233 34.1898 233.18 34.0626 233.18 33.93C233.18 33.7974 233.233 33.6702 233.326 33.5764C233.42 33.4827 233.547 33.43 233.68 33.43H273.1C273.232 33.4326 273.357 33.4861 273.451 33.5793C273.544 33.6725 273.597 33.7982 273.6 33.93C273.6 34.0626 273.547 34.1898 273.454 34.2835C273.36 34.3773 273.233 34.43 273.1 34.43Z" fill="#D1D3D4"/>
<path d="M265.07 44.62H241.61C241.477 44.62 241.35 44.5673 241.256 44.4735C241.163 44.3798 241.11 44.2526 241.11 44.12C241.11 43.9874 241.163 43.8602 241.256 43.7664C241.35 43.6727 241.477 43.62 241.61 43.62H265.07C265.203 43.62 265.33 43.6727 265.424 43.7664C265.517 43.8602 265.57 43.9874 265.57 44.12C265.57 44.2526 265.517 44.3798 265.424 44.4735C265.33 44.5673 265.203 44.62 265.07 44.62Z" fill="#D1D3D4"/>
<path d="M259.82 50.15H241.61C241.477 50.15 241.35 50.0973 241.256 50.0035C241.163 49.9098 241.11 49.7826 241.11 49.65C241.11 49.5174 241.163 49.3902 241.256 49.2964C241.35 49.2027 241.477 49.15 241.61 49.15H259.82C259.952 49.1526 260.077 49.2061 260.171 49.2993C260.264 49.3925 260.317 49.5182 260.32 49.65C260.32 49.7826 260.267 49.9098 260.174 50.0035C260.08 50.0973 259.953 50.15 259.82 50.15Z" fill="#D1D3D4"/>
<path d="M266.66 101.65H231.47V153.46H266.66V101.65Z" fill="white"/>
<path d="M266.66 154H231.47C231.337 154 231.21 153.947 231.116 153.854C231.023 153.76 230.97 153.633 230.97 153.5V101.7C230.97 101.567 231.023 101.44 231.116 101.346C231.21 101.253 231.337 101.2 231.47 101.2H266.66C266.793 101.2 266.92 101.253 267.014 101.346C267.107 101.44 267.16 101.567 267.16 101.7V153.5C267.16 153.633 267.107 153.76 267.014 153.854C266.92 153.947 266.793 154 266.66 154ZM232 153H266.19V102.2H232V153Z" fill="#D1D3D4"/>
<path d="M257.75 159.3H240C239.867 159.3 239.74 159.247 239.646 159.154C239.553 159.06 239.5 158.933 239.5 158.8C239.503 158.668 239.556 158.542 239.649 158.449C239.743 158.356 239.868 158.303 240 158.3H257.74C257.873 158.3 258 158.353 258.094 158.446C258.187 158.54 258.24 158.667 258.24 158.8C258.24 158.931 258.189 159.057 258.097 159.15C258.005 159.244 257.881 159.297 257.75 159.3Z" fill="#D1D3D4"/>
<path d="M257.75 162.68H240C239.867 162.68 239.74 162.627 239.646 162.534C239.553 162.44 239.5 162.313 239.5 162.18C239.503 162.048 239.556 161.923 239.649 161.829C239.743 161.736 239.868 161.683 240 161.68H257.74C257.873 161.68 258 161.733 258.094 161.826C258.187 161.92 258.24 162.047 258.24 162.18C258.24 162.311 258.189 162.437 258.097 162.53C258.005 162.624 257.881 162.677 257.75 162.68Z" fill="#D1D3D4"/>
<path d="M200.59 130.55H175.12C173.275 130.55 171.78 132.045 171.78 133.89V136.5C171.78 138.345 173.275 139.84 175.12 139.84H200.59C202.435 139.84 203.93 138.345 203.93 136.5V133.89C203.93 132.045 202.435 130.55 200.59 130.55Z" fill="black"/>
<path d="M200.59 116.85H175.12C173.275 116.85 171.78 118.345 171.78 120.19V122.8C171.78 124.645 173.275 126.14 175.12 126.14H200.59C202.435 126.14 203.93 124.645 203.93 122.8V120.19C203.93 118.345 202.435 116.85 200.59 116.85Z" fill="white"/>
<path d="M200.59 126.64H175.13C174.111 126.64 173.133 126.236 172.411 125.516C171.689 124.796 171.283 123.819 171.28 122.8V120.2C171.283 119.18 171.689 118.202 172.411 117.481C173.132 116.759 174.11 116.353 175.13 116.35H200.59C201.609 116.353 202.586 116.759 203.306 117.481C204.026 118.203 204.43 119.181 204.43 120.2V122.8C204.43 123.818 204.025 124.795 203.305 125.515C202.585 126.235 201.608 126.64 200.59 126.64V126.64ZM175.13 117.35C174.375 117.353 173.652 117.654 173.118 118.188C172.584 118.722 172.283 119.445 172.28 120.2V122.8C172.283 123.554 172.584 124.276 173.118 124.809C173.652 125.341 174.376 125.64 175.13 125.64H200.59C201.343 125.64 202.066 125.341 202.598 124.808C203.131 124.276 203.43 123.553 203.43 122.8V120.2C203.43 119.446 203.131 118.722 202.599 118.188C202.066 117.654 201.344 117.353 200.59 117.35H175.13Z" fill="#D1D3D4"/>
<path d="M200.59 103.15H175.12C173.275 103.15 171.78 104.645 171.78 106.49V109.1C171.78 110.945 173.275 112.44 175.12 112.44H200.59C202.435 112.44 203.93 110.945 203.93 109.1V106.49C203.93 104.645 202.435 103.15 200.59 103.15Z" fill="white"/>
<path d="M200.59 112.94H175.13C174.111 112.94 173.133 112.536 172.411 111.816C171.689 111.096 171.283 110.119 171.28 109.1V106.49C171.283 105.471 171.689 104.494 172.411 103.774C173.133 103.054 174.111 102.65 175.13 102.65H200.59C201.608 102.65 202.585 103.055 203.305 103.775C204.025 104.495 204.43 105.472 204.43 106.49V109.1C204.43 110.118 204.025 111.095 203.305 111.815C202.585 112.535 201.608 112.94 200.59 112.94V112.94ZM175.13 103.65C174.376 103.65 173.652 103.949 173.118 104.481C172.584 105.014 172.283 105.736 172.28 106.49V109.1C172.283 109.854 172.584 110.576 173.118 111.109C173.652 111.641 174.376 111.94 175.13 111.94H200.59C201.343 111.94 202.066 111.641 202.598 111.108C203.131 110.576 203.43 109.853 203.43 109.1V106.49C203.43 105.737 203.131 105.014 202.598 104.482C202.066 103.949 201.343 103.65 200.59 103.65H175.13Z" fill="#D1D3D4"/>
<path d="M200.59 89.45H175.12C173.275 89.45 171.78 90.9454 171.78 92.79V95.4C171.78 97.2446 173.275 98.74 175.12 98.74H200.59C202.435 98.74 203.93 97.2446 203.93 95.4V92.79C203.93 90.9454 202.435 89.45 200.59 89.45Z" fill="white"/>
<path d="M200.59 99.24H175.13C174.11 99.2374 173.132 98.8309 172.411 98.1095C171.689 97.388 171.283 96.4103 171.28 95.39V92.79C171.283 91.7707 171.689 90.794 172.411 90.0741C173.133 89.3543 174.111 88.95 175.13 88.95H200.59C201.608 88.95 202.585 89.3546 203.305 90.0747C204.025 90.7948 204.43 91.7716 204.43 92.79V95.39C204.43 96.4094 204.026 97.3871 203.306 98.1088C202.586 98.8306 201.609 99.2374 200.59 99.24V99.24ZM175.13 90C174.376 90 173.652 90.2989 173.118 90.8312C172.584 91.3635 172.283 92.0859 172.28 92.84V95.44C172.283 96.1951 172.584 96.9184 173.118 97.4523C173.652 97.9862 174.375 98.2874 175.13 98.29H200.59C201.344 98.2873 202.066 97.9859 202.599 97.4517C203.131 96.9175 203.43 96.1941 203.43 95.44V92.84C203.43 92.0868 203.131 91.3644 202.598 90.8318C202.066 90.2992 201.343 90 200.59 90H175.13Z" fill="#D1D3D4"/>
<path d="M197.5 83.85H178C177.867 83.85 177.74 83.7973 177.646 83.7036C177.553 83.6098 177.5 83.4826 177.5 83.35C177.5 83.2174 177.553 83.0902 177.646 82.9965C177.74 82.9027 177.867 82.85 178 82.85H197.5C197.633 82.85 197.76 82.9027 197.854 82.9965C197.947 83.0902 198 83.2174 198 83.35C197.997 83.4818 197.944 83.6075 197.851 83.7007C197.758 83.7939 197.632 83.8474 197.5 83.85Z" fill="#D1D3D4"/>
<path d="M140.06 33.42H108.52V59.61H140.06V33.42Z" fill="white"/>
<path d="M140.06 60.1H108.52C108.387 60.1 108.26 60.0473 108.166 59.9536C108.073 59.8598 108.02 59.7326 108.02 59.6V33.42C108.02 33.2874 108.073 33.1602 108.166 33.0664C108.26 32.9727 108.387 32.92 108.52 32.92H140.06C140.193 32.92 140.32 32.9727 140.414 33.0664C140.507 33.1602 140.56 33.2874 140.56 33.42V59.6C140.56 59.7326 140.507 59.8598 140.414 59.9536C140.32 60.0473 140.193 60.1 140.06 60.1ZM109.06 59.1H139.6V33.92H109L109.06 59.1Z" fill="#D1D3D4"/>
<path d="M148.5 134.21H110.21V163.12H148.5V134.21Z" fill="white"/>
<path d="M148.51 163.62H110.21C110.077 163.62 109.95 163.567 109.856 163.474C109.763 163.38 109.71 163.253 109.71 163.12V134.21C109.713 134.078 109.766 133.953 109.859 133.859C109.953 133.766 110.078 133.713 110.21 133.71H148.51C148.642 133.713 148.767 133.766 148.861 133.859C148.954 133.953 149.007 134.078 149.01 134.21V163.12C149.01 163.253 148.957 163.38 148.864 163.474C148.77 163.567 148.643 163.62 148.51 163.62ZM110.71 162.62H148V134.71H110.7L110.71 162.62Z" fill="#D1D3D4"/>
<path d="M110.21 156.36L125.98 139.47L142.88 155.24" fill="white"/>
<path d="M110.21 156.86C110.111 156.864 110.014 156.837 109.93 156.784C109.847 156.731 109.781 156.654 109.742 156.563C109.703 156.472 109.693 156.372 109.712 156.275C109.731 156.178 109.779 156.089 109.85 156.02L125.62 139.13C125.713 139.038 125.839 138.987 125.97 138.987C126.101 138.987 126.227 139.038 126.32 139.13L143.22 154.9C143.268 154.945 143.306 155 143.333 155.06C143.36 155.12 143.375 155.185 143.377 155.251C143.379 155.317 143.368 155.382 143.344 155.444C143.321 155.506 143.285 155.562 143.24 155.61C143.195 155.658 143.14 155.696 143.08 155.723C143.02 155.75 142.955 155.765 142.889 155.767C142.823 155.769 142.758 155.758 142.696 155.734C142.634 155.711 142.578 155.675 142.53 155.63L126 140.18L110.57 156.71C110.475 156.806 110.345 156.86 110.21 156.86V156.86Z" fill="#D1D3D4"/>
<path d="M136.87 149.79L142.12 143.41L148.51 150.54" fill="white"/>
<path d="M148.51 151.05C148.438 151.049 148.368 151.034 148.302 151.005C148.237 150.975 148.178 150.933 148.13 150.88L142.13 144.18L137.24 150.11C137.199 150.161 137.149 150.204 137.091 150.236C137.033 150.267 136.97 150.287 136.905 150.293C136.84 150.3 136.774 150.293 136.711 150.274C136.648 150.254 136.59 150.222 136.54 150.18C136.438 150.096 136.374 149.975 136.361 149.844C136.348 149.713 136.387 149.582 136.47 149.48L141.73 143.09C141.777 143.037 141.833 142.994 141.897 142.963C141.96 142.932 142.029 142.914 142.1 142.91C142.247 142.913 142.387 142.974 142.49 143.08L148.87 150.21C148.962 150.305 149.014 150.432 149.014 150.565C149.014 150.698 148.962 150.825 148.87 150.92C148.769 151.005 148.642 151.051 148.51 151.05V151.05Z" fill="#D1D3D4"/>
<path d="M302.53 63.5H287.51V78.7H302.53V63.5Z" fill="white"/>
<path d="M302.53 79.2H287.53C287.397 79.2 287.27 79.1473 287.176 79.0536C287.083 78.9598 287.03 78.8326 287.03 78.7V63.5C287.03 63.3674 287.083 63.2402 287.176 63.1464C287.27 63.0527 287.397 63 287.53 63H302.53C302.663 63 302.79 63.0527 302.884 63.1464C302.977 63.2402 303.03 63.3674 303.03 63.5V78.7C303.03 78.8326 302.977 78.9598 302.884 79.0536C302.79 79.1473 302.663 79.2 302.53 79.2ZM288.01 78.2H302.01V64H288L288.01 78.2Z" fill="#D1D3D4"/>
<path d="M299 68H291.12C290.987 68 290.86 67.9473 290.766 67.8536C290.673 67.7598 290.62 67.6326 290.62 67.5C290.62 67.3674 290.673 67.2402 290.766 67.1464C290.86 67.0527 290.987 67 291.12 67H299C299.133 67 299.26 67.0527 299.354 67.1464C299.447 67.2402 299.5 67.3674 299.5 67.5C299.5 67.6326 299.447 67.7598 299.354 67.8536C299.26 67.9473 299.133 68 299 68Z" fill="#D1D3D4"/>
<path d="M299 71.27H291.12C290.987 71.27 290.86 71.2173 290.766 71.1235C290.673 71.0298 290.62 70.9026 290.62 70.77C290.62 70.6374 290.673 70.5102 290.766 70.4164C290.86 70.3227 290.987 70.27 291.12 70.27H299C299.133 70.27 299.26 70.3227 299.354 70.4164C299.447 70.5102 299.5 70.6374 299.5 70.77C299.5 70.9026 299.447 71.0298 299.354 71.1235C299.26 71.2173 299.133 71.27 299 71.27Z" fill="#D1D3D4"/>
<path d="M296.57 75.16H291.08C290.947 75.16 290.82 75.1073 290.726 75.0135C290.633 74.9198 290.58 74.7926 290.58 74.66C290.58 74.5274 290.633 74.4002 290.726 74.3064C290.82 74.2127 290.947 74.16 291.08 74.16H296.57C296.703 74.16 296.83 74.2127 296.924 74.3064C297.017 74.4002 297.07 74.5274 297.07 74.66C297.07 74.7926 297.017 74.9198 296.924 75.0135C296.83 75.1073 296.703 75.16 296.57 75.16Z" fill="#D1D3D4"/>
<path d="M295.09 65.38C294.957 65.38 294.83 65.3273 294.736 65.2336C294.643 65.1398 294.59 65.0126 294.59 64.88V61.88C294.59 61.7474 294.643 61.6202 294.736 61.5265C294.83 61.4327 294.957 61.38 295.09 61.38C295.223 61.38 295.35 61.4327 295.444 61.5265C295.537 61.6202 295.59 61.7474 295.59 61.88V64.88C295.59 65.0126 295.537 65.1398 295.444 65.2336C295.35 65.3273 295.223 65.38 295.09 65.38Z" fill="#D1D3D4"/>
<path d="M187.66 29.99H172.64V45.19H187.66V29.99Z" fill="white"/>
<path d="M187.65 45.69H172.65C172.517 45.69 172.39 45.6373 172.296 45.5436C172.203 45.4498 172.15 45.3226 172.15 45.19V30C172.15 29.8674 172.203 29.7402 172.296 29.6464C172.39 29.5527 172.517 29.5 172.65 29.5H187.65C187.783 29.5 187.91 29.5527 188.004 29.6464C188.097 29.7402 188.15 29.8674 188.15 30V45.2C188.147 45.3309 188.094 45.4555 188 45.5471C187.907 45.6387 187.781 45.69 187.65 45.69ZM173.14 44.69H187.14V30.49H173.14V44.69Z" fill="#D1D3D4"/>
<path d="M184.09 34.53H176.2C176.067 34.53 175.94 34.4773 175.846 34.3836C175.753 34.2898 175.7 34.1626 175.7 34.03C175.7 33.8974 175.753 33.7702 175.846 33.6764C175.94 33.5827 176.067 33.53 176.2 33.53H184.09C184.223 33.53 184.35 33.5827 184.444 33.6764C184.537 33.7702 184.59 33.8974 184.59 34.03C184.59 34.1626 184.537 34.2898 184.444 34.3836C184.35 34.4773 184.223 34.53 184.09 34.53V34.53Z" fill="#D1D3D4"/>
<path d="M184.09 37.76H176.2C176.067 37.76 175.94 37.7073 175.846 37.6136C175.753 37.5198 175.7 37.3926 175.7 37.26C175.7 37.1274 175.753 37.0002 175.846 36.9065C175.94 36.8127 176.067 36.76 176.2 36.76H184.09C184.223 36.76 184.35 36.8127 184.444 36.9065C184.537 37.0002 184.59 37.1274 184.59 37.26C184.59 37.3926 184.537 37.5198 184.444 37.6136C184.35 37.7073 184.223 37.76 184.09 37.76V37.76Z" fill="#D1D3D4"/>
<path d="M181.69 41.66H176.2C176.068 41.6574 175.942 41.6039 175.849 41.5107C175.756 41.4175 175.703 41.2918 175.7 41.16C175.7 41.0274 175.753 40.9002 175.846 40.8064C175.94 40.7127 176.067 40.66 176.2 40.66H181.69C181.823 40.66 181.95 40.7127 182.044 40.8064C182.137 40.9002 182.19 41.0274 182.19 41.16C182.19 41.2926 182.137 41.4198 182.044 41.5135C181.95 41.6073 181.823 41.66 181.69 41.66Z" fill="#D1D3D4"/>
<path d="M180.21 31.88C180.078 31.8774 179.953 31.8239 179.859 31.7307C179.766 31.6375 179.713 31.5118 179.71 31.38V28.38C179.71 28.2474 179.763 28.1202 179.856 28.0265C179.95 27.9327 180.077 27.88 180.21 27.88C180.343 27.88 180.47 27.9327 180.564 28.0265C180.657 28.1202 180.71 28.2474 180.71 28.38V31.38C180.71 31.5126 180.657 31.6398 180.564 31.7336C180.47 31.8273 180.343 31.88 180.21 31.88Z" fill="#D1D3D4"/>
<path d="M319.43 40.13H304.41V55.33H319.43V40.13Z" fill="white"/>
<path d="M319.42 55.83H304.42C304.287 55.83 304.16 55.7773 304.066 55.6836C303.973 55.5898 303.92 55.4626 303.92 55.33V40.13C303.92 39.9974 303.973 39.8702 304.066 39.7765C304.16 39.6827 304.287 39.63 304.42 39.63H319.42C319.553 39.63 319.68 39.6827 319.774 39.7765C319.867 39.8702 319.92 39.9974 319.92 40.13V55.33C319.92 55.4626 319.867 55.5898 319.774 55.6836C319.68 55.7773 319.553 55.83 319.42 55.83ZM304.91 54.83H318.91V40.63H304.91V54.83Z" fill="#D1D3D4"/>
<path d="M315.86 44.67H308C307.868 44.6674 307.743 44.6139 307.649 44.5207C307.556 44.4275 307.503 44.3018 307.5 44.17C307.5 44.0374 307.553 43.9102 307.646 43.8164C307.74 43.7227 307.867 43.67 308 43.67H315.89C316.023 43.67 316.15 43.7227 316.244 43.8164C316.337 43.9102 316.39 44.0374 316.39 44.17C316.389 44.2378 316.374 44.3048 316.346 44.3668C316.319 44.4289 316.279 44.4848 316.23 44.5314C316.181 44.5779 316.123 44.6142 316.059 44.638C315.995 44.6618 315.928 44.6727 315.86 44.67V44.67Z" fill="#D1D3D4"/>
<path d="M315.86 47.9H308C307.868 47.8974 307.743 47.8439 307.649 47.7507C307.556 47.6575 307.503 47.5318 307.5 47.4C307.5 47.2674 307.553 47.1402 307.646 47.0464C307.74 46.9527 307.867 46.9 308 46.9H315.89C316.023 46.9 316.15 46.9527 316.244 47.0464C316.337 47.1402 316.39 47.2674 316.39 47.4C316.389 47.4678 316.374 47.5347 316.346 47.5968C316.319 47.6588 316.279 47.7148 316.23 47.7614C316.181 47.8079 316.123 47.8442 316.059 47.868C315.995 47.8918 315.928 47.9027 315.86 47.9V47.9Z" fill="#D1D3D4"/>
<path d="M312 42C311.867 42 311.74 41.9473 311.646 41.8536C311.553 41.7598 311.5 41.6326 311.5 41.5V38.5C311.503 38.3682 311.556 38.2425 311.649 38.1493C311.743 38.0561 311.868 38.0026 312 38C312.133 38 312.26 38.0527 312.354 38.1464C312.447 38.2402 312.5 38.3674 312.5 38.5V41.5C312.5 41.6326 312.447 41.7598 312.354 41.8536C312.26 41.9473 312.133 42 312 42Z" fill="#D1D3D4"/>
<path d="M217.87 161.6H198.16C198.027 161.6 197.9 161.547 197.806 161.454C197.713 161.36 197.66 161.233 197.66 161.1C197.663 160.968 197.716 160.843 197.809 160.749C197.902 160.656 198.028 160.603 198.16 160.6H217.87C218.003 160.6 218.13 160.653 218.224 160.746C218.317 160.84 218.37 160.967 218.37 161.1C218.37 161.233 218.317 161.36 218.224 161.454C218.13 161.547 218.003 161.6 217.87 161.6Z" fill="#D1D3D4"/>
<path d="M217.87 166.67H198.16C198.027 166.67 197.9 166.617 197.806 166.524C197.713 166.43 197.66 166.303 197.66 166.17C197.663 166.038 197.716 165.912 197.809 165.819C197.902 165.726 198.028 165.673 198.16 165.67H217.87C218.003 165.67 218.13 165.723 218.224 165.816C218.317 165.91 218.37 166.037 218.37 166.17C218.37 166.303 218.317 166.43 218.224 166.524C218.13 166.617 218.003 166.67 217.87 166.67Z" fill="#D1D3D4"/>
<path d="M203.23 58.55H187.46C187.327 58.55 187.2 58.4973 187.106 58.4036C187.013 58.3098 186.96 58.1826 186.96 58.05C186.963 57.9182 187.016 57.7925 187.109 57.6993C187.203 57.6061 187.328 57.5526 187.46 57.55H203.23C203.363 57.55 203.49 57.6027 203.584 57.6964C203.677 57.7902 203.73 57.9174 203.73 58.05C203.73 58.1157 203.717 58.1807 203.692 58.2413C203.667 58.302 203.63 58.3571 203.584 58.4036C203.537 58.45 203.482 58.4868 203.421 58.5119C203.361 58.5371 203.296 58.55 203.23 58.55Z" fill="#D1D3D4"/>
<path d="M197.6 64.18H185.21C185.077 64.18 184.95 64.1273 184.856 64.0335C184.763 63.9398 184.71 63.8126 184.71 63.68C184.713 63.5482 184.766 63.4225 184.859 63.3293C184.953 63.2361 185.078 63.1826 185.21 63.18H197.6C197.733 63.18 197.86 63.2327 197.954 63.3264C198.047 63.4202 198.1 63.5474 198.1 63.68C198.1 63.8126 198.047 63.9398 197.954 64.0335C197.86 64.1273 197.733 64.18 197.6 64.18Z" fill="#D1D3D4"/>
<path d="M340.78 200.46H1.22C1.08739 200.46 0.960218 200.407 0.866449 200.314C0.772681 200.22 0.720001 200.093 0.720001 199.96C0.720001 199.827 0.772681 199.7 0.866449 199.606C0.960218 199.513 1.08739 199.46 1.22 199.46H340.78C340.913 199.46 341.04 199.513 341.134 199.606C341.227 199.7 341.28 199.827 341.28 199.96C341.28 200.093 341.227 200.22 341.134 200.314C341.04 200.407 340.913 200.46 340.78 200.46Z" fill="#D1D3D4"/>
<path d="M33 218.68C33 218.68 29.81 227.41 31.22 228.26C32.63 229.11 60.78 228.26 59.09 226.57C57.4 224.88 49.89 219.25 49.89 219.25" fill="white"/>
<path d="M37.65 229.06C34.06 229.06 31.35 228.93 30.94 228.68C29.41 227.76 31.27 221.92 32.51 218.51C32.5577 218.389 32.6508 218.291 32.7694 218.238C32.888 218.184 33.0229 218.179 33.1453 218.223C33.2677 218.267 33.368 218.358 33.4249 218.475C33.4818 218.592 33.4908 218.726 33.45 218.85C31.88 223.15 30.95 227.35 31.45 227.85C33.4 228.71 55.36 227.69 58.45 226.66C56.37 224.74 49.68 219.72 49.6 219.66C49.4961 219.579 49.4276 219.461 49.409 219.33C49.3903 219.2 49.423 219.067 49.5 218.96C49.5394 218.907 49.5888 218.863 49.6453 218.83C49.7018 218.796 49.7643 218.774 49.8293 218.765C49.8943 218.756 49.9605 218.759 50.0241 218.776C50.0877 218.792 50.1475 218.821 50.2 218.86C50.51 219.09 57.76 224.53 59.46 226.22C59.5852 226.336 59.6619 226.496 59.6749 226.666C59.6879 226.837 59.6361 227.006 59.53 227.14C58.49 228.42 45.79 229.06 37.65 229.06Z" fill="#231F20"/>
<path d="M61.46 52C60.13 51.94 58.8 51.71 57.25 51.58C55.7 51.45 53.96 50.92 53.94 49.48C53.94 48.24 55.39 47.23 55.07 46.04C54.9555 45.7209 54.7826 45.4258 54.56 45.17C52.5099 42.4142 51.6036 38.973 52.0304 35.5649C52.4571 32.1568 54.1838 29.0453 56.85 26.88C56.45 27.02 56.02 26.62 55.98 26.2C55.9704 25.7552 56.1356 25.3244 56.44 25C57.5101 23.82 58.8996 22.9758 60.44 22.57C65.307 21.0698 70.513 21.0698 75.38 22.57C79.11 23.66 83.59 26.64 83.1 31.14C83.0475 31.9677 82.71 32.7517 82.1448 33.3588C81.5797 33.9658 80.8218 34.3585 80 34.47C79.17 39.29 76.64 42.59 73.46 46.08C71.3263 48.4761 68.633 50.3072 65.62 51.41C64.2853 51.8771 62.8719 52.0776 61.46 52Z" fill="white"/>
<path d="M62.05 52.52H61.44C60.64 52.52 59.86 52.39 59.03 52.29C58.45 52.22 57.85 52.15 57.21 52.09C54.87 51.9 53.46 50.93 53.44 49.51C53.4808 48.8356 53.7133 48.1869 54.11 47.64C54.43 47.1 54.71 46.64 54.59 46.19C54.4991 45.9574 54.3707 45.7412 54.21 45.55C52.1429 42.8163 51.1687 39.4105 51.4775 35.9973C51.7863 32.584 53.3559 29.4083 55.88 27.09C55.652 26.8698 55.5102 26.5755 55.48 26.26C55.4456 25.7015 55.6324 25.1519 56 24.73C57.1392 23.4821 58.6097 22.5838 60.24 22.14C65.2029 20.6198 70.5071 20.6198 75.47 22.14C79.85 23.42 84.04 26.74 83.54 31.25C83.4665 32.1134 83.124 32.932 82.5606 33.5904C81.9973 34.2488 81.2416 34.7138 80.4 34.92C79.4 39.92 76.61 43.32 73.8 46.42C71.6248 48.8723 68.8764 50.7481 65.8 51.88C64.5976 52.3129 63.328 52.5296 62.05 52.52ZM56.78 26.37C56.875 26.3706 56.9682 26.3958 57.0506 26.4431C57.1329 26.4904 57.2016 26.5582 57.25 26.64C57.3124 26.7396 57.3386 26.8576 57.324 26.9743C57.3094 27.0909 57.255 27.1989 57.17 27.28C54.6058 29.3658 52.9479 32.3628 52.5434 35.6433C52.139 38.9239 53.0192 42.2338 55 44.88C55.2583 45.1729 55.4585 45.5123 55.59 45.88C55.6556 46.277 55.6369 46.6834 55.5353 47.0727C55.4337 47.4621 55.2513 47.8257 55 48.14C54.7074 48.5316 54.5244 48.9942 54.47 49.48C54.47 50.78 56.85 51.05 57.32 51.09C57.98 51.09 58.59 51.22 59.18 51.29C59.99 51.38 60.75 51.47 61.51 51.51C62.868 51.5894 64.2282 51.3956 65.51 50.94C68.4427 49.8663 71.064 48.0832 73.14 45.75C76.62 41.91 78.79 38.83 79.56 34.38C79.5846 34.2787 79.6402 34.1876 79.7191 34.1195C79.798 34.0513 79.8962 34.0096 80 34C80.6885 33.8895 81.3197 33.55 81.7914 33.0365C82.2632 32.523 82.5481 31.8654 82.6 31.17C83.09 26.67 78.21 24 75.24 23.17C70.4701 21.7042 65.3699 21.7042 60.6 23.17C59.1501 23.539 57.8418 24.3289 56.84 25.44C56.6233 25.6517 56.4947 25.9375 56.48 26.24C56.4999 26.3353 56.5531 26.4203 56.63 26.48C56.6718 26.4333 56.7229 26.3958 56.78 26.37V26.37Z" fill="#231F20"/>
<path d="M127.57 61.7L141.02 72.39L141.38 73.02L143.17 76.13L139.74 75.09L139.04 74.88L125.59 64.19L127.57 61.7Z" fill="#231F20"/>
<path d="M143.17 76.63H143.03L138.9 75.38C138.838 75.3623 138.78 75.3317 138.73 75.29L125.28 64.58C125.228 64.5405 125.184 64.4909 125.152 64.4342C125.119 64.3775 125.098 64.3149 125.09 64.25C125.082 64.1175 125.121 63.9864 125.2 63.88L127.2 61.39C127.24 61.3379 127.29 61.2943 127.347 61.2619C127.405 61.2296 127.468 61.209 127.533 61.2016C127.598 61.1941 127.664 61.1999 127.728 61.2185C127.791 61.2371 127.849 61.2682 127.9 61.31L141.33 72C141.38 72.037 141.421 72.0848 141.45 72.14L143.6 75.88C143.656 75.9627 143.686 76.0602 143.686 76.16C143.686 76.2598 143.656 76.3573 143.6 76.44C143.549 76.5039 143.483 76.5544 143.408 76.5875C143.333 76.6206 143.252 76.6352 143.17 76.63ZM139.27 74.43L142.12 75.29L140.64 72.72L127.64 62.4L126.28 64.11L139.27 74.43Z" fill="#231F20"/>
<path d="M122.533 61.2131L123.989 59.381C124.053 59.2998 124.133 59.2321 124.224 59.1818C124.315 59.1314 124.415 59.0994 124.518 59.0876C124.621 59.0758 124.725 59.0845 124.825 59.113C124.925 59.1415 125.018 59.1895 125.099 59.254L131.488 64.3304L129.043 67.4073L122.662 62.3371C122.578 62.2726 122.509 62.192 122.457 62.1002C122.405 62.0083 122.373 61.907 122.361 61.8022C122.349 61.6975 122.358 61.5914 122.387 61.4902C122.417 61.389 122.467 61.2948 122.533 61.2131V61.2131Z" fill="#231F20"/>
<path d="M129.05 67.91C128.937 67.9086 128.828 67.8699 128.74 67.8L122.35 62.72C122.217 62.6158 122.106 62.4861 122.023 62.3384C121.941 62.1907 121.889 62.0281 121.87 61.86C121.844 61.6837 121.855 61.504 121.901 61.3319C121.948 61.1599 122.029 60.9993 122.14 60.86L122.53 61.17L122.14 60.86L123.6 59.03C123.704 58.8968 123.834 58.7857 123.982 58.7032C124.129 58.6208 124.292 58.5687 124.46 58.55C124.8 58.5115 125.141 58.6085 125.41 58.82L131.8 64C131.852 64.0412 131.895 64.0927 131.926 64.1512C131.957 64.2097 131.975 64.274 131.98 64.34C131.989 64.4037 131.985 64.4684 131.967 64.5304C131.95 64.5923 131.92 64.65 131.88 64.7L129.44 67.77C129.4 67.8221 129.351 67.8657 129.294 67.8984C129.238 67.931 129.175 67.952 129.11 67.96L129.05 67.91ZM124.61 59.59C124.566 59.5888 124.522 59.5982 124.482 59.6173C124.442 59.6364 124.407 59.6648 124.38 59.7L122.92 61.53C122.896 61.5607 122.878 61.596 122.867 61.6339C122.857 61.6717 122.855 61.7112 122.86 61.75C122.864 61.7876 122.876 61.824 122.895 61.8567C122.914 61.8894 122.939 61.9178 122.97 61.94L128.97 66.71L130.79 64.42L124.79 59.65C124.737 59.6123 124.675 59.5913 124.61 59.59Z" fill="#231F20"/>
<path d="M127.31 68.62C127.197 68.6186 127.088 68.5799 127 68.51C126.65 68.24 123.64 65.87 123.22 65.51C122.669 64.5904 122.305 63.5708 122.15 62.51C122.123 62.3762 122.15 62.2372 122.225 62.1231C122.3 62.009 122.417 61.9288 122.55 61.9C122.616 61.8854 122.685 61.8842 122.752 61.8965C122.819 61.9088 122.882 61.9343 122.939 61.9716C122.996 62.0089 123.045 62.0571 123.083 62.1135C123.121 62.1699 123.147 62.2333 123.16 62.3C123.31 63.1625 123.569 64.0025 123.93 64.8C124.26 65.1 126.71 67.04 127.63 67.8C127.685 67.8402 127.731 67.8912 127.765 67.9498C127.799 68.0083 127.821 68.0733 127.83 68.1406C127.838 68.208 127.833 68.2764 127.814 68.3416C127.795 68.4068 127.763 68.4675 127.72 68.52C127.663 68.5649 127.597 68.5971 127.526 68.6144C127.455 68.6316 127.382 68.6335 127.31 68.62Z" fill="#231F20"/>
<path d="M41.4 81C41.4 81 31 102.12 31.83 108.59C32.66 115.06 54.08 112.53 54.08 112.53L53 80.44L41.4 81Z" fill="white"/>
<path d="M45.23 113.52H43.23C35.71 113.28 31.7 111.65 31.32 108.69C30.46 102.14 40.51 81.69 40.94 80.81C40.9789 80.7303 41.0383 80.6623 41.1121 80.6131C41.1859 80.5639 41.2714 80.5352 41.36 80.53L52.9 79.97C52.9673 79.9656 53.0347 79.9749 53.0983 79.9972C53.1619 80.0195 53.2203 80.0545 53.27 80.1C53.3661 80.1919 53.4234 80.3172 53.43 80.45L54.55 112.55C54.5558 112.675 54.5134 112.798 54.4315 112.893C54.3497 112.987 54.2346 113.047 54.11 113.06C51.1601 113.369 48.196 113.523 45.23 113.52ZM41.72 81.52C40.53 83.98 31.56 102.7 32.33 108.57C32.95 113.35 47.44 112.8 53.56 112.13L52.47 81L41.72 81.52Z" fill="#231F20"/>
<path d="M82.79 214.55L83.36 228.26C83.36 228.26 109.07 228.44 107.57 226.57C106.07 224.7 94.43 216.43 94.43 216.43L92.55 206.29L82.79 214.55Z" fill="white"/>
<path d="M86.65 228.77H83.35C83.2233 228.765 83.1029 228.713 83.0123 228.625C82.9217 228.536 82.8674 228.417 82.86 228.29L82.29 214.58C82.2891 214.504 82.3047 214.429 82.3358 214.36C82.3669 214.291 82.4127 214.23 82.47 214.18L92.23 205.92C92.2976 205.865 92.3779 205.828 92.4635 205.812C92.5491 205.797 92.6373 205.803 92.72 205.83C92.8022 205.861 92.8754 205.912 92.933 205.978C92.9906 206.045 93.0308 206.124 93.05 206.21L94.89 216.15C96.37 217.21 106.52 224.46 107.96 226.26C108.052 226.363 108.111 226.492 108.129 226.63C108.146 226.767 108.123 226.906 108.06 227.03C107.35 228.49 95.52 228.77 86.65 228.77ZM83.84 227.77C94.13 227.83 105.11 227.44 106.98 226.67C105.32 224.93 97.98 219.56 94.14 216.85C94.0356 216.772 93.9643 216.658 93.94 216.53L92.22 207.24L83.3 214.79L83.84 227.77Z" fill="#231F20"/>
<path d="M87.45 118.23L97.45 218.31L80.93 218.68L62.15 148L51.75 219.26L32.61 218.32C32.61 218.32 35.94 178.52 37.68 163.37C39.42 148.22 42.1 122 42.1 122L87.45 118.23Z" fill="#231F20"/>
<path d="M81.3 41.48C81.3 41.48 84.75 47.16 83.94 48.27C83.13 49.38 80.66 48.53 80.66 48.53" fill="white"/>
<path d="M82.45 49.35C81.7701 49.3372 81.0959 49.2226 80.45 49.01C80.3252 48.9647 80.2229 48.8725 80.1651 48.7529C80.1072 48.6334 80.0982 48.496 80.14 48.37C80.1832 48.2459 80.2735 48.1438 80.3914 48.0858C80.5093 48.0278 80.6453 48.0185 80.77 48.06C81.47 48.3 83.05 48.59 83.49 47.98C83.93 47.37 82.49 44.57 80.83 41.74C80.7953 41.685 80.772 41.6236 80.7612 41.5595C80.7505 41.4954 80.7527 41.4298 80.7675 41.3665C80.7824 41.3032 80.8098 41.2435 80.848 41.1909C80.8862 41.1383 80.9344 41.0938 80.99 41.06C81.0458 41.0251 81.1079 41.0015 81.1728 40.9907C81.2377 40.9798 81.3041 40.9819 81.3682 40.9967C81.4323 41.0116 81.4929 41.039 81.5464 41.0773C81.5999 41.1156 81.6453 41.1641 81.68 41.22C82.77 43.01 85.2 47.31 84.3 48.56C84.0756 48.828 83.7911 49.0393 83.4696 49.1766C83.1481 49.3138 82.7988 49.3733 82.45 49.35V49.35Z" fill="#231F20"/>
<path d="M80.8 34.14C83.06 36.14 82.23 40.14 82.11 42.73C81.94 46.41 81.68 50.07 81.34 53.73C81.13 56.05 75.1 55.87 74.06 55.13L74.65 64.36L62.17 59L63 48.42C63 48.42 67 48.6 69.5 44C72 39.4 72.22 32 72.22 32C72.22 32 78.6 32.2 80.8 34.14Z" fill="white"/>
<path d="M74.65 64.87C74.5841 64.884 74.5159 64.884 74.45 64.87L62 59.49C61.9066 59.4451 61.8284 59.3738 61.7751 59.285C61.7217 59.1961 61.6956 59.0935 61.7 58.99L62.51 48.38C62.5202 48.2509 62.5802 48.1308 62.6772 48.045C62.7741 47.9592 62.9006 47.9144 63.03 47.92C63.18 47.92 66.74 48.02 69.09 43.71C71.54 39.22 71.75 32.06 71.75 31.99C71.7522 31.924 71.7675 31.8591 71.795 31.799C71.8224 31.7389 71.8615 31.6849 71.91 31.64C71.9563 31.592 72.0124 31.5546 72.0746 31.5304C72.1368 31.5062 72.2034 31.4958 72.27 31.5C72.54 31.5 78.86 31.73 81.16 33.77C83.23 35.59 82.96 38.77 82.74 41.35C82.74 41.85 82.66 42.35 82.64 42.76C82.47 46.43 82.21 50.14 81.87 53.76C81.8179 54.1572 81.6553 54.5319 81.4007 54.8413C81.1461 55.1506 80.8098 55.3823 80.43 55.51C78.5734 56.1789 76.5637 56.3004 74.64 55.86L75.18 64.32C75.1855 64.4052 75.169 64.4903 75.1323 64.5673C75.0955 64.6443 75.0396 64.7107 74.97 64.76C74.8786 64.8313 74.766 64.87 74.65 64.87V64.87ZM62.65 58.71L74.05 63.59L73.51 55.17C73.5065 55.0754 73.5288 54.9817 73.5746 54.8988C73.6204 54.816 73.688 54.7473 73.77 54.7C73.8499 54.6514 73.9415 54.6257 74.035 54.6257C74.1285 54.6257 74.2201 54.6514 74.3 54.7C76.1391 55.2736 78.1147 55.235 79.93 54.59C80.47 54.3433 80.76 54.0333 80.8 53.66C81.13 50.03 81.39 46.33 81.56 42.66C81.56 42.21 81.62 41.73 81.66 41.22C81.86 38.87 82.11 35.96 80.42 34.47C78.73 32.98 74.16 32.57 72.65 32.47C72.56 34.23 72.1 40.09 69.89 44.13C67.68 48.17 64.6 48.74 63.4 48.84L62.65 58.71Z" fill="#231F20"/>
<path d="M100 84.22C100 84.22 85.24 68.62 79.39 62.76C73.97 57.32 58.19 52.38 51.02 60.16C51.02 60.16 39.19 76.64 36.94 86.21L43.84 90.43C42.3257 101.776 41.4311 113.196 41.16 124.64C54.16 134.95 87.49 118.23 87.49 118.23L84.49 94.75L89.88 100.13L100 84.22Z" fill="black"/>
<path d="M81.36 51C81.36 51 78.45 52.65 77.04 49.64Z" fill="white"/>
<path d="M79.61 51.94C79.2708 51.9437 78.9332 51.893 78.61 51.79C78.1526 51.6197 77.7373 51.353 77.3922 51.0078C77.0471 50.6627 76.7803 50.2474 76.61 49.79C76.5815 49.7311 76.5651 49.667 76.5618 49.6016C76.5585 49.5362 76.5683 49.4709 76.5907 49.4093C76.6131 49.3478 76.6475 49.2914 76.6921 49.2434C76.7366 49.1954 76.7903 49.1569 76.85 49.13C76.9097 49.1013 76.9745 49.0848 77.0406 49.0813C77.1067 49.0779 77.1728 49.0876 77.2352 49.11C77.2975 49.1323 77.3548 49.1668 77.4037 49.2114C77.4526 49.2561 77.4921 49.31 77.52 49.37C77.644 49.6929 77.8346 49.9862 78.0792 50.2308C78.3238 50.4754 78.6171 50.666 78.94 50.79C79.6833 50.9619 80.4635 50.8626 81.14 50.51C81.2554 50.4452 81.3918 50.4289 81.5193 50.4645C81.6467 50.5001 81.7549 50.5848 81.82 50.7C81.8822 50.816 81.8971 50.9515 81.8617 51.0782C81.8263 51.2049 81.7433 51.3131 81.63 51.38C81.0104 51.7238 80.3181 51.9157 79.61 51.94Z" fill="#231F20"/>
<path d="M74.17 43.57C74.1029 42.647 73.7809 41.7608 73.24 41.01C72.9134 40.3788 72.4956 39.7993 72 39.29C71.7402 39.0322 71.425 38.837 71.0785 38.7192C70.7319 38.6014 70.3631 38.564 70 38.61C69.6907 38.6743 69.3986 38.804 69.1434 38.9902C68.8882 39.1764 68.6756 39.415 68.52 39.69C68.2125 40.2465 68.0348 40.8652 68 41.5C67.8869 42.8796 68.1388 44.2647 68.7303 45.5162C69.3218 46.7678 70.2322 47.8416 71.37 48.63L71.17 48.4" fill="white"/>
<path d="M71.37 49.13C71.2694 49.1307 71.1713 49.0992 71.09 49.04C69.8799 48.1995 68.9114 47.0563 68.2814 45.7244C67.6515 44.3925 67.382 42.9186 67.5 41.45C67.5465 40.7466 67.7516 40.0628 68.1 39.45C68.2943 39.1131 68.5579 38.8212 68.8734 38.5937C69.1888 38.3661 69.549 38.2081 69.93 38.13C70.3606 38.0764 70.7978 38.1214 71.2084 38.2618C71.619 38.4021 71.9923 38.634 72.3 38.94C72.8499 39.4743 73.3123 40.0918 73.67 40.77C74.2579 41.6031 74.6039 42.5825 74.67 43.6C74.6701 43.6661 74.6567 43.7314 74.6309 43.7922C74.605 43.853 74.5671 43.908 74.5195 43.9537C74.4718 43.9995 74.4154 44.0352 74.3537 44.0586C74.2919 44.082 74.226 44.0927 74.16 44.09C74.0943 44.0887 74.0296 44.0745 73.9694 44.0481C73.9092 44.0218 73.8549 43.9839 73.8094 43.9365C73.7638 43.8891 73.7281 43.8333 73.7042 43.7721C73.6803 43.7109 73.6687 43.6457 73.67 43.58C73.599 42.7491 73.3016 41.9536 72.81 41.28C72.4975 40.6915 72.0999 40.1523 71.63 39.68C71.4316 39.4802 71.1918 39.3264 70.9273 39.2297C70.6629 39.1329 70.3805 39.0954 70.1 39.12C69.8644 39.1795 69.6443 39.2889 69.4546 39.4407C69.2648 39.5925 69.1098 39.7832 69 40C68.7269 40.4878 68.5696 41.0318 68.54 41.59C68.4383 42.8515 68.6604 44.1181 69.1854 45.2696C69.7105 46.4212 70.5209 47.4195 71.54 48.17V48.17L71.74 48.39C71.8202 48.4812 71.8644 48.5985 71.8644 48.72C71.8644 48.8414 71.8202 48.9587 71.74 49.05C71.6315 49.1231 71.499 49.1518 71.37 49.13V49.13Z" fill="#231F20"/>
<path d="M74.06 55.14C72.2872 54.4963 70.7383 53.3538 69.6 51.85C69.6 51.85 69.6 57.45 74.32 59.25L74.06 55.14Z" fill="#231F20"/>
<path d="M74.32 59.75C74.2604 59.7595 74.1996 59.7595 74.14 59.75C69.14 57.85 69.14 51.94 69.14 51.88C69.14 51.7718 69.1751 51.6665 69.24 51.58C69.3049 51.4934 69.3961 51.4303 69.5 51.4C69.6034 51.3683 69.7145 51.3717 69.8158 51.4096C69.9171 51.4476 70.0029 51.5181 70.06 51.61C71.1414 53.0189 72.6017 54.0908 74.27 54.7C74.3635 54.7307 74.4452 54.7893 74.5043 54.868C74.5633 54.9467 74.5967 55.0417 74.6 55.14L74.86 59.25C74.8668 59.3329 74.8519 59.416 74.8168 59.4914C74.7818 59.5668 74.7277 59.6318 74.66 59.68C74.5598 59.7459 74.4381 59.7709 74.32 59.75V59.75ZM70.32 53.44C70.4967 54.478 70.9002 55.4643 71.5017 56.3286C72.1032 57.1928 72.888 57.9137 73.8 58.44L73.61 55.44C72.3992 54.9639 71.2769 54.2878 70.29 53.44H70.32Z" fill="#231F20"/>
<path d="M90.53 98C95.2974 102.146 101.241 104.698 107.53 105.3C113.6 105.73 129.3 90.87 133.41 86.3C137.18 82.08 140.09 77.64 139.97 71.73C139.982 70.9964 139.842 70.2683 139.557 69.5918C139.273 68.9153 138.852 68.3052 138.32 67.8C137.81 67.36 137.15 66.98 137.03 66.33C137.03 66.09 137.03 65.84 136.97 65.61C136.874 65.3588 136.697 65.1467 136.467 65.0072C136.237 64.8678 135.967 64.8089 135.7 64.84C135.166 64.9253 134.665 65.1533 134.25 65.5C132.144 66.9542 130.335 68.7972 128.92 70.93C128.535 71.6746 128.233 72.4594 128.02 73.27C127.18 76.01 126.76 78.77 124.79 80.88C122.82 82.99 111.71 93 107.36 91.14C102 88.84 97.97 86.69 97.97 86.69" fill="white"/>
<path d="M107.82 105.84H107.53C101.11 105.26 95.0385 102.659 90.19 98.41C90.1431 98.3635 90.1059 98.3082 90.0806 98.2473C90.0552 98.1864 90.0421 98.121 90.0421 98.055C90.0421 97.989 90.0552 97.9236 90.0806 97.8627C90.1059 97.8018 90.1431 97.7465 90.19 97.7C90.2356 97.6534 90.2901 97.6164 90.3502 97.5912C90.4103 97.5659 90.4748 97.5529 90.54 97.5529C90.6052 97.5529 90.6697 97.5659 90.7298 97.5912C90.7899 97.6164 90.8444 97.6534 90.89 97.7C95.5908 101.761 101.437 104.263 107.62 104.86C113.27 105.26 128.32 91.34 133.1 85.99C136.51 82.17 139.65 77.8 139.53 71.76C139.542 71.0876 139.413 70.4201 139.149 69.8014C138.885 69.1827 138.494 68.6267 138 68.17C137.905 68.0813 137.804 67.9979 137.7 67.92C137.138 67.5818 136.727 67.0416 136.55 66.41C136.535 66.2737 136.535 66.1363 136.55 66C136.557 65.9068 136.557 65.8132 136.55 65.72C136.48 65.46 136.11 65.31 135.81 65.33C135.37 65.4071 134.96 65.6005 134.62 65.89C132.574 67.3077 130.81 69.095 129.42 71.16C129.061 71.877 128.773 72.6272 128.56 73.4C128.4 73.94 128.26 74.47 128.11 75C127.51 77.17 126.89 79.42 125.23 81.21C123.57 83 112.08 93.68 107.23 91.6C101.91 89.32 97.84 87.15 97.8 87.13C97.6833 87.0663 97.5967 86.9589 97.5592 86.8314C97.5217 86.7039 97.5363 86.5667 97.6 86.45C97.6637 86.3333 97.7711 86.2467 97.8986 86.2092C98.0261 86.1717 98.1633 86.1863 98.28 86.25C98.28 86.25 102.35 88.42 107.63 90.68C111.37 92.27 121.75 83.53 124.54 80.53C126.03 78.92 126.59 76.89 127.19 74.73C127.33 74.19 127.48 73.65 127.65 73.11C127.875 72.2652 128.19 71.4471 128.59 70.67C130.023 68.4809 131.859 66.584 134 65.08C134.491 64.6851 135.077 64.4265 135.7 64.33C136.084 64.2831 136.473 64.3712 136.799 64.5791C137.126 64.7871 137.37 65.102 137.49 65.47C137.527 65.6375 137.548 65.8084 137.55 65.98C137.545 66.0633 137.545 66.1467 137.55 66.23C137.61 66.57 137.97 66.84 138.34 67.14L138.67 67.41C139.261 67.9571 139.73 68.6231 140.045 69.3642C140.36 70.1053 140.515 70.9047 140.5 71.71C140.63 78.11 137.2 82.84 133.82 86.62C130.14 90.76 114.45 105.84 107.82 105.84Z" fill="#231F20"/>
<path d="M84.86 96.39C84.7249 96.3897 84.5954 96.3357 84.5 96.24C80.7531 92.3738 77.218 88.3078 73.91 84.06C73.8711 84.0069 73.8431 83.9466 73.8276 83.8826C73.8121 83.8186 73.8094 83.7522 73.8196 83.6872C73.8298 83.6221 73.8528 83.5597 73.8872 83.5036C73.9216 83.4475 73.9667 83.3987 74.02 83.36C74.0712 83.3195 74.1301 83.2899 74.1931 83.273C74.2561 83.2561 74.3219 83.2522 74.3865 83.2615C74.4511 83.2709 74.5131 83.2933 74.5687 83.3274C74.6243 83.3616 74.6724 83.4067 74.71 83.46C77.9936 87.673 81.4985 91.7087 85.21 95.55C85.28 95.6186 85.3278 95.7065 85.3473 95.8025C85.3668 95.8985 85.3571 95.9981 85.3194 96.0885C85.2818 96.1789 85.2178 96.256 85.136 96.3097C85.0541 96.3635 84.9579 96.3914 84.86 96.39V96.39Z" fill="#231F20"/>
<path d="M61.87 146.53C61.7527 146.528 61.6397 146.486 61.55 146.41C61.3 146.2 55.46 141.23 55.43 133.41C55.43 133.279 55.4813 133.153 55.5729 133.06C55.6645 132.966 55.7891 132.913 55.92 132.91C55.9852 132.91 56.0497 132.923 56.1099 132.948C56.17 132.973 56.2244 133.01 56.2701 133.057C56.3157 133.104 56.3516 133.159 56.3756 133.219C56.3996 133.28 56.4113 133.345 56.41 133.41C56.41 140.78 62.12 145.63 62.18 145.68C62.2574 145.746 62.3127 145.834 62.3386 145.933C62.3645 146.031 62.3598 146.135 62.325 146.231C62.2902 146.327 62.227 146.409 62.1439 146.468C62.0608 146.527 61.9618 146.559 61.86 146.56L61.87 146.53Z" fill="white"/>
<path d="M79.8188 38.9625C79.9669 38.2544 79.859 37.6326 79.5779 37.5738C79.2968 37.5151 78.9489 38.0415 78.8008 38.7497C78.6528 39.4579 78.7606 40.0796 79.0417 40.1384C79.3228 40.1972 79.6707 39.6707 79.8188 38.9625Z" fill="#231F20"/>
<path d="M43.66 87.55H43.58C43.449 87.5256 43.3324 87.4518 43.2543 87.3438C43.1761 87.2359 43.1424 87.1021 43.16 86.97C43.28 86.26 46.03 69.37 49.16 63.72C49.1922 63.6622 49.2354 63.6113 49.2872 63.5703C49.3391 63.5292 49.3985 63.4987 49.4621 63.4806C49.5257 63.4625 49.5923 63.4571 49.658 63.4647C49.7237 63.4724 49.7872 63.4928 49.845 63.525C49.9028 63.5572 49.9537 63.6004 49.9947 63.6523C50.0358 63.7041 50.0663 63.7635 50.0844 63.8271C50.1025 63.8907 50.1079 63.9573 50.1003 64.023C50.0927 64.0887 50.0722 64.1522 50.04 64.21C47.04 69.7 44.21 86.96 44.18 87.13C44.1626 87.2528 44.0992 87.3645 44.0027 87.4424C43.9062 87.5204 43.7837 87.5588 43.66 87.55V87.55Z" fill="#231F20"/>
<path d="M310.77 144.94C310.905 142.86 310.462 140.784 309.49 138.94C308.68 137.6 307.44 136.53 306.77 135.11C305.63 132.66 306.43 129.77 306.16 127.11C305.93 124.848 304.935 122.731 303.34 121.11C301.93 119.69 300.11 118.71 298.77 117.23C296.56 114.79 295.92 111.36 294.67 108.32C292.889 104.022 289.804 100.391 285.85 97.94C288.25 102.78 282.77 108.94 285.25 113.74C286.04 115.26 287.55 116.37 288.12 117.98C289.52 121.88 284.87 126.1 286.36 129.98C287.1 131.91 289.17 133.03 290.13 134.86C291.42 137.32 290.41 140.32 290.51 143.1C290.66 146.94 293 150.38 295.77 153.04C297.5 154.7 299.43 156.13 301.3 157.63C303.53 159.42 304.48 161.3 306.45 158.42C309.167 154.441 310.668 149.757 310.77 144.94V144.94Z" fill="#231F20"/>
<path d="M313.26 147.14C312.55 144.14 312.03 140.95 313.26 138.14C314.63 134.97 318.05 132.72 318.45 129.29C318.71 127.04 317.57 124.77 318.02 122.55C318.47 120.33 320.28 118.81 321.78 117.18C325.218 113.392 327.263 108.546 327.58 103.44C329.74 106.29 331.93 109.2 333.1 112.58C334.27 115.96 334.3 119.93 332.3 122.89C331.725 123.582 331.254 124.353 330.9 125.18C330.23 127.37 332.1 129.41 333.07 131.49C333.645 132.675 333.884 133.995 333.762 135.306C333.641 136.618 333.163 137.871 332.38 138.93C330.38 141.38 326.63 142.34 325.67 145.32C325.425 146.433 325.311 147.571 325.33 148.71C325.117 150.68 324.324 152.543 323.051 154.062C321.778 155.58 320.083 156.687 318.18 157.24C315.85 157.8 315.9 156.88 315.48 154.93C314.9 152.3 313.9 149.76 313.26 147.14Z" fill="#231F20"/>
<path d="M305.87 125.76C304.22 120.05 303.56 114.09 301.82 108.4C300.34 103.958 298.532 99.6331 296.41 95.46L303.5 98.46C305.77 99.46 308.23 100.55 309.3 102.77C311.16 106.64 307.81 111.59 309.77 115.41C310.46 116.75 311.7 117.71 312.58 118.93C314.66 121.86 314.34 125.93 313.2 129.29C312.71 130.76 310.56 138.29 308.64 136.23C307.87 135.39 307.81 132.23 307.49 131.1C307 129.29 306.38 127.54 305.87 125.76Z" fill="#231F20"/>
<path d="M309.85 201.61C308.44 192.28 304.02 159.38 303.97 159.05L304.97 158.92C305.02 159.25 309.44 192.14 310.85 201.46L309.85 201.61Z" fill="#231F20"/>
<path d="M311.29 210.44H310.29C310.38 198.63 315.18 156.84 317.63 154.16L318.36 154.84C316.25 157.15 311.38 197.73 311.29 210.44Z" fill="#231F20"/>
<path d="M313.69 208.32H312.69C313.75 184.42 308.69 134.23 308.63 133.72L309.63 133.62C309.67 134.09 314.75 184.35 313.69 208.32Z" fill="#231F20"/>
<path d="M297.6 174.88H324L322.16 204.88C321.84 210.06 318 214.08 313.37 214.08H308.27C303.64 214.08 299.8 210.08 299.48 204.88L297.6 174.88Z" fill="white"/>
<path d="M313.34 214.54H308.24C303.36 214.54 299.24 210.29 298.93 204.86L297.09 174.86C297.085 174.79 297.095 174.72 297.119 174.655C297.143 174.589 297.181 174.53 297.23 174.48C297.278 174.43 297.335 174.39 297.399 174.363C297.462 174.335 297.531 174.321 297.6 174.32H324C324.143 174.322 324.279 174.379 324.38 174.48C324.429 174.53 324.467 174.589 324.491 174.655C324.515 174.72 324.525 174.79 324.52 174.86L322.67 204.86C322.31 210.29 318.22 214.54 313.34 214.54ZM298.15 175.4L300 204.8C300.31 209.68 303.94 213.51 308.28 213.51H313.38C317.72 213.51 321.38 209.68 321.65 204.8L323.46 175.4H298.15Z" fill="#231F20"/>
</svg>
