<?xml version="1.0" standalone="no"?><!-- Generator: Gravit.io --><svg xmlns="http://www.w3.org/2000/svg" xmlns:xlink="http://www.w3.org/1999/xlink" style="isolation:isolate" viewBox="0 0 195 195" width="195" height="195"><defs><clipPath id="_clipPath_xUlIw8awaD9EM1EslAC3rw4J8vZ0Brsc"><rect width="195" height="195"/></clipPath></defs><g clip-path="url(#_clipPath_xUlIw8awaD9EM1EslAC3rw4J8vZ0Brsc)"><g><rect x="0" y="0" width="195" height="195" transform="matrix(1,0,0,1,0,0)" fill="rgb(18,16,14)"/></g><path d=" M 97.5 38.603 C 64.153 38.603 37.112 65.638 37.112 98.991 C 37.112 125.673 54.415 148.308 78.409 156.294 C 81.426 156.854 82.534 154.984 82.534 153.389 C 82.534 151.949 82.477 147.192 82.452 142.146 C 65.652 145.799 62.107 135.021 62.107 135.021 C 59.36 128.041 55.402 126.185 55.402 126.185 C 49.921 122.437 55.814 122.515 55.814 122.515 C 61.878 122.94 65.072 128.738 65.072 128.738 C 70.458 137.968 79.199 135.3 82.645 133.758 C 83.187 129.855 84.752 127.19 86.479 125.682 C 73.066 124.157 58.965 118.978 58.965 95.839 C 58.965 89.246 61.325 83.859 65.188 79.629 C 64.56 78.109 62.492 71.967 65.772 63.649 C 65.772 63.649 70.842 62.026 82.381 69.839 C 87.2 68.5 92.367 67.827 97.5 67.804 C 102.63 67.827 107.8 68.498 112.627 69.837 C 124.153 62.024 129.217 63.647 129.217 63.647 C 132.504 71.964 130.437 78.107 129.81 79.627 C 133.682 83.857 136.025 89.244 136.025 95.837 C 136.025 119.031 121.898 124.137 108.45 125.633 C 110.617 127.507 112.548 131.183 112.548 136.816 C 112.548 144.896 112.477 151.399 112.477 153.388 C 112.477 154.995 113.566 156.878 116.626 156.285 C 140.606 148.291 157.889 125.663 157.889 98.991 C 157.888 65.64 130.849 38.604 97.5 38.604 L 97.5 38.603 Z " fill-rule="evenodd" fill="rgb(255,255,255)"/><path d=" M 59.984 125.306 C 59.851 125.606 59.379 125.696 58.948 125.491 C 58.509 125.295 58.263 124.886 58.406 124.585 C 58.536 124.275 59.009 124.19 59.445 124.397 C 59.885 124.594 60.135 125.007 59.983 125.307 L 59.984 125.306 Z  M 62.43 128.035 C 62.143 128.302 61.579 128.178 61.198 127.755 C 60.802 127.335 60.728 126.772 61.021 126.501 C 61.319 126.235 61.864 126.361 62.26 126.781 C 62.655 127.207 62.733 127.765 62.43 128.036 L 62.43 128.035 Z  M 64.811 131.512 C 64.441 131.77 63.835 131.529 63.462 130.992 C 63.092 130.454 63.092 129.809 63.472 129.552 C 63.845 129.294 64.441 129.527 64.822 130.059 C 65.189 130.604 65.189 131.249 64.811 131.511 L 64.811 131.512 Z  M 68.072 134.873 C 67.743 135.238 67.036 135.14 66.521 134.643 C 65.994 134.156 65.846 133.463 66.178 133.099 C 66.514 132.733 67.223 132.835 67.742 133.329 C 68.268 133.815 68.428 134.509 68.075 134.872 L 68.072 134.873 Z  M 72.572 136.824 C 72.426 137.297 71.748 137.512 71.063 137.31 C 70.38 137.103 69.933 136.55 70.072 136.072 C 70.213 135.595 70.896 135.372 71.584 135.587 C 72.268 135.793 72.715 136.343 72.572 136.824 Z  M 77.516 137.185 C 77.533 137.683 76.953 138.095 76.236 138.105 C 75.512 138.122 74.928 137.718 74.921 137.228 C 74.921 136.725 75.488 136.318 76.211 136.304 C 76.928 136.291 77.517 136.691 77.517 137.184 L 77.516 137.185 Z  M 82.113 136.403 C 82.2 136.888 81.701 137.387 80.988 137.52 C 80.288 137.65 79.637 137.348 79.548 136.867 C 79.462 136.369 79.97 135.87 80.67 135.741 C 81.384 135.618 82.024 135.911 82.113 136.404 L 82.113 136.403 Z " fill="rgb(255,255,255)"/></g></svg>