<?xml version="1.0" standalone="no"?><!-- Generator: Gravit.io --><svg xmlns="http://www.w3.org/2000/svg" xmlns:xlink="http://www.w3.org/1999/xlink" style="isolation:isolate" viewBox="0 0 195 195" width="195" height="195"><defs><clipPath id="_clipPath_6z0mRytBtyMRpKEwY5ZRt5En2pyUZoue"><rect width="195" height="195"/></clipPath></defs><g clip-path="url(#_clipPath_6z0mRytBtyMRpKEwY5ZRt5En2pyUZoue)"><g><rect x="0" y="0" width="195" height="195" transform="matrix(1,0,0,1,0,0)" fill="rgb(18,16,14)"/></g><g><path d=" M 121.246 38.75 L 73.754 38.75 C 54.453 38.75 38.75 54.453 38.75 73.754 L 38.75 121.246 C 38.75 140.547 54.453 156.25 73.754 156.25 L 121.246 156.25 C 140.547 156.25 156.25 140.547 156.25 121.246 L 156.25 73.754 C 156.25 54.453 140.547 38.75 121.246 38.75 Z  M 144.43 121.246 C 144.43 134.05 134.05 144.43 121.246 144.43 L 73.754 144.43 C 60.95 144.43 50.57 134.05 50.57 121.246 L 50.57 73.754 C 50.57 60.95 60.95 50.57 73.754 50.57 L 121.246 50.57 C 134.05 50.57 144.43 60.95 144.43 73.754 L 144.43 121.246 L 144.43 121.246 Z " fill="rgb(255,255,255)"/><path d=" M 97.5 67.11 C 80.743 67.11 67.11 80.743 67.11 97.5 C 67.11 114.256 80.743 127.889 97.5 127.889 C 114.257 127.889 127.89 114.257 127.89 97.5 C 127.89 80.743 114.257 67.11 97.5 67.11 Z  M 97.5 116.069 C 87.244 116.069 78.931 107.756 78.931 97.5 C 78.931 87.244 87.245 78.931 97.5 78.931 C 107.756 78.931 116.069 87.244 116.069 97.5 C 116.069 107.755 107.755 116.069 97.5 116.069 Z " fill="rgb(255,255,255)"/><circle vector-effect="non-scaling-stroke" cx="127.88968103601584" cy="67.11031896398408" r="7.281991673834995" fill="rgb(255,255,255)"/></g></g></svg>