<?xml version="1.0" standalone="no"?><!-- Generator: Gravit.io --><svg xmlns="http://www.w3.org/2000/svg" xmlns:xlink="http://www.w3.org/1999/xlink" style="isolation:isolate" viewBox="0 0 195 195" width="195" height="195"><defs><clipPath id="_clipPath_UuB62WYJ1XwthhGDlIKLhGgBeMh0UZOS"><rect width="195" height="195"/></clipPath></defs><g clip-path="url(#_clipPath_UuB62WYJ1XwthhGDlIKLhGgBeMh0UZOS)"><g><rect x="0" y="0" width="195" height="195" transform="matrix(1,0,0,1,0,0)" fill="rgb(18,16,14)"/></g><path d=" M 71.014 155.5 C 124.891 155.5 154.351 110.863 154.351 72.163 C 154.351 70.898 154.351 69.63 154.27 68.376 C 160.004 64.227 164.949 59.093 168.881 53.211 C 163.538 55.579 157.871 57.134 152.064 57.825 C 158.179 54.16 162.749 48.403 164.934 41.618 C 159.186 45.034 152.891 47.439 146.333 48.734 C 137.253 39.079 122.828 36.717 111.148 42.97 C 99.465 49.224 93.429 62.535 96.426 75.443 C 72.875 74.264 50.933 63.141 36.058 44.842 C 28.278 58.223 32.239 75.347 45.106 83.948 C 40.478 83.791 35.951 82.532 31.908 80.271 C 31.908 80.396 31.908 80.521 31.908 80.646 C 31.906 94.572 41.708 106.574 55.353 109.36 C 51.038 110.535 46.511 110.703 42.12 109.856 C 45.954 121.794 56.952 129.975 69.488 130.213 C 59.105 138.344 46.293 142.749 33.107 142.72 C 30.771 142.723 28.438 142.587 26.119 142.314 C 39.511 150.915 55.098 155.483 71.014 155.465" fill="rgb(255,255,255)"/></g></svg>