<svg width="122" height="118" viewBox="0 0 122 118" fill="none" xmlns="http://www.w3.org/2000/svg">
<path fill-rule="evenodd" clip-rule="evenodd" d="M61 0.103001C27.653 0.103001 0.612 27.138 0.612 60.491C0.612 87.173 17.915 109.808 41.909 117.794C44.926 118.354 46.034 116.484 46.034 114.889C46.034 113.449 45.978 108.692 45.952 103.646C29.152 107.299 25.607 96.521 25.607 96.521C22.86 89.541 18.902 87.685 18.902 87.685C13.422 83.937 19.315 84.015 19.315 84.015C25.378 84.44 28.572 90.238 28.572 90.238C33.958 99.468 42.699 96.8 46.145 95.258C46.687 91.355 48.252 88.69 49.979 87.182C36.566 85.657 22.465 80.478 22.465 57.339C22.465 50.746 24.825 45.359 28.688 41.129C28.06 39.609 25.993 33.467 29.272 25.149C29.272 25.149 34.342 23.526 45.882 31.339C50.7 30 55.867 29.327 61 29.304C66.13 29.327 71.3 29.998 76.127 31.337C87.653 23.524 92.717 25.147 92.717 25.147C96.004 33.464 93.937 39.607 93.31 41.127C97.182 45.357 99.525 50.744 99.525 57.337C99.525 80.531 85.398 85.637 71.951 87.133C74.118 89.007 76.048 92.683 76.048 98.316C76.048 106.396 75.978 112.899 75.978 114.888C75.978 116.495 77.066 118.378 80.126 117.785C104.106 109.791 121.389 87.163 121.389 60.491C121.388 27.14 94.35 0.104001 61 0.104001V0.103001Z" fill="white"/>
<path d="M23.484 86.806C23.351 87.106 22.879 87.196 22.449 86.991C22.009 86.795 21.764 86.386 21.906 86.085C22.036 85.775 22.509 85.69 22.946 85.897C23.386 86.094 23.636 86.507 23.483 86.807L23.484 86.806ZM25.93 89.535C25.643 89.802 25.08 89.678 24.698 89.255C24.302 88.835 24.228 88.272 24.521 88.001C24.819 87.735 25.365 87.861 25.761 88.281C26.155 88.707 26.233 89.265 25.931 89.536L25.93 89.535ZM28.312 93.012C27.942 93.27 27.336 93.029 26.962 92.492C26.592 91.954 26.592 91.309 26.972 91.052C27.345 90.794 27.942 91.027 28.322 91.559C28.69 92.104 28.69 92.749 28.312 93.011V93.012ZM31.573 96.373C31.243 96.738 30.537 96.64 30.021 96.143C29.494 95.656 29.347 94.963 29.678 94.599C30.014 94.233 30.723 94.335 31.242 94.829C31.769 95.315 31.928 96.009 31.575 96.372L31.573 96.373ZM36.073 98.324C35.926 98.797 35.248 99.012 34.563 98.81C33.88 98.603 33.433 98.05 33.573 97.572C33.713 97.095 34.396 96.872 35.085 97.087C35.768 97.293 36.215 97.843 36.073 98.324ZM41.016 98.685C41.033 99.183 40.453 99.595 39.736 99.605C39.013 99.622 38.428 99.218 38.421 98.728C38.421 98.225 38.989 97.818 39.711 97.804C40.428 97.791 41.017 98.191 41.017 98.684L41.016 98.685ZM45.614 97.903C45.7 98.388 45.201 98.887 44.488 99.02C43.788 99.15 43.138 98.848 43.048 98.367C42.962 97.869 43.47 97.37 44.17 97.241C44.884 97.118 45.524 97.411 45.614 97.904V97.903Z" fill="white"/>
</svg>
