<svg width="165" height="134" viewBox="0 0 165 134" fill="none" xmlns="http://www.w3.org/2000/svg">
<path d="M109.912 1.0293V1H117.555L120.347 1.55671C122.209 1.91814 123.899 2.39179 125.418 2.9778C126.937 3.56382 128.407 4.24755 129.827 5.02886C131.248 5.81016 132.537 6.60626 133.693 7.41687C134.839 8.21781 135.868 9.06753 136.78 9.96604C137.681 10.8744 139.087 11.1088 140.998 10.6693C142.908 10.2297 144.966 9.61926 147.171 8.83796C149.376 8.05665 151.556 7.17763 153.711 6.20089C155.867 5.22415 157.18 4.604 157.651 4.34029C158.111 4.06691 158.356 3.92041 158.386 3.90078L158.415 3.85683L158.562 3.78357L158.709 3.71032L158.856 3.63707L159.003 3.56382L159.032 3.51987L159.076 3.49057L159.12 3.46127L159.15 3.41731L159.297 3.37336L159.444 3.34406L159.414 3.56382L159.37 3.78357L159.297 4.00333L159.223 4.22309L159.15 4.36959L159.076 4.51609L159.003 4.73585C158.954 4.88235 158.905 5.07764 158.856 5.32186C158.807 5.56609 158.341 6.54268 157.459 8.25194C156.578 9.9612 155.475 11.6948 154.152 13.4528C152.83 15.2109 151.644 16.5391 150.596 17.4377C149.537 18.3461 148.837 18.9809 148.494 19.3423C148.151 19.7134 147.734 20.0552 147.244 20.3678L146.509 20.8513L146.362 20.9245L146.215 20.9978L146.186 21.0417L146.142 21.071L146.098 21.1003L146.069 21.1443L145.922 21.2175L145.775 21.2908L145.745 21.3347L145.701 21.364L145.657 21.3933L145.628 21.4373L145.598 21.4812L145.554 21.5105L145.51 21.5398L145.481 21.5838H146.215L150.331 20.7048C153.075 20.1188 155.696 19.4107 158.194 18.5805L162.163 17.2619L162.604 17.1154L162.824 17.0422L162.971 16.9689L163.118 16.8957L163.265 16.8224L163.412 16.7492L163.706 16.7052L164 16.6759V16.9689L163.927 16.9982L163.853 17.0422L163.824 17.0861L163.78 17.1154L163.735 17.1447L163.706 17.1887L163.677 17.2326L163.633 17.2619L163.588 17.2912L163.559 17.3352L163.53 17.3791L163.486 17.4084L163.412 17.5549L163.339 17.7014L163.294 17.7307C163.275 17.76 162.653 18.5901 161.428 20.2213C160.203 21.8622 159.542 22.6922 159.444 22.7119C159.346 22.7412 159.208 22.8877 159.032 23.1514C158.866 23.4248 157.827 24.5139 155.916 26.4184C154.005 28.323 152.134 30.0174 150.302 31.5021C148.46 32.9964 147.529 34.8326 147.509 37.0107C147.48 39.1789 147.367 41.6305 147.171 44.3652C146.975 47.0999 146.607 50.0543 146.069 53.2286C145.53 56.4029 144.697 59.9923 143.57 63.9967C142.443 68.0011 141.071 71.9079 139.454 75.717C137.838 79.5261 136.147 82.9445 134.384 85.9723C132.62 89 131.003 91.5639 129.533 93.6637C128.064 95.7635 126.569 97.7413 125.05 99.5971C123.532 101.453 121.611 103.543 119.289 105.867C116.957 108.182 115.683 109.452 115.468 109.677C115.242 109.891 114.282 110.692 112.587 112.079C110.901 113.476 109.089 114.872 107.148 116.269C105.218 117.656 103.445 118.814 101.828 119.741C100.211 120.669 98.2612 121.729 95.978 122.921C93.7048 124.122 91.2453 125.235 88.5996 126.261C85.954 127.286 83.1614 128.239 80.2218 129.118C77.2822 129.997 74.4407 130.68 71.697 131.169C68.9535 131.657 65.8424 132.072 62.3638 132.414L57.1461 132.927V133H47.5924V132.927L46.3431 132.853C45.5103 132.805 44.8244 132.756 44.2854 132.707C43.7466 132.658 41.7133 132.39 38.1858 131.901C34.6582 131.413 31.8902 130.924 29.8814 130.436C27.8728 129.948 24.8841 129.02 20.9157 127.653C16.9472 126.285 13.552 124.903 10.73 123.507C7.91787 122.12 6.15412 121.241 5.43877 120.869C4.73327 120.508 3.93959 120.059 3.05771 119.522L1.7349 118.716L1.70565 118.672L1.66141 118.643L1.61731 118.613L1.58792 118.569L1.44094 118.496L1.29396 118.423L1.26471 118.379L1.22047 118.35L1.17638 118.32L1.14698 118.276L1.11773 118.232L1.07349 118.203H1V117.91L1.14698 117.939L1.29396 117.983L1.95537 118.057C2.3963 118.105 3.59668 118.179 5.55636 118.276C7.51618 118.374 9.59829 118.374 11.803 118.276C14.0077 118.179 16.2614 117.959 18.564 117.617C20.8667 117.275 23.5859 116.689 26.7214 115.859C29.857 115.029 32.7378 114.042 35.3639 112.9C37.9801 111.747 39.8418 110.888 40.9491 110.321C42.0465 109.764 43.722 108.729 45.9757 107.215L49.3562 104.945L49.3856 104.901L49.4297 104.871L49.4739 104.842L49.5032 104.798L49.5326 104.754L49.5766 104.725L49.6209 104.695L49.6501 104.651L49.7971 104.608L49.9441 104.578L49.9735 104.432L50.0176 104.285L50.0618 104.256L50.0911 104.212L48.9152 104.139C48.1314 104.09 47.372 104.041 46.6371 103.992C45.9022 103.943 44.7509 103.724 43.183 103.333C41.6154 102.942 39.9251 102.356 38.1123 101.575C36.2996 100.794 34.5358 99.8657 32.821 98.7913C31.1063 97.717 29.8667 96.8232 29.1024 96.1103C28.348 95.407 27.3681 94.4109 26.1628 93.1216C24.9675 91.8227 23.9288 90.4894 23.0469 89.1221C22.165 87.7548 21.3224 86.1772 20.519 84.39L19.2989 81.7236L19.2254 81.5039L19.1519 81.2841L19.1078 81.1376L19.0784 80.9911L19.2989 81.0204L19.5194 81.0644L21.1362 81.2841C22.2141 81.4306 23.9044 81.4794 26.2069 81.4306C28.5097 81.3818 30.1019 81.2841 30.9838 81.1376C31.8656 80.9911 32.4046 80.8934 32.6005 80.8446L32.8945 80.7714L33.2619 80.6981L33.6294 80.6249L33.6588 80.5809L33.7029 80.5516L33.7471 80.5223L33.7764 80.4784L33.4824 80.4051L33.1885 80.3318L32.8945 80.2586L32.6005 80.1853L32.3066 80.1121C32.1107 80.0633 31.7678 79.9656 31.2777 79.8191C30.7878 79.6726 29.465 79.1354 27.3093 78.2075C25.1537 77.2797 23.4389 76.3762 22.165 75.4972C20.888 74.6157 19.6703 73.6515 18.5199 72.6111C17.3735 71.5563 16.1145 70.1986 14.7426 68.5383C13.3708 66.878 12.146 64.9489 11.0681 62.7514C9.99028 60.5538 9.18189 58.454 8.64292 56.4517C8.10612 54.4612 7.75196 52.4262 7.58482 50.3718L7.32011 47.2952L7.46709 47.3245L7.61407 47.3685L7.76105 47.4417L7.90803 47.515L8.055 47.5882L8.20198 47.6615L10.4802 48.687C11.999 49.3707 13.8852 49.9568 16.1389 50.4451C18.3926 50.9334 19.7399 51.202 20.1808 51.2508L20.8422 51.3241H22.165L22.1358 51.2801L22.0915 51.2508L22.0474 51.2215L22.018 51.1776L21.9888 51.1336L21.9445 51.1043L21.9004 51.075L21.8711 51.0311L21.7241 50.9578L21.5771 50.8846L21.5478 50.8406L21.5036 50.8113L21.4595 50.782L21.4301 50.7381L21.2831 50.6648L21.1362 50.5916L21.1069 50.5476C21.0775 50.528 20.6561 50.2155 19.8427 49.61C19.0392 48.9947 18.1966 48.1987 17.3147 47.222C16.4328 46.2452 15.5509 45.2197 14.6691 44.1454C13.7856 43.0686 12.9987 41.9166 12.3174 40.7026C11.6316 39.4817 10.9064 37.9286 10.1421 36.0437C9.38767 34.1685 8.81445 32.2786 8.42245 30.374C8.03061 28.4695 7.81014 26.5894 7.76105 24.7336C7.7121 22.8779 7.76105 21.2908 7.90803 19.9723C8.055 18.6537 8.34896 17.1642 8.7899 15.5039C9.23084 13.8436 9.86785 12.0855 10.7006 10.2297L11.95 7.44617L12.0234 7.22642L12.0969 7.00666L12.1412 6.97736L12.1704 6.93341L12.1998 6.88946L12.2439 6.86016L12.2882 6.88946L12.3174 6.93341L12.3468 6.97736L12.3909 7.00666L12.4351 7.03596L12.4644 7.07991L12.4938 7.12386L12.5379 7.15316L12.6114 7.29967L12.6849 7.44617L12.7291 7.47547L12.7583 7.51942L14.7426 9.71698C16.0654 11.182 17.6332 12.818 19.4459 14.6249C21.2587 16.4317 22.263 17.3693 22.459 17.4377C22.655 17.5158 22.8999 17.7404 23.1939 18.1117C23.4878 18.4731 24.4677 19.3375 26.1335 20.7048C27.7993 22.0721 29.9795 23.6593 32.674 25.4661C35.3687 27.273 38.3573 29.0555 41.6398 30.8135C44.9224 32.5716 48.4499 34.1587 52.2223 35.5749C55.9948 36.9912 58.6404 37.919 60.1592 38.3585C61.678 38.798 64.2746 39.3596 67.9491 40.0433C71.6235 40.727 74.3917 41.1665 76.2534 41.3618C78.1152 41.5571 79.389 41.6695 80.0748 41.6988L81.1037 41.7281L81.0744 41.5083L81.0302 41.2886L80.7362 39.4573C80.5403 38.2365 80.4423 36.5272 80.4423 34.3296C80.4423 32.1321 80.6138 30.1055 80.9567 28.2497C81.2998 26.394 81.8142 24.5139 82.5 22.6093C83.186 20.7048 83.8572 19.1761 84.5136 18.0238C85.18 16.881 86.052 15.5771 87.1298 14.1121C88.2078 12.6471 89.6041 11.1332 91.3188 9.57048C93.0336 8.00772 94.9932 6.61593 97.1979 5.39512C99.4026 4.1743 101.436 3.24634 103.298 2.61154C105.159 1.97674 106.727 1.56155 108.001 1.36626C109.275 1.17097 109.912 1.0586 109.912 1.0293Z" fill="white" stroke="white" stroke-width="1.12646"/>
</svg>
