<?xml version="1.0" standalone="no"?><!-- Generator: Gravit.io --><svg xmlns="http://www.w3.org/2000/svg" xmlns:xlink="http://www.w3.org/1999/xlink" style="isolation:isolate" viewBox="0 0 128 128" width="128" height="128"><defs><clipPath id="_clipPath_fiOctnIeAJL8x08ragErWJ0O5aw7djPe"><rect width="128" height="128"/></clipPath></defs><g clip-path="url(#_clipPath_fiOctnIeAJL8x08ragErWJ0O5aw7djPe)"><path d=" M 124.737 58.378 L 69.621 3.264 C 66.449 0.09 61.301 0.09 58.124 3.264 L 46.68 14.71 L 61.198 29.228 C 64.573 28.089 68.441 28.853 71.13 31.542 C 73.833 34.248 74.591 38.149 73.424 41.535 L 87.416 55.528 C 90.801 54.361 94.708 55.115 97.41 57.823 C 101.19 61.6 101.19 67.723 97.41 71.502 C 93.63 75.282 87.509 75.282 83.727 71.502 C 80.885 68.658 80.182 64.483 81.622 60.981 L 68.574 47.933 L 68.572 82.274 C 69.494 82.729 70.363 83.337 71.131 84.102 C 74.909 87.879 74.909 94 71.131 97.785 C 67.352 101.562 61.227 101.562 57.452 97.785 C 53.674 94.001 53.674 87.88 57.452 84.102 C 58.386 83.169 59.466 82.464 60.619 81.992 L 60.619 47.333 C 59.466 46.861 58.388 46.161 57.452 45.222 C 54.59 42.362 53.901 38.162 55.369 34.646 L 41.056 20.333 L 3.264 58.123 C 0.089 61.3 0.089 66.448 3.264 69.623 L 58.381 124.737 C 61.555 127.911 66.701 127.911 69.88 124.737 L 124.738 69.879 C 127.912 66.703 127.912 61.552 124.737 58.378 Z " fill="rgb(243,79,41)"/></g></svg>