<?xml version="1.0" standalone="no"?><!-- Generator: Gravit.io --><svg xmlns="http://www.w3.org/2000/svg" xmlns:xlink="http://www.w3.org/1999/xlink" style="isolation:isolate" viewBox="0 0 128 128" width="128" height="128"><defs><clipPath id="_clipPath_ZFGW3XYN15c6Z5Wty5JoCDGYI0UW1zdZ"><rect width="128" height="128"/></clipPath></defs><g clip-path="url(#_clipPath_ZFGW3XYN15c6Z5Wty5JoCDGYI0UW1zdZ)"><path d=" M 64 5.103 C 30.653 5.103 3.612 32.138 3.612 65.491 C 3.612 92.173 20.915 114.808 44.909 122.794 C 47.926 123.354 49.034 121.484 49.034 119.889 C 49.034 118.449 48.978 113.692 48.952 108.646 C 32.152 112.299 28.607 101.521 28.607 101.521 C 25.86 94.541 21.902 92.685 21.902 92.685 C 16.422 88.937 22.315 89.015 22.315 89.015 C 28.378 89.44 31.572 95.238 31.572 95.238 C 36.958 104.468 45.699 101.8 49.145 100.258 C 49.687 96.355 51.252 93.69 52.979 92.182 C 39.566 90.657 25.465 85.478 25.465 62.339 C 25.465 55.746 27.825 50.359 31.688 46.129 C 31.06 44.609 28.993 38.467 32.272 30.149 C 32.272 30.149 37.342 28.526 48.882 36.339 C 53.7 35 58.867 34.327 64 34.304 C 69.13 34.327 74.3 34.998 79.127 36.337 C 90.653 28.524 95.717 30.147 95.717 30.147 C 99.004 38.464 96.937 44.607 96.31 46.127 C 100.182 50.357 102.525 55.744 102.525 62.337 C 102.525 85.531 88.398 90.637 74.951 92.133 C 77.118 94.007 79.048 97.683 79.048 103.316 C 79.048 111.396 78.978 117.899 78.978 119.888 C 78.978 121.495 80.066 123.378 83.126 122.785 C 107.106 114.791 124.389 92.163 124.389 65.491 C 124.388 32.14 97.35 5.104 64 5.104 L 64 5.103 Z " fill-rule="evenodd" fill="rgb(255,255,255)"/><path d=" M 26.484 91.806 C 26.351 92.106 25.879 92.196 25.449 91.991 C 25.009 91.795 24.764 91.386 24.906 91.085 C 25.036 90.775 25.509 90.69 25.946 90.897 C 26.386 91.094 26.636 91.507 26.483 91.807 L 26.484 91.806 Z  M 28.93 94.535 C 28.643 94.802 28.08 94.678 27.698 94.255 C 27.302 93.835 27.228 93.272 27.521 93.001 C 27.819 92.735 28.365 92.861 28.761 93.281 C 29.155 93.707 29.233 94.265 28.931 94.536 L 28.93 94.535 Z  M 31.312 98.012 C 30.942 98.27 30.336 98.029 29.962 97.492 C 29.592 96.954 29.592 96.309 29.972 96.052 C 30.345 95.794 30.942 96.027 31.322 96.559 C 31.69 97.104 31.69 97.749 31.312 98.011 L 31.312 98.012 Z  M 34.573 101.373 C 34.243 101.738 33.537 101.64 33.021 101.143 C 32.494 100.656 32.347 99.963 32.678 99.599 C 33.014 99.233 33.723 99.335 34.242 99.829 C 34.769 100.315 34.928 101.009 34.575 101.372 L 34.573 101.373 Z  M 39.073 103.324 C 38.926 103.797 38.248 104.012 37.563 103.81 C 36.88 103.603 36.433 103.05 36.573 102.572 C 36.713 102.095 37.396 101.872 38.085 102.087 C 38.768 102.293 39.215 102.843 39.073 103.324 Z  M 44.016 103.685 C 44.033 104.183 43.453 104.595 42.736 104.605 C 42.013 104.622 41.428 104.218 41.421 103.728 C 41.421 103.225 41.989 102.818 42.711 102.804 C 43.428 102.791 44.017 103.191 44.017 103.684 L 44.016 103.685 Z  M 48.614 102.903 C 48.7 103.388 48.201 103.887 47.488 104.02 C 46.788 104.15 46.138 103.848 46.048 103.367 C 45.962 102.869 46.47 102.37 47.17 102.241 C 47.884 102.118 48.524 102.411 48.614 102.904 L 48.614 102.903 Z " fill="rgb(255,255,255)"/></g></svg>