<?xml version="1.0" standalone="no"?><!-- Generator: Gravit.io --><svg xmlns="http://www.w3.org/2000/svg" xmlns:xlink="http://www.w3.org/1999/xlink" style="isolation:isolate" viewBox="0 0 256 256" width="256" height="256"><defs><clipPath id="_clipPath_OcIMM8omfQxteVMDTWjNATtKYDjrbRiw"><rect width="256" height="256"/></clipPath></defs><g clip-path="url(#_clipPath_OcIMM8omfQxteVMDTWjNATtKYDjrbRiw)"><g><g><path d=" M 63.151 66.609 C 64.077 65.034 65.282 63.521 67.011 62.78 C 67.721 62.657 68.431 62.718 69.142 62.718 L 104.098 62.718 C 103.079 63.583 102.091 64.479 101.412 65.652 C 99.621 68.586 98.416 71.859 97.305 75.132 C 94.155 85.014 91.962 95.174 89.832 105.334 C 88.874 109.935 87.948 114.567 87.083 119.168 C 84.428 134.238 81.679 149.277 78.251 164.192 C 76.615 171.078 74.947 177.965 72.415 184.604 C 71.241 187.352 70.099 190.286 67.845 192.324 C 67.32 192.787 66.795 193.374 66.054 193.281 L 35.173 193.281 C 33.073 193.22 31.004 193.405 28.904 193.189 C 30.294 192.108 31.529 190.811 32.332 189.267 C 34.648 184.851 36.099 180.065 37.489 175.309 C 39.651 167.651 41.38 159.9 43.017 152.149 C 44.036 147.053 45.24 141.989 45.981 136.863 C 46.815 131.15 48.081 125.499 49.1 119.817 C 50.706 111.448 52.404 103.079 54.288 94.772 C 55.801 88.288 57.345 81.833 59.414 75.503 C 60.433 72.446 61.545 69.419 63.151 66.609 Z " fill="rgb(235,112,119)" vector-effect="non-scaling-stroke" stroke-width="0.094" stroke="rgb(235,112,119)" stroke-linejoin="miter" stroke-linecap="butt" stroke-miterlimit="4"/><path d=" M 104.098 62.718 C 104.994 62.718 105.89 62.688 106.785 62.718 C 108.761 63.768 110.429 65.436 111.355 67.505 C 112.591 69.852 113.61 72.322 114.536 74.854 C 117.624 84.397 119.724 94.217 121.824 104.006 C 123.615 112.776 125.313 121.577 126.919 130.409 C 127.043 130.872 126.888 131.52 127.506 131.644 C 125.283 143.255 123.09 154.897 120.311 166.415 C 118.798 172.622 117.192 178.798 114.907 184.789 C 113.671 187.785 112.405 191.058 109.78 193.189 C 108.113 193.559 106.909 192.293 105.89 191.151 C 104.129 188.896 103.048 186.241 101.999 183.585 C 98.509 174.074 96.378 164.161 94.217 154.279 C 92.58 146.59 91.129 138.839 89.615 131.119 C 88.936 127.197 88.01 123.337 87.485 119.415 C 87.392 119.353 87.176 119.23 87.083 119.168 C 87.948 114.567 88.874 109.935 89.832 105.334 C 91.962 95.174 94.155 85.014 97.305 75.132 C 98.416 71.859 99.621 68.586 101.412 65.652 C 102.091 64.479 103.079 63.583 104.098 62.718 Z " fill="rgb(246,162,173)" vector-effect="non-scaling-stroke" stroke-width="0.094" stroke="rgb(246,162,173)" stroke-linejoin="miter" stroke-linecap="butt" stroke-miterlimit="4"/><path d=" M 142.73 68.061 C 143.842 65.93 145.2 63.552 147.609 62.749 C 159.869 62.688 172.128 62.718 184.388 62.718 C 183.245 63.861 182.041 65.004 181.269 66.455 C 178.891 70.716 177.502 75.441 176.081 80.104 C 172.437 92.95 169.874 106.075 167.434 119.199 C 165.18 132.138 162.772 145.077 160.023 157.954 C 158.603 164.439 157.12 170.893 155.237 177.285 C 154.032 181.238 152.766 185.222 150.79 188.896 C 149.833 190.564 148.721 192.386 146.899 193.251 C 135.195 193.343 123.461 193.251 111.757 193.281 C 111.108 193.281 110.429 193.281 109.78 193.189 C 112.405 191.058 113.671 187.785 114.907 184.789 C 117.192 178.798 118.798 172.622 120.311 166.415 C 123.09 154.897 125.283 143.255 127.506 131.644 C 130.193 116.667 133.003 101.69 136.585 86.898 C 138.252 80.506 139.858 74.021 142.73 68.061 Z " fill="rgb(235,112,119)" vector-effect="non-scaling-stroke" stroke-width="0.094" stroke="rgb(235,112,119)" stroke-linejoin="miter" stroke-linecap="butt" stroke-miterlimit="4"/><path d=" M 184.388 62.718 C 185.376 62.718 186.395 62.688 187.383 62.718 C 188.989 63.552 190.132 64.973 191.151 66.424 C 192.818 69.08 193.868 72.075 194.949 75.009 C 197.512 82.883 199.427 90.974 201.187 99.065 C 203.534 109.966 205.572 120.928 207.579 131.891 C 208.073 134.516 208.567 137.171 208.876 139.827 C 209 139.951 209.247 140.198 209.339 140.29 C 208.228 141.834 207.795 143.687 207.178 145.447 C 205.232 151.716 203.966 158.201 202.885 164.655 C 202.052 169.72 200.909 174.753 199.334 179.632 C 198.161 183.245 196.74 186.827 194.393 189.854 C 193.282 191.305 191.768 192.417 190.101 193.158 C 187.538 193.436 186.025 190.965 184.789 189.143 C 182.226 184.666 180.837 179.663 179.354 174.784 C 174.475 156.719 171.295 138.221 167.867 119.847 C 167.836 119.57 167.682 119.322 167.434 119.199 C 169.874 106.075 172.437 92.95 176.081 80.104 C 177.502 75.441 178.891 70.716 181.269 66.455 C 182.041 65.004 183.245 63.861 184.388 62.718 Z " fill="rgb(246,162,173)" vector-effect="non-scaling-stroke" stroke-width="0.094" stroke="rgb(246,162,173)" stroke-linejoin="miter" stroke-linecap="butt" stroke-miterlimit="4"/><path d=" M 0 132.972 C 0.803 132.91 1.606 132.786 2.44 132.786 L 36.099 132.786 C 37.52 132.972 39.002 132.848 40.361 133.466 C 42.337 134.269 44.097 135.627 45.394 137.326 C 45.549 137.233 45.827 136.986 45.981 136.863 C 45.24 141.989 44.036 147.053 43.017 152.149 C 41.38 159.9 39.651 167.651 37.489 175.309 C 36.099 180.065 34.648 184.851 32.332 189.267 C 31.529 190.811 30.294 192.108 28.904 193.189 C 28.379 193.281 27.978 192.911 27.545 192.633 C 26.094 191.707 25.26 190.101 24.365 188.649 C 20.134 179.015 19.671 168.361 17.046 158.294 C 15.718 153.26 14.082 148.258 11.673 143.626 C 10.191 140.846 8.369 138.191 5.991 136.06 C 4.231 134.639 2.193 133.497 0 132.972 Z " fill="rgb(246,162,173)" vector-effect="non-scaling-stroke" stroke-width="0.094" stroke="rgb(246,162,173)" stroke-linejoin="miter" stroke-linecap="butt" stroke-miterlimit="4"/><path d=" M 212.057 136.183 C 214.002 133.991 216.905 132.601 219.839 132.725 L 245.161 132.725 C 248.681 132.786 252.233 132.601 255.753 132.817 C 254.703 133.528 253.437 133.805 252.325 134.392 C 248.465 136.152 245.161 139.086 243.061 142.761 C 239.695 148.628 238.522 155.36 237.533 161.969 C 236.545 168.453 236.576 175.155 234.476 181.454 C 233.056 185.87 230.894 190.317 227.158 193.22 C 215.546 193.343 203.935 193.251 192.355 193.281 C 191.583 193.281 190.842 193.312 190.101 193.158 C 191.768 192.417 193.282 191.305 194.393 189.854 C 196.74 186.827 198.161 183.245 199.334 179.632 C 200.909 174.753 202.052 169.72 202.885 164.655 C 203.966 158.201 205.232 151.716 207.178 145.447 C 207.795 143.687 208.228 141.834 209.339 140.29 C 210.266 138.932 210.883 137.357 212.057 136.183 Z " fill="rgb(235,112,119)" vector-effect="non-scaling-stroke" stroke-width="0.094" stroke="rgb(235,112,119)" stroke-linejoin="miter" stroke-linecap="butt" stroke-miterlimit="4"/></g></g></g></svg>