<svg xmlns="http://www.w3.org/2000/svg" style="isolation:isolate" width="256" height="256"><defs><clipPath id="a"><path d="M0 0h256v256H0z"/></clipPath></defs><g stroke-width=".094" clip-path="url(#a)"><path d="M63.151 66.609c.926-1.575 2.131-3.088 3.86-3.829.71-.123 1.42-.062 2.131-.062h34.956c-1.019.865-2.007 1.761-2.686 2.934-1.791 2.934-2.996 6.207-4.107 9.48-3.15 9.882-5.343 20.042-7.473 30.202a726.992 726.992 0 0 0-2.749 13.834c-2.655 15.07-5.404 30.109-8.832 45.024-1.636 6.886-3.304 13.773-5.836 20.412-1.174 2.748-2.316 5.682-4.57 7.72-.525.463-1.05 1.05-1.791.957H35.173c-2.1-.061-4.169.124-6.269-.092 1.39-1.081 2.625-2.378 3.428-3.922 2.316-4.416 3.767-9.202 5.157-13.958 2.162-7.658 3.891-15.409 5.528-23.16 1.019-5.096 2.223-10.16 2.964-15.286.834-5.713 2.1-11.364 3.119-17.046 1.606-8.369 3.304-16.738 5.188-25.045 1.513-6.484 3.057-12.939 5.126-19.269 1.019-3.057 2.131-6.084 3.737-8.894z" fill="#EB7077" vector-effect="non-scaling-stroke" stroke="#EB7077"/><path d="M104.098 62.718c.896 0 1.792-.03 2.687 0 1.976 1.05 3.644 2.718 4.57 4.787 1.236 2.347 2.255 4.817 3.181 7.349 3.088 9.543 5.188 19.363 7.288 29.152 1.791 8.77 3.489 17.571 5.095 26.403.124.463-.031 1.111.587 1.235-2.223 11.611-4.416 23.253-7.195 34.771-1.513 6.207-3.119 12.383-5.404 18.374-1.236 2.996-2.502 6.269-5.127 8.4-1.667.37-2.871-.896-3.89-2.038-1.761-2.255-2.842-4.91-3.891-7.566-3.49-9.511-5.621-19.424-7.782-29.306-1.637-7.689-3.088-15.44-4.602-23.16-.679-3.922-1.605-7.782-2.13-11.704-.093-.062-.309-.185-.402-.247a726.992 726.992 0 0 1 2.749-13.834c2.13-10.16 4.323-20.32 7.473-30.202 1.111-3.273 2.316-6.546 4.107-9.48.679-1.173 1.667-2.069 2.686-2.934z" fill="#F6A2AD" vector-effect="non-scaling-stroke" stroke="#F6A2AD"/><path d="M142.73 68.061c1.112-2.131 2.47-4.509 4.879-5.312 12.26-.061 24.519-.031 36.779-.031-1.143 1.143-2.347 2.286-3.119 3.737-2.378 4.261-3.767 8.986-5.188 13.649-3.644 12.846-6.207 25.971-8.647 39.095-2.254 12.939-4.662 25.878-7.411 38.755-1.42 6.485-2.903 12.939-4.786 19.331-1.205 3.953-2.471 7.937-4.447 11.611-.957 1.668-2.069 3.49-3.891 4.355-11.704.092-23.438 0-35.142.03-.649 0-1.328 0-1.977-.092 2.625-2.131 3.891-5.404 5.127-8.4 2.285-5.991 3.891-12.167 5.404-18.374 2.779-11.518 4.972-23.16 7.195-34.771 2.687-14.977 5.497-29.954 9.079-44.746 1.667-6.392 3.273-12.877 6.145-18.837z" fill="#EB7077" vector-effect="non-scaling-stroke" stroke="#EB7077"/><path d="M184.388 62.718c.988 0 2.007-.03 2.995 0 1.606.834 2.749 2.255 3.768 3.706 1.667 2.656 2.717 5.651 3.798 8.585 2.563 7.874 4.478 15.965 6.238 24.056 2.347 10.901 4.385 21.863 6.392 32.826.494 2.625.988 5.28 1.297 7.936l.463.463c-1.111 1.544-1.544 3.397-2.161 5.157-1.946 6.269-3.212 12.754-4.293 19.208-.833 5.065-1.976 10.098-3.551 14.977-1.173 3.613-2.594 7.195-4.941 10.222-1.111 1.451-2.625 2.563-4.292 3.304-2.563.278-4.076-2.193-5.312-4.015-2.563-4.477-3.952-9.48-5.435-14.359-4.879-18.065-8.059-36.563-11.487-54.937a.811.811 0 0 0-.433-.648c2.44-13.124 5.003-26.249 8.647-39.095 1.421-4.663 2.81-9.388 5.188-13.649.772-1.451 1.976-2.594 3.119-3.737zM0 132.972c.803-.062 1.606-.186 2.44-.186h33.659c1.421.186 2.903.062 4.262.68a12.14 12.14 0 0 1 5.033 3.86c.155-.093.433-.34.587-.463-.741 5.126-1.945 10.19-2.964 15.286-1.637 7.751-3.366 15.502-5.528 23.16-1.39 4.756-2.841 9.542-5.157 13.958-.803 1.544-2.038 2.841-3.428 3.922-.525.092-.926-.278-1.359-.556-1.451-.926-2.285-2.532-3.18-3.984-4.231-9.634-4.694-20.288-7.319-30.355-1.328-5.034-2.964-10.036-5.373-14.668-1.482-2.78-3.304-5.435-5.682-7.566-1.76-1.421-3.798-2.563-5.991-3.088z" fill="#F6A2AD" vector-effect="non-scaling-stroke" stroke="#F6A2AD"/><path d="M212.057 136.183c1.945-2.192 4.848-3.582 7.782-3.458h25.322c3.52.061 7.072-.124 10.592.092-1.05.711-2.316.988-3.428 1.575-3.86 1.76-7.164 4.694-9.264 8.369-3.366 5.867-4.539 12.599-5.528 19.208-.988 6.484-.957 13.186-3.057 19.485-1.42 4.416-3.582 8.863-7.318 11.766-11.612.123-23.223.031-34.803.061-.772 0-1.513.031-2.254-.123 1.667-.741 3.181-1.853 4.292-3.304 2.347-3.027 3.768-6.609 4.941-10.222 1.575-4.879 2.718-9.912 3.551-14.977 1.081-6.454 2.347-12.939 4.293-19.208.617-1.76 1.05-3.613 2.161-5.157.927-1.358 1.544-2.933 2.718-4.107z" fill="#EB7077" vector-effect="non-scaling-stroke" stroke="#EB7077"/></g></svg>