<?xml version="1.0" standalone="no"?><!-- Generator: Gravit.io --><svg xmlns="http://www.w3.org/2000/svg" xmlns:xlink="http://www.w3.org/1999/xlink" style="isolation:isolate" viewBox="0 0 261 260" width="261" height="260"><defs><clipPath id="_clipPath_JdRqHjh8JHztfALGY0P9vLMNdCo8Bzma"><rect width="261" height="260"/></clipPath></defs><g clip-path="url(#_clipPath_JdRqHjh8JHztfALGY0P9vLMNdCo8Bzma)"><path d=" M 195.475 -0.006 L 195.475 223.297 L 0.496 194.338 L 195.475 259.992 L 260.475 232.953 L 260.475 31.064 L 260.496 31.055 L 260.475 31.012 L 260.475 27.035 L 195.475 -0.006 L 195.475 -0.006 Z " fill-rule="evenodd" fill="rgb(0,122,204)"/><path d=" M 127.242 38.037 L 67.521 97.07 L 31.566 69.992 L 16.748 74.941 L 53.328 111.102 L 16.748 147.26 L 31.566 152.211 L 67.521 125.131 L 67.523 125.131 L 127.24 184.16 L 163.008 168.963 L 163.008 53.234 L 127.242 38.037 L 127.242 38.037 Z  M 127.24 80.158 L 127.24 142.037 L 86.154 111.098 L 127.24 80.158 L 127.24 80.158 Z " fill-rule="evenodd" fill="rgb(0,122,204)"/></g></svg>