<svg width="476" height="465" viewBox="0 0 476 465" fill="none" xmlns="http://www.w3.org/2000/svg">
<circle cx="238" cy="283" r="32" fill="black"/>
<circle cx="238" cy="283" r="171.5" stroke="black" stroke-dasharray="10 10"/>
<g filter="url(#filter0_d)">
<ellipse cx="66" cy="354" rx="62" ry="61" fill="white"/>
</g>
<g filter="url(#filter1_d)">
<ellipse cx="238" cy="111" rx="62" ry="61" fill="white"/>
</g>
<path d="M239.004 118.481C243.153 118.481 246.517 115.132 246.517 111C246.517 106.868 243.153 103.519 239.004 103.519C234.855 103.519 231.491 106.868 231.491 111C231.491 115.132 234.855 118.481 239.004 118.481Z" fill="#61DAFB"/>
<path d="M267.54 98.6625C266.09 98.1375 264.574 97.6125 262.993 97.1531C263.388 95.5781 263.717 94.0031 263.981 92.4937C265.365 83.8312 263.849 77.7281 259.632 75.3656C258.379 74.6437 256.995 74.3156 255.414 74.3156C250.801 74.3156 244.935 77.7281 239.004 83.4375C233.073 77.7281 227.208 74.3156 222.595 74.3156C221.013 74.3156 219.629 74.6437 218.377 75.3656C214.159 77.7937 212.643 83.8969 214.027 92.4937C214.291 94.0031 214.621 95.5781 215.016 97.1531C213.434 97.6125 211.919 98.0719 210.469 98.6625C202.231 101.812 197.75 106.144 197.75 111C197.75 115.856 202.297 120.187 210.469 123.337C211.919 123.862 213.434 124.387 215.016 124.847C214.621 126.422 214.291 127.997 214.027 129.506C212.643 138.169 214.159 144.272 218.377 146.634C219.629 147.356 221.013 147.684 222.595 147.684C227.274 147.684 233.139 144.272 239.004 138.562C244.935 144.272 250.801 147.684 255.414 147.684C256.995 147.684 258.379 147.356 259.632 146.634C263.849 144.206 265.365 138.103 263.981 129.506C263.717 127.997 263.388 126.422 262.993 124.847C264.574 124.387 266.09 123.928 267.54 123.337C275.778 120.187 280.259 115.856 280.259 111C280.259 106.144 275.778 101.812 267.54 98.6625V98.6625ZM257.786 78.6469C260.488 80.2219 261.411 85.0781 260.291 91.9687C260.093 93.3469 259.763 94.7906 259.368 96.3C255.941 95.5125 252.316 94.9875 248.494 94.6594C246.253 91.5094 243.947 88.6875 241.64 86.1281C246.517 81.3375 251.46 78.0562 255.48 78.0562C256.336 78.0562 257.127 78.2531 257.786 78.6469V78.6469ZM250.405 117.562C249.219 119.662 247.835 121.762 246.385 123.862C243.947 124.059 241.509 124.125 239.004 124.125C236.434 124.125 233.996 124.059 231.623 123.862C230.173 121.762 228.855 119.662 227.669 117.562C226.417 115.397 225.231 113.166 224.176 111C225.231 108.834 226.417 106.603 227.669 104.437C228.855 102.337 230.239 100.237 231.689 98.1375C234.127 97.9406 236.566 97.875 239.07 97.875C241.64 97.875 244.079 97.9406 246.451 98.1375C247.901 100.237 249.219 102.337 250.405 104.437C251.657 106.603 252.844 108.834 253.898 111C252.778 113.166 251.657 115.331 250.405 117.562ZM255.875 115.397C256.864 117.694 257.654 119.925 258.379 122.156C256.139 122.681 253.766 123.075 251.262 123.403C252.053 122.156 252.91 120.844 253.634 119.466C254.425 118.087 255.15 116.709 255.875 115.397ZM239.004 133.181C237.423 131.475 235.907 129.637 234.457 127.734C235.973 127.8 237.488 127.866 239.004 127.866C240.52 127.866 242.036 127.8 243.551 127.734C242.102 129.637 240.586 131.475 239.004 133.181ZM226.746 123.337C224.242 123.009 221.87 122.616 219.629 122.091C220.354 119.925 221.145 117.628 222.133 115.331C222.858 116.644 223.583 118.022 224.374 119.334C225.165 120.778 225.956 122.025 226.746 123.337V123.337ZM222.133 106.603C221.145 104.306 220.354 102.075 219.629 99.8437C221.87 99.3187 224.242 98.925 226.746 98.5969C225.956 99.8437 225.099 101.156 224.374 102.534C223.583 103.912 222.858 105.291 222.133 106.603V106.603ZM239.004 88.8187C240.586 90.525 242.102 92.3625 243.551 94.2656C242.036 94.2 240.52 94.1344 239.004 94.1344C237.488 94.1344 235.973 94.2 234.457 94.2656C235.907 92.3625 237.423 90.525 239.004 88.8187ZM253.634 102.6L251.262 98.6625C253.766 98.9906 256.139 99.3844 258.379 99.9094C257.654 102.075 256.864 104.372 255.875 106.669C255.15 105.291 254.425 103.912 253.634 102.6ZM217.718 91.9687C216.598 85.0781 217.52 80.2219 220.222 78.6469C220.881 78.2531 221.672 78.0562 222.529 78.0562C226.483 78.0562 231.426 81.2719 236.368 86.1281C234.062 88.6219 231.755 91.5094 229.514 94.6594C225.692 94.9875 222.067 95.5781 218.641 96.3C218.245 94.7906 217.982 93.3469 217.718 91.9687V91.9687ZM201.44 111C201.44 107.916 205.197 104.634 211.787 102.206C213.105 101.681 214.555 101.222 216.004 100.828C217.059 104.109 218.377 107.587 219.959 111.066C218.377 114.544 216.993 117.956 216.004 121.237C206.91 118.612 201.44 114.675 201.44 111ZM220.222 143.353C217.52 141.778 216.598 136.922 217.718 130.031C217.916 128.653 218.245 127.209 218.641 125.7C222.067 126.487 225.692 127.012 229.514 127.341C231.755 130.491 234.062 133.312 236.368 135.872C231.491 140.662 226.549 143.944 222.529 143.944C221.672 143.944 220.881 143.747 220.222 143.353ZM260.291 130.031C261.411 136.922 260.488 141.778 257.786 143.353C257.127 143.747 256.336 143.944 255.48 143.944C251.526 143.944 246.583 140.728 241.64 135.872C243.947 133.378 246.253 130.491 248.494 127.341C252.316 127.012 255.941 126.422 259.368 125.7C259.763 127.209 260.027 128.653 260.291 130.031V130.031ZM266.222 119.794C264.904 120.319 263.454 120.778 262.004 121.172C260.95 117.891 259.632 114.412 258.05 110.934C259.632 107.456 261.015 104.044 262.004 100.762C271.098 103.387 276.568 107.325 276.568 111C276.568 114.084 272.746 117.366 266.222 119.794Z" fill="#61DAFB"/>
<g filter="url(#filter2_d)">
<ellipse cx="410" cy="354" rx="62" ry="61" fill="white"/>
</g>
<path d="M385.061 326.164L400.156 326.17L410.023 342.549L419.856 326.171L434.937 326.167L410.098 369.254L385.061 326.164Z" fill="#35495E"/>
<path d="M368.597 326.28L385.047 326.167L410.083 369.255L434.924 326.169L451.403 326.186L410.081 397.101L368.597 326.28Z" fill="#41B883"/>
<path d="M33.6495 321.649H98.3505V386.35H33.6495V321.649Z" fill="#F0DB4F"/>
<path d="M93.0552 370.919C92.5814 367.968 90.6566 365.488 84.9551 363.176C82.9746 362.266 80.7669 361.614 80.1087 360.114C79.8751 359.24 79.8443 358.748 79.9919 358.219C80.4165 356.504 82.4647 355.968 84.0882 356.46C85.1336 356.811 86.1233 357.617 86.7204 358.902C89.5121 357.094 89.5062 357.106 91.4559 355.864C90.7426 354.757 90.3613 354.246 89.8941 353.773C88.2147 351.897 85.927 350.931 82.2678 351.005L80.3614 351.252C78.535 351.713 76.794 352.672 75.7735 353.957C72.7108 357.433 73.5843 363.515 77.3111 366.018C80.9828 368.773 86.3766 369.401 87.0656 371.977C87.7357 375.133 84.7471 376.154 81.7763 375.791C79.587 375.335 78.369 374.223 77.0526 372.199C74.6297 373.602 74.6297 373.602 72.1386 375.034C72.7292 376.326 73.35 376.91 74.3403 378.029C79.0272 382.783 90.7551 382.549 92.859 375.354C92.9443 375.107 93.5107 373.459 93.0552 370.919V370.919ZM68.8232 351.386H62.7713L62.7463 367.032C62.7463 370.36 62.9189 373.41 62.3775 374.345C61.4922 376.184 59.198 375.955 58.1526 375.599C57.0881 375.076 56.5467 374.333 55.92 373.281C55.7481 372.979 55.6188 372.746 55.5755 372.727L50.6549 375.741C51.4733 377.42 52.6781 378.878 54.2223 379.824C56.5283 381.208 59.6278 381.633 62.8697 380.889C64.9795 380.274 66.7993 379.001 67.7528 377.063C69.1303 374.523 68.835 371.448 68.8225 368.048C68.8534 362.499 68.8232 356.952 68.8232 351.386V351.386Z" fill="#323330"/>
<path d="M200.359 27.532V34H196.303V16.516H201.991C203.255 16.516 204.331 16.648 205.219 16.912C206.115 17.168 206.843 17.528 207.403 17.992C207.971 18.456 208.383 19.004 208.639 19.636C208.895 20.268 209.023 20.956 209.023 21.7C209.023 22.268 208.947 22.804 208.795 23.308C208.643 23.812 208.415 24.28 208.111 24.712C207.815 25.136 207.447 25.516 207.007 25.852C206.575 26.188 206.075 26.464 205.507 26.68C205.779 26.816 206.031 26.984 206.263 27.184C206.503 27.384 206.711 27.628 206.887 27.916L210.607 34H206.935C206.255 34 205.767 33.744 205.471 33.232L202.567 28.156C202.439 27.932 202.287 27.772 202.111 27.676C201.943 27.58 201.703 27.532 201.391 27.532H200.359ZM200.359 24.736H201.991C202.543 24.736 203.011 24.668 203.395 24.532C203.787 24.388 204.107 24.192 204.355 23.944C204.603 23.696 204.783 23.408 204.895 23.08C205.007 22.744 205.063 22.384 205.063 22C205.063 21.232 204.811 20.632 204.307 20.2C203.811 19.768 203.039 19.552 201.991 19.552H200.359V24.736ZM217.592 21.364C218.416 21.364 219.168 21.492 219.848 21.748C220.536 22.004 221.124 22.376 221.612 22.864C222.108 23.352 222.492 23.952 222.764 24.664C223.044 25.368 223.184 26.168 223.184 27.064C223.184 27.344 223.172 27.572 223.148 27.748C223.124 27.924 223.08 28.064 223.016 28.168C222.952 28.272 222.864 28.344 222.752 28.384C222.648 28.424 222.512 28.444 222.344 28.444H215.168C215.288 29.484 215.604 30.24 216.116 30.712C216.628 31.176 217.288 31.408 218.096 31.408C218.528 31.408 218.9 31.356 219.212 31.252C219.524 31.148 219.8 31.032 220.04 30.904C220.288 30.776 220.512 30.66 220.712 30.556C220.92 30.452 221.136 30.4 221.36 30.4C221.656 30.4 221.88 30.508 222.032 30.724L223.112 32.056C222.728 32.496 222.312 32.856 221.864 33.136C221.424 33.408 220.968 33.624 220.496 33.784C220.032 33.936 219.564 34.04 219.092 34.096C218.628 34.16 218.184 34.192 217.76 34.192C216.888 34.192 216.068 34.052 215.3 33.772C214.54 33.484 213.872 33.06 213.296 32.5C212.728 31.94 212.276 31.244 211.94 30.412C211.612 29.58 211.448 28.612 211.448 27.508C211.448 26.676 211.588 25.888 211.868 25.144C212.156 24.4 212.564 23.748 213.092 23.188C213.628 22.628 214.272 22.184 215.024 21.856C215.784 21.528 216.64 21.364 217.592 21.364ZM217.664 23.932C216.952 23.932 216.396 24.136 215.996 24.544C215.596 24.944 215.332 25.524 215.204 26.284H219.848C219.848 25.988 219.808 25.7 219.728 25.42C219.656 25.14 219.532 24.892 219.356 24.676C219.188 24.452 218.964 24.272 218.684 24.136C218.404 24 218.064 23.932 217.664 23.932ZM233.911 34C233.559 34 233.291 33.952 233.107 33.856C232.931 33.76 232.783 33.56 232.663 33.256L232.399 32.572C232.087 32.836 231.787 33.068 231.499 33.268C231.211 33.468 230.911 33.64 230.599 33.784C230.295 33.92 229.967 34.02 229.615 34.084C229.271 34.156 228.887 34.192 228.463 34.192C227.895 34.192 227.379 34.12 226.915 33.976C226.451 33.824 226.055 33.604 225.727 33.316C225.407 33.028 225.159 32.672 224.983 32.248C224.807 31.816 224.719 31.32 224.719 30.76C224.719 30.32 224.831 29.868 225.055 29.404C225.279 28.94 225.667 28.52 226.219 28.144C226.771 27.76 227.515 27.44 228.451 27.184C229.387 26.928 230.567 26.784 231.991 26.752V26.224C231.991 25.496 231.839 24.972 231.535 24.652C231.239 24.324 230.815 24.16 230.263 24.16C229.823 24.16 229.463 24.208 229.183 24.304C228.903 24.4 228.651 24.508 228.427 24.628C228.211 24.748 227.999 24.856 227.791 24.952C227.583 25.048 227.335 25.096 227.047 25.096C226.791 25.096 226.571 25.036 226.387 24.916C226.211 24.788 226.071 24.632 225.967 24.448L225.295 23.284C226.047 22.62 226.879 22.128 227.791 21.808C228.711 21.48 229.695 21.316 230.743 21.316C231.495 21.316 232.171 21.44 232.771 21.688C233.379 21.928 233.891 22.268 234.307 22.708C234.731 23.14 235.055 23.656 235.279 24.256C235.503 24.856 235.615 25.512 235.615 26.224V34H233.911ZM229.639 31.732C230.119 31.732 230.539 31.648 230.899 31.48C231.259 31.312 231.623 31.04 231.991 30.664V28.936C231.247 28.968 230.635 29.032 230.155 29.128C229.675 29.224 229.295 29.344 229.015 29.488C228.735 29.632 228.539 29.796 228.427 29.98C228.323 30.164 228.271 30.364 228.271 30.58C228.271 31.004 228.387 31.304 228.619 31.48C228.851 31.648 229.191 31.732 229.639 31.732ZM247.232 24.508C247.12 24.644 247.012 24.752 246.908 24.832C246.804 24.912 246.656 24.952 246.464 24.952C246.28 24.952 246.112 24.908 245.96 24.82C245.816 24.732 245.652 24.636 245.468 24.532C245.284 24.42 245.068 24.32 244.82 24.232C244.572 24.144 244.264 24.1 243.896 24.1C243.44 24.1 243.044 24.184 242.708 24.352C242.38 24.52 242.108 24.76 241.892 25.072C241.676 25.384 241.516 25.768 241.412 26.224C241.308 26.672 241.256 27.18 241.256 27.748C241.256 28.94 241.484 29.856 241.94 30.496C242.404 31.136 243.04 31.456 243.848 31.456C244.28 31.456 244.62 31.404 244.868 31.3C245.124 31.188 245.34 31.068 245.516 30.94C245.692 30.804 245.852 30.68 245.996 30.568C246.148 30.456 246.336 30.4 246.56 30.4C246.856 30.4 247.08 30.508 247.232 30.724L248.312 32.056C247.928 32.496 247.524 32.856 247.1 33.136C246.676 33.408 246.24 33.624 245.792 33.784C245.352 33.936 244.908 34.04 244.46 34.096C244.012 34.16 243.576 34.192 243.152 34.192C242.392 34.192 241.664 34.048 240.968 33.76C240.28 33.472 239.672 33.056 239.144 32.512C238.624 31.96 238.208 31.284 237.896 30.484C237.592 29.684 237.44 28.772 237.44 27.748C237.44 26.852 237.572 26.016 237.836 25.24C238.108 24.456 238.504 23.78 239.024 23.212C239.552 22.636 240.2 22.184 240.968 21.856C241.744 21.528 242.64 21.364 243.656 21.364C244.632 21.364 245.488 21.52 246.224 21.832C246.96 22.144 247.624 22.6 248.216 23.2L247.232 24.508ZM254.296 34.192C253.704 34.192 253.18 34.108 252.724 33.94C252.276 33.764 251.896 33.52 251.584 33.208C251.28 32.888 251.048 32.504 250.888 32.056C250.728 31.608 250.648 31.108 250.648 30.556V24.124H249.592C249.4 24.124 249.236 24.064 249.1 23.944C248.964 23.816 248.896 23.632 248.896 23.392V21.94L250.876 21.556L251.608 18.52C251.704 18.136 251.976 17.944 252.424 17.944H254.368V21.58H257.392V24.124H254.368V30.304C254.368 30.592 254.436 30.832 254.572 31.024C254.716 31.208 254.92 31.3 255.184 31.3C255.32 31.3 255.432 31.288 255.52 31.264C255.616 31.232 255.696 31.2 255.76 31.168C255.832 31.128 255.896 31.096 255.952 31.072C256.016 31.04 256.088 31.024 256.168 31.024C256.28 31.024 256.368 31.052 256.432 31.108C256.504 31.156 256.576 31.236 256.648 31.348L257.776 33.112C257.296 33.472 256.756 33.744 256.156 33.928C255.556 34.104 254.936 34.192 254.296 34.192ZM258.818 32.116C258.818 31.828 258.87 31.56 258.974 31.312C259.086 31.064 259.234 30.848 259.418 30.664C259.61 30.48 259.834 30.336 260.09 30.232C260.346 30.12 260.626 30.064 260.93 30.064C261.226 30.064 261.502 30.12 261.758 30.232C262.014 30.336 262.238 30.48 262.43 30.664C262.622 30.848 262.77 31.064 262.874 31.312C262.986 31.56 263.042 31.828 263.042 32.116C263.042 32.404 262.986 32.676 262.874 32.932C262.77 33.18 262.622 33.396 262.43 33.58C262.238 33.764 262.014 33.908 261.758 34.012C261.502 34.116 261.226 34.168 260.93 34.168C260.626 34.168 260.346 34.116 260.09 34.012C259.834 33.908 259.61 33.764 259.418 33.58C259.234 33.396 259.086 33.18 258.974 32.932C258.87 32.676 258.818 32.404 258.818 32.116ZM269.05 21.556V34.024C269.05 34.608 268.974 35.156 268.822 35.668C268.678 36.188 268.434 36.64 268.09 37.024C267.754 37.416 267.306 37.724 266.746 37.948C266.194 38.172 265.506 38.284 264.682 38.284C264.378 38.284 264.094 38.264 263.83 38.224C263.574 38.192 263.306 38.14 263.026 38.068L263.146 36.112C263.162 35.944 263.218 35.82 263.314 35.74C263.41 35.66 263.602 35.62 263.89 35.62C264.178 35.62 264.414 35.596 264.598 35.548C264.782 35.5 264.926 35.416 265.03 35.296C265.142 35.176 265.218 35.012 265.258 34.804C265.306 34.604 265.33 34.344 265.33 34.024V21.556H269.05ZM269.482 18.148C269.482 18.444 269.422 18.724 269.302 18.988C269.182 19.244 269.018 19.472 268.81 19.672C268.602 19.864 268.358 20.02 268.078 20.14C267.806 20.252 267.514 20.308 267.202 20.308C266.898 20.308 266.614 20.252 266.35 20.14C266.086 20.02 265.85 19.864 265.642 19.672C265.442 19.472 265.282 19.244 265.162 18.988C265.05 18.724 264.994 18.444 264.994 18.148C264.994 17.844 265.05 17.56 265.162 17.296C265.282 17.032 265.442 16.8 265.642 16.6C265.85 16.4 266.086 16.244 266.35 16.132C266.614 16.02 266.898 15.964 267.202 15.964C267.514 15.964 267.806 16.02 268.078 16.132C268.358 16.244 268.602 16.4 268.81 16.6C269.018 16.8 269.182 17.032 269.302 17.296C269.422 17.56 269.482 17.844 269.482 18.148ZM279.614 24.28C279.518 24.432 279.414 24.54 279.302 24.604C279.198 24.668 279.062 24.7 278.894 24.7C278.718 24.7 278.542 24.664 278.366 24.592C278.19 24.512 277.998 24.428 277.79 24.34C277.59 24.252 277.362 24.172 277.106 24.1C276.85 24.02 276.558 23.98 276.23 23.98C275.758 23.98 275.394 24.072 275.138 24.256C274.89 24.432 274.766 24.68 274.766 25C274.766 25.232 274.846 25.424 275.006 25.576C275.174 25.728 275.394 25.864 275.666 25.984C275.938 26.096 276.246 26.204 276.59 26.308C276.934 26.412 277.286 26.528 277.646 26.656C278.006 26.784 278.358 26.936 278.702 27.112C279.046 27.28 279.354 27.492 279.626 27.748C279.898 27.996 280.114 28.3 280.274 28.66C280.442 29.02 280.526 29.452 280.526 29.956C280.526 30.572 280.414 31.14 280.19 31.66C279.966 32.18 279.63 32.628 279.182 33.004C278.742 33.38 278.194 33.672 277.538 33.88C276.89 34.088 276.142 34.192 275.294 34.192C274.87 34.192 274.446 34.152 274.022 34.072C273.598 33.992 273.186 33.884 272.786 33.748C272.394 33.612 272.03 33.452 271.694 33.268C271.358 33.076 271.07 32.872 270.83 32.656L271.694 31.288C271.798 31.128 271.922 31.004 272.066 30.916C272.21 30.82 272.398 30.772 272.63 30.772C272.846 30.772 273.038 30.82 273.206 30.916C273.382 31.012 273.57 31.116 273.77 31.228C273.97 31.34 274.202 31.444 274.466 31.54C274.738 31.636 275.078 31.684 275.486 31.684C275.774 31.684 276.018 31.656 276.218 31.6C276.418 31.536 276.578 31.452 276.698 31.348C276.818 31.244 276.906 31.128 276.962 31C277.018 30.872 277.046 30.74 277.046 30.604C277.046 30.356 276.962 30.152 276.794 29.992C276.626 29.832 276.406 29.696 276.134 29.584C275.862 29.464 275.55 29.356 275.198 29.26C274.854 29.156 274.502 29.04 274.142 28.912C273.782 28.784 273.426 28.632 273.074 28.456C272.73 28.272 272.422 28.044 272.15 27.772C271.878 27.492 271.658 27.152 271.49 26.752C271.322 26.352 271.238 25.868 271.238 25.3C271.238 24.772 271.338 24.272 271.538 23.8C271.746 23.32 272.054 22.9 272.462 22.54C272.87 22.18 273.382 21.896 273.998 21.688C274.614 21.472 275.334 21.364 276.158 21.364C276.606 21.364 277.038 21.404 277.454 21.484C277.878 21.564 278.274 21.676 278.642 21.82C279.01 21.964 279.346 22.136 279.65 22.336C279.954 22.528 280.222 22.74 280.454 22.972L279.614 24.28Z" fill="black"/>
<path d="M15.9269 442.664C15.9269 443.64 15.8029 444.528 15.5549 445.328C15.3149 446.128 14.9469 446.816 14.4509 447.392C13.9629 447.96 13.3469 448.404 12.6029 448.724C11.8589 449.036 10.9829 449.192 9.97488 449.192C9.51888 449.192 9.06688 449.168 8.61888 449.12C8.17888 449.072 7.71888 448.992 7.23888 448.88L7.45488 446.516C7.47088 446.308 7.55088 446.14 7.69488 446.012C7.84688 445.884 8.05488 445.82 8.31888 445.82C8.45488 445.82 8.62288 445.844 8.82288 445.892C9.02288 445.932 9.26288 445.952 9.54288 445.952C9.93488 445.952 10.2749 445.9 10.5629 445.796C10.8589 445.684 11.1029 445.504 11.2949 445.256C11.4869 445 11.6309 444.668 11.7269 444.26C11.8229 443.852 11.8709 443.348 11.8709 442.748V431.516H15.9269V442.664ZM27.3914 449C27.0394 449 26.7714 448.952 26.5874 448.856C26.4114 448.76 26.2634 448.56 26.1434 448.256L25.8794 447.572C25.5674 447.836 25.2674 448.068 24.9794 448.268C24.6914 448.468 24.3914 448.64 24.0794 448.784C23.7754 448.92 23.4474 449.02 23.0954 449.084C22.7514 449.156 22.3674 449.192 21.9434 449.192C21.3754 449.192 20.8594 449.12 20.3954 448.976C19.9314 448.824 19.5354 448.604 19.2074 448.316C18.8874 448.028 18.6394 447.672 18.4634 447.248C18.2874 446.816 18.1994 446.32 18.1994 445.76C18.1994 445.32 18.3114 444.868 18.5354 444.404C18.7594 443.94 19.1474 443.52 19.6994 443.144C20.2514 442.76 20.9954 442.44 21.9314 442.184C22.8674 441.928 24.0474 441.784 25.4714 441.752V441.224C25.4714 440.496 25.3194 439.972 25.0154 439.652C24.7194 439.324 24.2954 439.16 23.7434 439.16C23.3034 439.16 22.9434 439.208 22.6634 439.304C22.3834 439.4 22.1314 439.508 21.9074 439.628C21.6914 439.748 21.4794 439.856 21.2714 439.952C21.0634 440.048 20.8154 440.096 20.5274 440.096C20.2714 440.096 20.0514 440.036 19.8674 439.916C19.6914 439.788 19.5514 439.632 19.4474 439.448L18.7754 438.284C19.5274 437.62 20.3594 437.128 21.2714 436.808C22.1914 436.48 23.1754 436.316 24.2234 436.316C24.9754 436.316 25.6514 436.44 26.2514 436.688C26.8594 436.928 27.3714 437.268 27.7874 437.708C28.2114 438.14 28.5354 438.656 28.7594 439.256C28.9834 439.856 29.0954 440.512 29.0954 441.224V449H27.3914ZM23.1194 446.732C23.5994 446.732 24.0194 446.648 24.3794 446.48C24.7394 446.312 25.1034 446.04 25.4714 445.664V443.936C24.7274 443.968 24.1154 444.032 23.6354 444.128C23.1554 444.224 22.7754 444.344 22.4954 444.488C22.2154 444.632 22.0194 444.796 21.9074 444.98C21.8034 445.164 21.7514 445.364 21.7514 445.58C21.7514 446.004 21.8674 446.304 22.0994 446.48C22.3314 446.648 22.6714 446.732 23.1194 446.732ZM38.1561 449H34.7721L29.9481 436.556H33.0441C33.3081 436.556 33.5281 436.62 33.7041 436.748C33.8881 436.868 34.0121 437.02 34.0761 437.204L35.8041 442.784C35.9401 443.24 36.0681 443.684 36.1881 444.116C36.3161 444.548 36.4241 444.98 36.5121 445.412C36.6001 444.98 36.7081 444.548 36.8361 444.116C36.9641 443.684 37.1001 443.24 37.2441 442.784L39.0441 437.204C39.1081 437.02 39.2281 436.868 39.4041 436.748C39.5801 436.62 39.7881 436.556 40.0281 436.556H42.9801L38.1561 449ZM53.1258 449C52.7738 449 52.5058 448.952 52.3218 448.856C52.1458 448.76 51.9978 448.56 51.8778 448.256L51.6138 447.572C51.3018 447.836 51.0018 448.068 50.7138 448.268C50.4258 448.468 50.1258 448.64 49.8138 448.784C49.5098 448.92 49.1818 449.02 48.8298 449.084C48.4858 449.156 48.1018 449.192 47.6778 449.192C47.1098 449.192 46.5938 449.12 46.1298 448.976C45.6658 448.824 45.2698 448.604 44.9418 448.316C44.6218 448.028 44.3738 447.672 44.1978 447.248C44.0218 446.816 43.9338 446.32 43.9338 445.76C43.9338 445.32 44.0458 444.868 44.2698 444.404C44.4938 443.94 44.8818 443.52 45.4338 443.144C45.9858 442.76 46.7298 442.44 47.6658 442.184C48.6018 441.928 49.7818 441.784 51.2058 441.752V441.224C51.2058 440.496 51.0538 439.972 50.7498 439.652C50.4538 439.324 50.0298 439.16 49.4778 439.16C49.0378 439.16 48.6778 439.208 48.3978 439.304C48.1178 439.4 47.8658 439.508 47.6418 439.628C47.4258 439.748 47.2138 439.856 47.0058 439.952C46.7978 440.048 46.5498 440.096 46.2617 440.096C46.0058 440.096 45.7858 440.036 45.6018 439.916C45.4258 439.788 45.2858 439.632 45.1818 439.448L44.5098 438.284C45.2618 437.62 46.0938 437.128 47.0058 436.808C47.9258 436.48 48.9098 436.316 49.9578 436.316C50.7098 436.316 51.3858 436.44 51.9858 436.688C52.5938 436.928 53.1058 437.268 53.5218 437.708C53.9458 438.14 54.2698 438.656 54.4938 439.256C54.7178 439.856 54.8298 440.512 54.8298 441.224V449H53.1258ZM48.8538 446.732C49.3338 446.732 49.7538 446.648 50.1138 446.48C50.4738 446.312 50.8378 446.04 51.2058 445.664V443.936C50.4618 443.968 49.8498 444.032 49.3698 444.128C48.8898 444.224 48.5098 444.344 48.2298 444.488C47.9498 444.632 47.7538 444.796 47.6418 444.98C47.5378 445.164 47.4858 445.364 47.4858 445.58C47.4858 446.004 47.6018 446.304 47.8338 446.48C48.0658 446.648 48.4058 446.732 48.8538 446.732ZM67.2153 435.068C67.0953 435.26 66.9673 435.404 66.8313 435.5C66.7033 435.596 66.5353 435.644 66.3273 435.644C66.1433 435.644 65.9433 435.588 65.7273 435.476C65.5193 435.356 65.2793 435.224 65.0073 435.08C64.7433 434.936 64.4393 434.808 64.0953 434.696C63.7513 434.576 63.3593 434.516 62.9193 434.516C62.1593 434.516 61.5913 434.68 61.2153 435.008C60.8473 435.328 60.6633 435.764 60.6633 436.316C60.6633 436.668 60.7753 436.96 60.9993 437.192C61.2233 437.424 61.5153 437.624 61.8753 437.792C62.2433 437.96 62.6593 438.116 63.1233 438.26C63.5953 438.396 64.0753 438.552 64.5633 438.728C65.0513 438.896 65.5273 439.096 65.9913 439.328C66.4633 439.56 66.8793 439.856 67.2393 440.216C67.6073 440.576 67.9033 441.016 68.1273 441.536C68.3513 442.048 68.4633 442.668 68.4633 443.396C68.4633 444.204 68.3233 444.96 68.0433 445.664C67.7633 446.368 67.3553 446.984 66.8193 447.512C66.2913 448.032 65.6353 448.444 64.8513 448.748C64.0753 449.044 63.1913 449.192 62.1992 449.192C61.6553 449.192 61.0993 449.136 60.5313 449.024C59.9713 448.912 59.4273 448.756 58.8993 448.556C58.3713 448.348 57.8753 448.104 57.4113 447.824C56.9473 447.544 56.5433 447.232 56.1993 446.888L57.3993 444.992C57.4873 444.848 57.6113 444.732 57.7713 444.644C57.9313 444.556 58.1033 444.512 58.2873 444.512C58.5273 444.512 58.7673 444.588 59.0073 444.74C59.2553 444.892 59.5313 445.06 59.8353 445.244C60.1473 445.428 60.5033 445.596 60.9033 445.748C61.3033 445.9 61.7753 445.976 62.3193 445.976C63.0553 445.976 63.6273 445.816 64.0353 445.496C64.4433 445.168 64.6473 444.652 64.6473 443.948C64.6473 443.54 64.5353 443.208 64.3113 442.952C64.0873 442.696 63.7913 442.484 63.4233 442.316C63.0633 442.148 62.6513 442 62.1873 441.872C61.7233 441.744 61.2473 441.604 60.7593 441.452C60.2713 441.292 59.7953 441.1 59.3313 440.876C58.8673 440.644 58.4513 440.344 58.0833 439.976C57.7233 439.6 57.4313 439.136 57.2073 438.584C56.9833 438.024 56.8713 437.336 56.8713 436.52C56.8713 435.864 57.0033 435.224 57.2673 434.6C57.5313 433.976 57.9193 433.42 58.4313 432.932C58.9433 432.444 59.5713 432.056 60.3153 431.768C61.0593 431.472 61.9113 431.324 62.8713 431.324C63.4073 431.324 63.9273 431.368 64.4313 431.456C64.9433 431.536 65.4273 431.66 65.8833 431.828C66.3393 431.988 66.7633 432.184 67.1553 432.416C67.5553 432.64 67.9113 432.896 68.2233 433.184L67.2153 435.068ZM79.4551 439.508C79.3431 439.644 79.2351 439.752 79.1311 439.832C79.0271 439.912 78.8791 439.952 78.6871 439.952C78.5031 439.952 78.3351 439.908 78.1831 439.82C78.0391 439.732 77.8751 439.636 77.6911 439.532C77.5071 439.42 77.2911 439.32 77.0431 439.232C76.7951 439.144 76.4871 439.1 76.1191 439.1C75.6631 439.1 75.2671 439.184 74.9311 439.352C74.6031 439.52 74.3311 439.76 74.1151 440.072C73.8991 440.384 73.7391 440.768 73.6351 441.224C73.5311 441.672 73.4791 442.18 73.4791 442.748C73.4791 443.94 73.7071 444.856 74.1631 445.496C74.6271 446.136 75.2631 446.456 76.0711 446.456C76.5031 446.456 76.8431 446.404 77.0911 446.3C77.3471 446.188 77.5631 446.068 77.7391 445.94C77.9151 445.804 78.0751 445.68 78.2191 445.568C78.3711 445.456 78.5591 445.4 78.7831 445.4C79.0791 445.4 79.3031 445.508 79.4551 445.724L80.5351 447.056C80.1511 447.496 79.7471 447.856 79.3231 448.136C78.8991 448.408 78.4631 448.624 78.0151 448.784C77.5751 448.936 77.1311 449.04 76.6831 449.096C76.2351 449.16 75.7991 449.192 75.3751 449.192C74.6151 449.192 73.8871 449.048 73.1911 448.76C72.5031 448.472 71.8951 448.056 71.3671 447.512C70.8471 446.96 70.4311 446.284 70.1191 445.484C69.8151 444.684 69.6631 443.772 69.6631 442.748C69.6631 441.852 69.7951 441.016 70.0591 440.24C70.3311 439.456 70.7271 438.78 71.2471 438.212C71.7751 437.636 72.4231 437.184 73.1911 436.856C73.9671 436.528 74.8631 436.364 75.8791 436.364C76.8551 436.364 77.7111 436.52 78.4471 436.832C79.1831 437.144 79.8471 437.6 80.4391 438.2L79.4551 439.508ZM82.1509 449V436.556H84.3589C84.5429 436.556 84.6949 436.572 84.8149 436.604C84.9429 436.636 85.0469 436.688 85.1269 436.76C85.2149 436.824 85.2789 436.912 85.3189 437.024C85.3669 437.136 85.4069 437.272 85.4389 437.432L85.6429 438.596C86.0989 437.892 86.6109 437.336 87.1789 436.928C87.7469 436.52 88.3669 436.316 89.0389 436.316C89.6069 436.316 90.0629 436.452 90.4069 436.724L89.9269 439.46C89.8949 439.628 89.8309 439.748 89.7349 439.82C89.6389 439.884 89.5109 439.916 89.3509 439.916C89.2149 439.916 89.0549 439.9 88.8709 439.868C88.6869 439.828 88.4549 439.808 88.1749 439.808C87.1989 439.808 86.4309 440.328 85.8709 441.368V449H82.1509ZM95.905 436.556V449H92.185V436.556H95.905ZM96.337 433.148C96.337 433.444 96.277 433.724 96.157 433.988C96.037 434.244 95.873 434.472 95.665 434.672C95.457 434.864 95.213 435.02 94.933 435.14C94.661 435.252 94.369 435.308 94.057 435.308C93.753 435.308 93.469 435.252 93.205 435.14C92.941 435.02 92.705 434.864 92.497 434.672C92.297 434.472 92.137 434.244 92.017 433.988C91.905 433.724 91.849 433.444 91.849 433.148C91.849 432.844 91.905 432.56 92.017 432.296C92.137 432.032 92.297 431.8 92.497 431.6C92.705 431.4 92.941 431.244 93.205 431.132C93.469 431.02 93.753 430.964 94.057 430.964C94.369 430.964 94.661 431.02 94.933 431.132C95.213 431.244 95.457 431.4 95.665 431.6C95.873 431.8 96.037 432.032 96.157 432.296C96.277 432.56 96.337 432.844 96.337 433.148ZM98.9088 452.948V436.556H101.213C101.445 436.556 101.637 436.608 101.789 436.712C101.949 436.816 102.061 436.972 102.125 437.18L102.401 438.092C102.641 437.828 102.897 437.588 103.169 437.372C103.449 437.156 103.745 436.972 104.057 436.82C104.377 436.66 104.717 436.536 105.077 436.448C105.445 436.36 105.845 436.316 106.277 436.316C106.925 436.316 107.525 436.46 108.077 436.748C108.629 437.036 109.105 437.452 109.505 437.996C109.905 438.54 110.217 439.208 110.441 440C110.673 440.784 110.789 441.676 110.789 442.676C110.789 443.612 110.657 444.476 110.393 445.268C110.137 446.06 109.773 446.748 109.301 447.332C108.837 447.916 108.277 448.372 107.621 448.7C106.973 449.028 106.253 449.192 105.461 449.192C104.813 449.192 104.269 449.1 103.829 448.916C103.389 448.732 102.989 448.484 102.629 448.172V452.948H98.9088ZM104.981 439.16C104.709 439.16 104.461 439.188 104.237 439.244C104.021 439.292 103.817 439.364 103.625 439.46C103.441 439.556 103.269 439.68 103.109 439.832C102.949 439.976 102.789 440.144 102.629 440.336V445.616C102.909 445.928 103.213 446.148 103.541 446.276C103.869 446.396 104.213 446.456 104.573 446.456C104.917 446.456 105.233 446.388 105.521 446.252C105.809 446.116 106.057 445.9 106.265 445.604C106.481 445.3 106.649 444.908 106.769 444.428C106.889 443.948 106.949 443.364 106.949 442.676C106.949 442.02 106.901 441.468 106.805 441.02C106.709 440.572 106.573 440.212 106.397 439.94C106.229 439.66 106.025 439.46 105.785 439.34C105.545 439.22 105.277 439.16 104.981 439.16ZM117.152 449.192C116.56 449.192 116.036 449.108 115.58 448.94C115.132 448.764 114.752 448.52 114.44 448.208C114.136 447.888 113.904 447.504 113.744 447.056C113.584 446.608 113.504 446.108 113.504 445.556V439.124H112.448C112.256 439.124 112.092 439.064 111.956 438.944C111.82 438.816 111.752 438.632 111.752 438.392V436.94L113.732 436.556L114.464 433.52C114.56 433.136 114.832 432.944 115.28 432.944H117.224V436.58H120.248V439.124H117.224V445.304C117.224 445.592 117.292 445.832 117.428 446.024C117.572 446.208 117.776 446.3 118.04 446.3C118.176 446.3 118.288 446.288 118.376 446.264C118.472 446.232 118.552 446.2 118.616 446.168C118.688 446.128 118.752 446.096 118.808 446.072C118.872 446.04 118.944 446.024 119.024 446.024C119.136 446.024 119.224 446.052 119.288 446.108C119.36 446.156 119.432 446.236 119.504 446.348L120.632 448.112C120.152 448.472 119.612 448.744 119.012 448.928C118.412 449.104 117.792 449.192 117.152 449.192Z" fill="black"/>
<path d="M377.801 431.516H381.065C381.417 431.516 381.705 431.596 381.929 431.756C382.153 431.916 382.313 432.128 382.409 432.392L385.793 441.752C385.945 442.16 386.097 442.604 386.249 443.084C386.409 443.564 386.557 444.068 386.693 444.596C386.805 444.068 386.933 443.564 387.077 443.084C387.229 442.604 387.377 442.16 387.521 441.752L390.881 432.392C390.961 432.168 391.117 431.968 391.349 431.792C391.581 431.608 391.865 431.516 392.201 431.516H395.489L388.481 449H384.809L377.801 431.516ZM399.104 436.556V444.452C399.104 445.068 399.244 445.544 399.524 445.88C399.804 446.216 400.216 446.384 400.76 446.384C401.168 446.384 401.548 446.3 401.9 446.132C402.26 445.964 402.608 445.728 402.944 445.424V436.556H406.664V449H404.36C403.896 449 403.592 448.792 403.448 448.376L403.22 447.656C402.98 447.888 402.732 448.1 402.476 448.292C402.22 448.476 401.944 448.636 401.648 448.772C401.36 448.9 401.048 449 400.712 449.072C400.376 449.152 400.008 449.192 399.608 449.192C398.928 449.192 398.324 449.076 397.796 448.844C397.276 448.604 396.836 448.272 396.476 447.848C396.116 447.424 395.844 446.924 395.66 446.348C395.476 445.772 395.384 445.14 395.384 444.452V436.556H399.104ZM414.873 436.364C415.697 436.364 416.449 436.492 417.129 436.748C417.817 437.004 418.405 437.376 418.893 437.864C419.389 438.352 419.773 438.952 420.045 439.664C420.325 440.368 420.465 441.168 420.465 442.064C420.465 442.344 420.453 442.572 420.429 442.748C420.405 442.924 420.361 443.064 420.297 443.168C420.233 443.272 420.145 443.344 420.033 443.384C419.929 443.424 419.793 443.444 419.625 443.444H412.449C412.569 444.484 412.885 445.24 413.397 445.712C413.909 446.176 414.569 446.408 415.377 446.408C415.809 446.408 416.181 446.356 416.493 446.252C416.805 446.148 417.081 446.032 417.321 445.904C417.569 445.776 417.793 445.66 417.993 445.556C418.201 445.452 418.417 445.4 418.641 445.4C418.937 445.4 419.161 445.508 419.313 445.724L420.393 447.056C420.009 447.496 419.593 447.856 419.145 448.136C418.705 448.408 418.249 448.624 417.777 448.784C417.313 448.936 416.845 449.04 416.373 449.096C415.909 449.16 415.465 449.192 415.041 449.192C414.169 449.192 413.349 449.052 412.581 448.772C411.821 448.484 411.153 448.06 410.577 447.5C410.009 446.94 409.557 446.244 409.221 445.412C408.893 444.58 408.729 443.612 408.729 442.508C408.729 441.676 408.869 440.888 409.149 440.144C409.437 439.4 409.845 438.748 410.373 438.188C410.909 437.628 411.553 437.184 412.305 436.856C413.065 436.528 413.921 436.364 414.873 436.364ZM414.945 438.932C414.233 438.932 413.677 439.136 413.277 439.544C412.877 439.944 412.613 440.524 412.485 441.284H417.129C417.129 440.988 417.089 440.7 417.009 440.42C416.937 440.14 416.813 439.892 416.637 439.676C416.469 439.452 416.245 439.272 415.965 439.136C415.685 439 415.345 438.932 414.945 438.932ZM421.88 447.116C421.88 446.828 421.932 446.56 422.036 446.312C422.148 446.064 422.296 445.848 422.48 445.664C422.672 445.48 422.896 445.336 423.152 445.232C423.408 445.12 423.688 445.064 423.992 445.064C424.288 445.064 424.564 445.12 424.82 445.232C425.076 445.336 425.3 445.48 425.492 445.664C425.684 445.848 425.832 446.064 425.936 446.312C426.048 446.56 426.104 446.828 426.104 447.116C426.104 447.404 426.048 447.676 425.936 447.932C425.832 448.18 425.684 448.396 425.492 448.58C425.3 448.764 425.076 448.908 424.82 449.012C424.564 449.116 424.288 449.168 423.992 449.168C423.688 449.168 423.408 449.116 423.152 449.012C422.896 448.908 422.672 448.764 422.48 448.58C422.296 448.396 422.148 448.18 422.036 447.932C421.932 447.676 421.88 447.404 421.88 447.116ZM432.112 436.556V449.024C432.112 449.608 432.036 450.156 431.884 450.668C431.74 451.188 431.496 451.64 431.152 452.024C430.816 452.416 430.368 452.724 429.808 452.948C429.256 453.172 428.568 453.284 427.744 453.284C427.44 453.284 427.156 453.264 426.892 453.224C426.636 453.192 426.368 453.14 426.088 453.068L426.208 451.112C426.224 450.944 426.28 450.82 426.376 450.74C426.472 450.66 426.664 450.62 426.952 450.62C427.24 450.62 427.476 450.596 427.66 450.548C427.844 450.5 427.988 450.416 428.092 450.296C428.204 450.176 428.28 450.012 428.32 449.804C428.368 449.604 428.392 449.344 428.392 449.024V436.556H432.112ZM432.544 433.148C432.544 433.444 432.484 433.724 432.364 433.988C432.244 434.244 432.08 434.472 431.872 434.672C431.664 434.864 431.42 435.02 431.14 435.14C430.868 435.252 430.576 435.308 430.264 435.308C429.96 435.308 429.676 435.252 429.412 435.14C429.148 435.02 428.912 434.864 428.704 434.672C428.504 434.472 428.344 434.244 428.224 433.988C428.112 433.724 428.056 433.444 428.056 433.148C428.056 432.844 428.112 432.56 428.224 432.296C428.344 432.032 428.504 431.8 428.704 431.6C428.912 431.4 429.148 431.244 429.412 431.132C429.676 431.02 429.96 430.964 430.264 430.964C430.576 430.964 430.868 431.02 431.14 431.132C431.42 431.244 431.664 431.4 431.872 431.6C432.08 431.8 432.244 432.032 432.364 432.296C432.484 432.56 432.544 432.844 432.544 433.148ZM442.677 439.28C442.581 439.432 442.477 439.54 442.365 439.604C442.261 439.668 442.125 439.7 441.957 439.7C441.781 439.7 441.605 439.664 441.429 439.592C441.253 439.512 441.061 439.428 440.853 439.34C440.653 439.252 440.425 439.172 440.169 439.1C439.913 439.02 439.621 438.98 439.293 438.98C438.821 438.98 438.457 439.072 438.201 439.256C437.953 439.432 437.829 439.68 437.829 440C437.829 440.232 437.909 440.424 438.069 440.576C438.237 440.728 438.457 440.864 438.729 440.984C439.001 441.096 439.309 441.204 439.653 441.308C439.997 441.412 440.349 441.528 440.709 441.656C441.069 441.784 441.421 441.936 441.765 442.112C442.109 442.28 442.417 442.492 442.689 442.748C442.961 442.996 443.177 443.3 443.337 443.66C443.505 444.02 443.589 444.452 443.589 444.956C443.589 445.572 443.477 446.14 443.253 446.66C443.029 447.18 442.693 447.628 442.245 448.004C441.805 448.38 441.257 448.672 440.601 448.88C439.953 449.088 439.205 449.192 438.357 449.192C437.933 449.192 437.509 449.152 437.085 449.072C436.661 448.992 436.249 448.884 435.849 448.748C435.457 448.612 435.093 448.452 434.757 448.268C434.421 448.076 434.133 447.872 433.893 447.656L434.757 446.288C434.861 446.128 434.985 446.004 435.129 445.916C435.273 445.82 435.461 445.772 435.693 445.772C435.909 445.772 436.101 445.82 436.269 445.916C436.445 446.012 436.633 446.116 436.833 446.228C437.033 446.34 437.265 446.444 437.529 446.54C437.801 446.636 438.141 446.684 438.549 446.684C438.837 446.684 439.081 446.656 439.281 446.6C439.481 446.536 439.641 446.452 439.761 446.348C439.881 446.244 439.969 446.128 440.025 446C440.081 445.872 440.109 445.74 440.109 445.604C440.109 445.356 440.025 445.152 439.857 444.992C439.689 444.832 439.469 444.696 439.197 444.584C438.925 444.464 438.613 444.356 438.261 444.26C437.917 444.156 437.565 444.04 437.205 443.912C436.845 443.784 436.489 443.632 436.137 443.456C435.793 443.272 435.485 443.044 435.213 442.772C434.941 442.492 434.721 442.152 434.553 441.752C434.385 441.352 434.301 440.868 434.301 440.3C434.301 439.772 434.401 439.272 434.601 438.8C434.809 438.32 435.117 437.9 435.525 437.54C435.933 437.18 436.445 436.896 437.061 436.688C437.677 436.472 438.397 436.364 439.221 436.364C439.669 436.364 440.101 436.404 440.517 436.484C440.941 436.564 441.337 436.676 441.705 436.82C442.073 436.964 442.409 437.136 442.713 437.336C443.017 437.528 443.285 437.74 443.517 437.972L442.677 439.28Z" fill="black"/>
<defs>
<filter id="filter0_d" x="0" y="291" width="132" height="130" filterUnits="userSpaceOnUse" color-interpolation-filters="sRGB">
<feFlood flood-opacity="0" result="BackgroundImageFix"/>
<feColorMatrix in="SourceAlpha" type="matrix" values="0 0 0 0 0 0 0 0 0 0 0 0 0 0 0 0 0 0 127 0"/>
<feOffset dy="2"/>
<feGaussianBlur stdDeviation="2"/>
<feColorMatrix type="matrix" values="0 0 0 0 0 0 0 0 0 0 0 0 0 0 0 0 0 0 0.25 0"/>
<feBlend mode="normal" in2="BackgroundImageFix" result="effect1_dropShadow"/>
<feBlend mode="normal" in="SourceGraphic" in2="effect1_dropShadow" result="shape"/>
</filter>
<filter id="filter1_d" x="172" y="48" width="132" height="130" filterUnits="userSpaceOnUse" color-interpolation-filters="sRGB">
<feFlood flood-opacity="0" result="BackgroundImageFix"/>
<feColorMatrix in="SourceAlpha" type="matrix" values="0 0 0 0 0 0 0 0 0 0 0 0 0 0 0 0 0 0 127 0"/>
<feOffset dy="2"/>
<feGaussianBlur stdDeviation="2"/>
<feColorMatrix type="matrix" values="0 0 0 0 0 0 0 0 0 0 0 0 0 0 0 0 0 0 0.25 0"/>
<feBlend mode="normal" in2="BackgroundImageFix" result="effect1_dropShadow"/>
<feBlend mode="normal" in="SourceGraphic" in2="effect1_dropShadow" result="shape"/>
</filter>
<filter id="filter2_d" x="344" y="291" width="132" height="130" filterUnits="userSpaceOnUse" color-interpolation-filters="sRGB">
<feFlood flood-opacity="0" result="BackgroundImageFix"/>
<feColorMatrix in="SourceAlpha" type="matrix" values="0 0 0 0 0 0 0 0 0 0 0 0 0 0 0 0 0 0 127 0"/>
<feOffset dy="2"/>
<feGaussianBlur stdDeviation="2"/>
<feColorMatrix type="matrix" values="0 0 0 0 0 0 0 0 0 0 0 0 0 0 0 0 0 0 0.25 0"/>
<feBlend mode="normal" in2="BackgroundImageFix" result="effect1_dropShadow"/>
<feBlend mode="normal" in="SourceGraphic" in2="effect1_dropShadow" result="shape"/>
</filter>
</defs>
</svg>
