<svg xmlns="http://www.w3.org/2000/svg" style="isolation:isolate" width="128" height="128"><defs><clipPath id="a"><path d="M0 0h128v128H0z"/></clipPath></defs><g clip-path="url(#a)"><path d="M14.704 14.704h98.592v98.592H14.704V14.704z" fill="#F0DB4F"/><path d="M105.227 89.782c-.722-4.498-3.655-8.276-12.343-11.799-3.018-1.387-6.382-2.38-7.385-4.667-.356-1.331-.403-2.081-.178-2.887.647-2.614 3.768-3.43 6.242-2.68 1.593.534 3.101 1.762 4.011 3.721 4.254-2.755 4.245-2.737 7.216-4.63-1.087-1.687-1.668-2.465-2.38-3.186-2.559-2.858-6.045-4.33-11.621-4.218l-2.905.376c-2.783.703-5.436 2.164-6.991 4.123-4.667 5.296-3.336 14.564 2.343 18.378 5.595 4.199 13.814 5.155 14.864 9.081 1.021 4.808-3.533 6.364-8.06 5.811-3.336-.694-5.192-2.389-7.198-5.473-3.692 2.137-3.692 2.137-7.488 4.32.9 1.968 1.846 2.859 3.355 4.564 7.142 7.244 25.013 6.888 28.219-4.076.13-.377.993-2.888.299-6.758zM68.302 60.017H59.08l-.038 23.841c0 5.071.263 9.719-.562 11.144-1.349 2.802-4.845 2.454-6.438 1.911-1.622-.797-2.447-1.93-3.402-3.532-.262-.46-.459-.816-.525-.844l-7.498 4.592c1.247 2.559 3.083 4.78 5.436 6.222 3.514 2.109 8.237 2.756 13.177 1.622 3.215-.936 5.988-2.876 7.441-5.829 2.099-3.871 1.649-8.556 1.63-13.738.047-8.455.001-16.908.001-25.389z" fill="#323330"/></g></svg>