<svg xmlns="http://www.w3.org/2000/svg" style="isolation:isolate" width="128" height="128"><defs><clipPath id="a"><path d="M0 0h128v128H0z"/></clipPath></defs><g clip-path="url(#a)"><path d="M105.749 35.473L68.384 13.777c-2.356-1.342-5.425-1.342-7.8 0L22.82 35.473c-2.432 1.399-4.152 4.028-4.152 6.841v43.334c0 2.812 1.765 5.443 4.197 6.849l9.978 5.667c4.768 2.349 6.454 2.349 8.624 2.349 7.061 0 11.094-4.27 11.094-11.717V46.014c0-.604-.314-1.503-.908-1.503h-4.764c-.603 0-1.954.899-1.954 1.502v42.782c0 3.301-2.986 6.587-8.567 3.796l-10.309-5.942a1.171 1.171 0 0 1-.613-1.001V42.314c0-.409.47-.819.832-1.028L63.92 19.627a1.321 1.321 0 0 1 1.22 0l37.182 21.654c.356.214.231.612.231 1.033v43.334c0 .414.155.816-.197 1.015l-37.355 21.672c-.321.192-.718.192-1.069 0l-9.581-5.719c-.289-.168-.632-.228-.909-.073-2.666 1.511-3.157 1.712-5.657 2.579-.616.214-1.523.586.347 1.634l12.539 7.418a7.887 7.887 0 0 0 3.937 1.056 7.885 7.885 0 0 0 3.955-1.056l37.185-21.677c2.432-1.417 3.584-4.037 3.584-6.849V42.314c0-2.813-1.152-5.435-3.583-6.841zM76.21 78.781c-9.936 0-12.124-2.741-12.854-7.682-.085-.532-.536-1.168-1.078-1.168h-4.856c-.601 0-1.084.729-1.084 1.327 0 6.326 3.44 13.991 19.873 13.991 11.896 0 18.716-4.622 18.716-12.802 0-8.111-5.48-10.24-17.016-11.766-11.661-1.542-12.846-2.32-12.846-5.052 0-2.252 1.003-5.256 9.638-5.256 7.715 0 10.558 1.655 11.729 6.856.1.488.546.839 1.05.839h4.876c.3 0 .586-.121.796-.335.204-.231.311-.52.284-.83-.755-8.955-6.704-13.128-18.736-13.128-10.703 0-17.088 4.52-17.088 12.096 0 8.218 6.353 10.488 16.627 11.504 12.291 1.205 13.246 3.002 13.246 5.419 0 4.199-3.37 5.987-11.277 5.987z" fill="#83CD29"/></g></svg>