<svg width="244" height="244" viewBox="0 0 244 244" fill="none" xmlns="http://www.w3.org/2000/svg">
<path fill-rule="evenodd" clip-rule="evenodd" d="M161.893 165.833V87.1039C161.893 84.2999 159.619 82.0268 156.815 82.0268H78.1779V0.760315H237.993C240.797 0.760315 243.071 3.03342 243.071 5.83743V165.833H161.893Z" fill="#8E75FF"/>
<path opacity="0.404989" fill-rule="evenodd" clip-rule="evenodd" d="M78.1779 0.760315V82.0268H3.12388C1.72188 82.0268 0.585327 80.8902 0.585327 79.4882C0.585327 78.8154 0.852402 78.1702 1.32788 77.6942L78.1779 0.760315Z" fill="#8E75FF"/>
<path opacity="0.404989" fill-rule="evenodd" clip-rule="evenodd" d="M161.893 240.966V165.833H243.071L166.227 242.76C165.236 243.752 163.629 243.753 162.637 242.762C162.16 242.286 161.893 241.64 161.893 240.966Z" fill="#8E75FF"/>
<path opacity="0.404989" fill-rule="evenodd" clip-rule="evenodd" d="M78.1779 82.0267H159.354C160.756 82.0267 161.893 83.1633 161.893 84.5653V165.833H83.255C80.451 165.833 78.1779 163.56 78.1779 160.756V82.0267Z" fill="#8E75FF"/>
</svg>
