<svg width="55" height="55" viewBox="0 0 55 55" fill="none" xmlns="http://www.w3.org/2000/svg">
<path fill-rule="evenodd" clip-rule="evenodd" d="M27.517 12C20.712 12 16.46 15.382 14.758 22.146C17.31 18.764 20.287 17.496 23.689 18.341C25.63 18.823 27.018 20.223 28.553 21.773C31.055 24.297 33.951 27.218 40.275 27.218C47.079 27.218 51.332 23.836 53.033 17.073C50.482 20.455 47.505 21.723 44.103 20.877C42.161 20.395 40.773 18.995 39.238 17.446C36.736 14.92 33.841 12 27.517 12ZM14.758 27.218C7.954 27.218 3.701 30.6 2 37.364C4.552 33.982 7.529 32.714 10.93 33.559C12.872 34.041 14.26 35.441 15.795 36.991C18.297 39.515 21.192 42.436 27.517 42.436C34.321 42.436 38.574 39.055 40.275 32.291C37.723 35.673 34.746 36.941 31.344 36.096C29.403 35.613 28.015 34.213 26.48 32.664C23.978 30.14 21.082 27.218 14.758 27.218V27.218Z" fill="#06B6D4"/>
</svg>
