<svg xmlns="http://www.w3.org/2000/svg" style="isolation:isolate" width="320" height="320"><defs><clipPath id="a"><path d="M0 0h320v320H0z"/></clipPath></defs><g clip-path="url(#a)"><path d="M131.5 318.4c-3.3-.7-8.1-1.8-10.8-2.4-2.6-.5-5.6-1.4-6.7-2-1-.5-2.7-1-3.7-1-1.1 0-3.8-.9-6.1-2-2.2-1.1-4.7-2-5.5-2-.7 0-2.2-.7-3.3-1.5-1-.8-2.5-1.5-3.2-1.5-1.6 0-17.6-9.1-18-10.2-.2-.4-.7-.8-1.2-.8-1.3 0-13-8.3-13-9.2 0-.4-.5-.8-1.2-.8-1.5 0-23.7-22.2-23.8-23.7 0-.7-.4-1.3-.8-1.3-.9 0-9.2-11.7-9.2-13 0-.5-.4-1-.8-1.2-1.1-.4-10.2-16.4-10.2-18 0-.7-.7-2.2-1.5-3.2-.8-1.1-1.5-2.6-1.5-3.3 0-.8-.9-3.3-2-5.5-1.1-2.3-2-4.9-2-5.7 0-.8-.6-3.3-1.4-5.6C1.3 192.4.5 185.1.5 160s.8-32.4 5.1-44.5c.8-2.3 1.4-4.8 1.4-5.6 0-.8.9-3.4 2-5.7 1.1-2.2 2-4.7 2-5.5 0-.7.7-2.2 1.5-3.3.8-1 1.5-2.5 1.5-3.2 0-1.6 9.1-17.6 10.2-18 .4-.2.8-.7.8-1.2 0-1.3 8.3-13 9.2-13 .4 0 .8-.5.8-1.2 0-1.5 22.2-23.7 23.8-23.8.6 0 1.2-.4 1.2-.8 0-.9 11.7-9.2 13-9.2.5 0 1-.4 1.2-.8.4-1.1 16.4-10.2 18-10.2.7 0 2.2-.7 3.2-1.5 1.1-.8 2.6-1.5 3.3-1.5.8 0 3.3-.9 5.5-2 2.3-1.1 4.9-2 5.7-2 .8 0 3.3-.6 5.6-1.4C127.6 1.3 134.9.5 160 .5s32.4.8 44.5 5.1c2.3.8 4.8 1.4 5.6 1.4.8 0 3.4.9 5.7 2 2.2 1.1 4.7 2 5.5 2 .7 0 2.2.7 3.3 1.5 1 .8 2.5 1.5 3.2 1.5 1.6 0 17.6 9.1 18 10.2.2.4.7.8 1.2.8 1.3 0 13 8.3 13 9.2 0 .4.6.8 1.3.8 1.5.1 23.7 22.3 23.7 23.8 0 .7.4 1.2.8 1.2.9 0 9.2 11.7 9.2 13 0 .5.4 1 .8 1.2 1.1.4 10.2 16.4 10.2 18 0 .7.7 2.2 1.5 3.2.8 1.1 1.5 2.6 1.5 3.3 0 .8.9 3.3 2 5.5 1.1 2.3 2 4.9 2 5.7 0 .8.6 3.3 1.4 5.6 4.3 12.1 5.1 19.4 5.1 44.5s-.8 32.4-5.1 44.5c-.8 2.3-1.4 4.8-1.4 5.6 0 .8-.9 3.4-2 5.7-1.1 2.2-2 4.7-2 5.5 0 .7-.7 2.2-1.5 3.3-.8 1-1.5 2.5-1.5 3.2 0 1.6-9.1 17.6-10.2 18-.4.2-.8.7-.8 1.2 0 1.3-8.3 13-9.2 13-.4 0-.8.6-.8 1.3-.1 1.5-22.3 23.7-23.8 23.7-.7 0-1.2.4-1.2.8 0 .9-11.7 9.2-13 9.2-.5 0-1 .4-1.2.8-.4 1.1-16.4 10.2-18 10.2-.7 0-2.2.7-3.2 1.5-1.1.8-2.6 1.5-3.3 1.5-.8 0-3.3.9-5.5 2-2.3 1.1-4.8 2-5.6 2-.8 0-3.5.7-6.1 1.5-13.7 4.4-17.2 4.8-42.1 5.1-18.5.2-26-.1-30.5-1.2z" fill="#CD669A"/><path d="M83.1 279.9c-9.3-1.8-14.6-10.6-13.9-23.1.9-16.9 12.3-29.7 41.8-46.8l10.1-5.8-6.8-4.9c-3.7-2.8-9.6-6.9-13.1-9.2-11.2-7.6-25.7-19.8-31.1-26.3-6.5-7.9-11.1-17.3-11.8-24.1-1.5-15.8 14.1-40.2 37.2-58.2 21.4-16.6 54.3-32.7 80.3-39.2 9.5-2.4 12.7-2.7 27.7-2.8 13.1 0 18.5.4 23.5 1.8 9.2 2.5 20 8 25 12.8 16.1 15.6 11.9 44.3-9.9 67.1-12.6 13.3-24 19.8-44.7 25.5-8.7 2.4-11.8 2.7-25.4 2.7-14.1.1-16.1-.1-22-2.4-8.4-3.1-17-11.2-17-15.9 0-3.8 1.8-4 5.1-.5 6.7 7.4 23.4 10.3 39.9 6.9 29.2-6 53.1-22.5 62.8-43.5 2-4.3 2.6-7.1 2.6-13.1.1-6.8-.2-7.9-2.7-11.2-5.6-7.3-15.8-10.7-32.8-10.7-23.8 0-47.1 7.3-75.9 23.8-33.1 19-49.9 39.1-48.8 58.7.7 13.4 5.8 20.1 30.8 40 9.1 7.3 17.3 14.1 18.3 15.2 1.7 1.9 2.1 1.9 7.5.6 3.1-.7 11.1-1.4 17.7-1.4 17.7-.1 28.3 3.7 37.4 13.6 9.7 10.5 11.7 24.1 4.9 33.8-3.7 5.3-13.8 10-13.8 6.5 0-.7 1.6-2.3 3.5-3.5 4.8-3.1 7.9-9.5 7.2-14.9-.6-5.7-4.9-12.8-9.9-16.4-8.5-6.2-23.6-9.7-36.3-8.5-9.6.9-9.8 1.1-8.5 7.1 2 8.6 1.4 22-1.3 30.5-7.9 24.9-33.1 40.6-57.6 35.8zm23.7-18.6c10.5-4.9 19.6-17 22.2-29.6 1.2-5.9.5-16.3-1.2-17.3-1.2-.8-13.2 6.5-21.5 13-8 6.5-13.7 13.6-16.4 20.6-5.6 14.8 1.5 20.5 16.9 13.3z" fill="#FEFDFE"/></g></svg>