<svg xmlns="http://www.w3.org/2000/svg" style="isolation:isolate" width="195" height="195"><defs><clipPath id="a"><path d="M0 0h195v195H0z"/></clipPath></defs><g clip-path="url(#a)"><path fill="#12100E" d="M0 0h195v195H0z"/><path d="M97.5 38.603c-33.347 0-60.388 27.035-60.388 60.388 0 26.682 17.303 49.317 41.297 57.303 3.017.56 4.125-1.31 4.125-2.905 0-1.44-.057-6.197-.082-11.243-16.8 3.653-20.345-7.125-20.345-7.125-2.747-6.98-6.705-8.836-6.705-8.836-5.481-3.748.412-3.67.412-3.67 6.064.425 9.258 6.223 9.258 6.223 5.386 9.23 14.127 6.562 17.573 5.02.542-3.903 2.107-6.568 3.834-8.076-13.413-1.525-27.514-6.704-27.514-29.843 0-6.593 2.36-11.98 6.223-16.21-.628-1.52-2.696-7.662.584-15.98 0 0 5.07-1.623 16.609 6.19C87.2 68.5 92.367 67.827 97.5 67.804c5.13.023 10.3.694 15.127 2.033 11.526-7.813 16.59-6.19 16.59-6.19 3.287 8.317 1.22 14.46.593 15.98 3.872 4.23 6.215 9.617 6.215 16.21 0 23.194-14.127 28.3-27.575 29.796 2.167 1.874 4.098 5.55 4.098 11.183 0 8.08-.071 14.583-.071 16.572 0 1.607 1.089 3.49 4.149 2.897 23.98-7.994 41.263-30.622 41.263-57.294-.001-33.351-27.04-60.387-60.389-60.387v-.001z" fill-rule="evenodd" fill="#FFF"/><path d="M59.984 125.306c-.133.3-.605.39-1.036.185-.439-.196-.685-.605-.542-.906.13-.31.603-.395 1.039-.188.44.197.69.61.538.91l.001-.001zm2.446 2.729c-.287.267-.851.143-1.232-.28-.396-.42-.47-.983-.177-1.254.298-.266.843-.14 1.239.28.395.426.473.984.17 1.255v-.001zm2.381 3.477c-.37.258-.976.017-1.349-.52-.37-.538-.37-1.183.01-1.44.373-.258.969-.025 1.35.507.367.545.367 1.19-.011 1.452v.001zm3.261 3.361c-.329.365-1.036.267-1.551-.23-.527-.487-.675-1.18-.343-1.544.336-.366 1.045-.264 1.564.23.526.486.686 1.18.333 1.543l-.003.001zm4.5 1.951c-.146.473-.824.688-1.509.486-.683-.207-1.13-.76-.991-1.238.141-.477.824-.7 1.512-.485.684.206 1.131.756.988 1.237zm4.944.361c.017.498-.563.91-1.28.92-.724.017-1.308-.387-1.315-.877 0-.503.567-.91 1.29-.924.717-.013 1.306.387 1.306.88l-.001.001zm4.597-.782c.087.485-.412.984-1.125 1.117-.7.13-1.351-.172-1.44-.653-.086-.498.422-.997 1.122-1.126.714-.123 1.354.17 1.443.663v-.001z" fill="#FFF"/></g></svg>