<svg width="476" height="465" viewBox="0 0 476 465" fill="none" xmlns="http://www.w3.org/2000/svg">
<circle cx="238" cy="283" r="32" fill="black"/>
<circle cx="238" cy="283" r="171.5" stroke="black" stroke-dasharray="10 10"/>
<g filter="url(#filter0_d)">
<ellipse cx="66" cy="354" rx="62" ry="61" fill="white"/>
</g>
<path d="M46.3296 343.516H32.817L26.9753 373.096H33.9139L35.3751 365.429H41.9492C48.1554 365.793 55.0973 360.68 55.0973 351.916C55.0973 346.803 52.1748 343.881 46.333 343.516H46.3296ZM41.2169 359.951H36.833L38.6588 348.997H43.4071C45.9618 348.997 47.7909 350.094 47.7909 352.284C47.4264 358.494 44.5039 359.587 41.2169 359.951V359.951ZM70.7967 343.516H64.2227L65.6839 335.849H58.7454L52.9037 365.429H59.8422L63.1293 348.997H68.6065C71.1646 348.997 71.1646 350.094 70.7967 351.92L68.242 365.432H75.545L78.0997 350.458C78.8287 346.807 76.6384 343.884 70.7967 343.52V343.516ZM95.2638 343.516H81.7512L75.9095 373.096H82.848L84.3093 365.429H90.8834C97.093 365.793 104.032 360.68 104.032 351.916C104.032 346.803 101.109 343.881 95.2672 343.516H95.2638ZM90.151 359.951H85.7672L87.5929 348.997H92.3413C94.8994 348.997 96.7251 350.094 96.7251 352.284C96.3606 358.494 93.4381 359.587 90.151 359.951Z" fill="#7A7BB4"/>
<g filter="url(#filter1_d)">
<ellipse cx="238" cy="111" rx="62" ry="61" fill="white"/>
</g>
<path d="M269.79 89.4362L240.891 72.6557C239.069 71.6177 236.695 71.6177 234.858 72.6557L205.65 89.4362C203.769 90.5182 202.439 92.5516 202.439 94.7272V128.243C202.439 130.418 203.804 132.453 205.685 133.541L213.402 137.924C217.09 139.741 218.394 139.741 220.072 139.741C225.533 139.741 228.653 136.438 228.653 130.678V97.589C228.653 97.1218 228.41 96.4265 227.95 96.4265H224.266C223.799 96.4265 222.754 97.1218 222.754 97.5882V130.677C222.754 133.231 220.445 135.772 216.128 133.613L208.155 129.018C208.015 128.942 207.897 128.83 207.814 128.694C207.731 128.558 207.685 128.403 207.681 128.243V94.7272C207.681 94.4109 208.044 94.0938 208.324 93.9322L237.438 77.1803C237.584 77.1044 237.746 77.0648 237.91 77.0648C238.074 77.0648 238.236 77.1044 238.382 77.1803L267.14 93.9283C267.415 94.0938 267.318 94.4016 267.318 94.7272V128.243C267.318 128.564 267.438 128.875 267.166 129.028L238.274 145.79C238.026 145.939 237.719 145.939 237.447 145.79L230.037 141.367C229.814 141.237 229.548 141.191 229.334 141.311C227.272 142.479 226.892 142.635 224.959 143.305C224.482 143.471 223.781 143.759 225.227 144.569L234.925 150.306C235.851 150.841 236.901 151.122 237.97 151.123C239.044 151.125 240.099 150.843 241.029 150.306L269.789 133.541C271.67 132.445 272.561 130.418 272.561 128.243V94.7272C272.561 92.5516 271.67 90.5236 269.79 89.4362V89.4362ZM246.944 122.932C239.259 122.932 237.567 120.812 237.002 116.991C236.936 116.579 236.587 116.087 236.168 116.087H232.412C231.947 116.087 231.574 116.651 231.574 117.114C231.574 122.006 234.235 127.935 246.944 127.935C256.145 127.935 261.42 124.36 261.42 118.033C261.42 111.76 257.182 110.113 248.259 108.933C239.24 107.74 238.324 107.139 238.324 105.026C238.324 103.284 239.099 100.96 245.778 100.96C251.745 100.96 253.944 102.24 254.85 106.263C254.927 106.641 255.272 106.912 255.662 106.912H259.433C259.665 106.912 259.886 106.818 260.049 106.653C260.207 106.474 260.289 106.251 260.268 106.011C259.685 99.0848 255.083 95.8572 245.777 95.8572C237.499 95.8572 232.561 99.3532 232.561 105.213C232.561 111.569 237.474 113.325 245.421 114.11C254.927 115.042 255.666 116.432 255.666 118.302C255.666 121.549 253.059 122.932 246.944 122.932V122.932Z" fill="#83CD29"/>
<g filter="url(#filter2_d)">
<ellipse cx="410" cy="354" rx="62" ry="61" fill="white"/>
</g>
<path d="M436.913 371.322C433.433 371.234 430.737 371.588 428.475 372.56C427.822 372.825 426.778 372.825 426.691 373.664C427.039 374.018 427.083 374.592 427.387 375.078C427.91 375.962 428.823 377.155 429.649 377.774C430.562 378.481 431.476 379.187 432.433 379.806C434.129 380.867 436.043 381.485 437.696 382.546C438.653 383.164 439.609 383.96 440.566 384.622C441.045 384.975 441.349 385.55 441.958 385.771V385.639C441.654 385.241 441.567 384.666 441.262 384.224C440.828 383.783 440.392 383.385 439.957 382.943C438.696 381.22 437.13 379.718 435.434 378.481C434.042 377.508 430.997 376.183 430.432 374.548C430.432 374.548 430.388 374.504 430.345 374.46C431.302 374.372 432.433 374.018 433.346 373.753C434.825 373.355 436.173 373.444 437.696 373.046C438.392 372.869 439.088 372.648 439.783 372.427V372.03C439.001 371.234 438.435 370.174 437.609 369.423C435.391 367.478 432.955 365.579 430.432 363.988C429.084 363.104 427.344 362.53 425.908 361.779C425.387 361.513 424.517 361.381 424.212 360.939C423.429 359.967 422.994 358.686 422.429 357.537C421.168 355.107 419.95 352.412 418.862 349.849C418.08 348.126 417.601 346.402 416.644 344.812C412.164 337.301 407.293 332.75 399.812 328.287C398.202 327.359 396.288 326.961 394.244 326.476C393.157 326.431 392.069 326.343 390.982 326.299C390.286 325.989 389.59 325.15 388.981 324.752C386.502 323.161 380.108 319.715 378.281 324.266C377.107 327.138 380.021 329.966 381.021 331.424C381.761 332.44 382.718 333.589 383.24 334.738C383.544 335.489 383.631 336.285 383.936 337.08C384.632 339.023 385.284 341.189 386.198 343.001C386.676 343.928 387.198 344.9 387.807 345.74C388.155 346.226 388.764 346.447 388.894 347.242C388.286 348.126 388.242 349.452 387.894 350.556C386.328 355.549 386.937 361.735 389.155 365.402C389.851 366.506 391.504 368.937 393.722 368.009C395.68 367.214 395.245 364.695 395.81 362.486C395.941 361.955 395.854 361.602 396.114 361.249V361.337C396.723 362.574 397.332 363.767 397.898 365.004C399.246 367.169 401.595 369.423 403.552 370.925C404.596 371.72 405.422 373.09 406.727 373.576V373.443H406.64C406.379 373.046 405.988 372.869 405.64 372.559C404.857 371.765 403.987 370.792 403.378 369.909C401.552 367.434 399.942 364.695 398.507 361.867C397.811 360.498 397.202 358.995 396.636 357.626C396.375 357.095 396.375 356.3 395.94 356.035C395.288 357.007 394.331 357.846 393.853 359.039C393.027 360.939 392.939 363.281 392.635 365.711C392.461 365.756 392.548 365.711 392.461 365.8C391.069 365.446 390.591 363.988 390.068 362.751C388.763 359.614 388.546 354.577 389.677 350.954C389.982 350.026 391.287 347.11 390.765 346.226C390.504 345.386 389.633 344.9 389.155 344.238C388.59 343.398 387.981 342.338 387.589 341.41C386.545 338.935 386.023 336.196 384.893 333.722C384.371 332.573 383.458 331.38 382.718 330.32C381.892 329.127 380.978 328.287 380.326 326.873C380.108 326.387 379.804 325.592 380.152 325.062C380.239 324.708 380.412 324.576 380.761 324.487C381.326 324.001 382.936 324.62 383.501 324.885C385.11 325.547 386.458 326.166 387.807 327.094C388.416 327.536 389.068 328.375 389.851 328.596H390.764C392.156 328.905 393.722 328.685 395.027 329.082C397.332 329.833 399.42 330.938 401.29 332.131C406.988 335.798 411.685 341.012 414.861 347.242C415.383 348.258 415.6 349.186 416.079 350.246C416.992 352.412 418.123 354.621 419.036 356.742C419.95 358.818 420.819 360.939 422.124 362.663C422.777 363.59 425.386 364.076 426.561 364.562C427.431 364.96 428.779 365.314 429.562 365.8C431.041 366.727 432.52 367.788 433.912 368.804C434.608 369.334 436.782 370.439 436.913 371.322V371.322Z" fill="#00546B"/>
<path d="M392.546 332.926C391.807 332.926 391.285 333.015 390.763 333.147V333.236H390.85C391.199 333.943 391.807 334.429 392.242 335.047C392.59 335.754 392.894 336.461 393.243 337.168C393.286 337.124 393.329 337.08 393.329 337.08C393.939 336.638 394.243 335.931 394.243 334.87C393.982 334.561 393.938 334.252 393.721 333.943C393.46 333.5 392.894 333.28 392.546 332.926V332.926Z" fill="#00546B"/>
<path d="M200.537 16.516C200.713 16.516 200.861 16.524 200.981 16.54C201.101 16.556 201.209 16.588 201.305 16.636C201.401 16.676 201.493 16.736 201.581 16.816C201.669 16.896 201.769 17.004 201.881 17.14L210.185 27.64C210.153 27.304 210.129 26.98 210.113 26.668C210.097 26.348 210.089 26.048 210.089 25.768V16.516H213.665V34H211.553C211.241 34 210.977 33.952 210.761 33.856C210.545 33.76 210.337 33.584 210.137 33.328L201.893 22.912C201.917 23.216 201.937 23.516 201.953 23.812C201.969 24.1 201.977 24.372 201.977 24.628V34H198.401V16.516H200.537ZM222.086 21.364C223.03 21.364 223.89 21.512 224.666 21.808C225.442 22.104 226.106 22.528 226.658 23.08C227.218 23.632 227.65 24.304 227.954 25.096C228.266 25.88 228.422 26.764 228.422 27.748C228.422 28.74 228.266 29.636 227.954 30.436C227.65 31.228 227.218 31.904 226.658 32.464C226.106 33.016 225.442 33.444 224.666 33.748C223.89 34.044 223.03 34.192 222.086 34.192C221.134 34.192 220.266 34.044 219.482 33.748C218.706 33.444 218.034 33.016 217.466 32.464C216.906 31.904 216.47 31.228 216.158 30.436C215.854 29.636 215.702 28.74 215.702 27.748C215.702 26.764 215.854 25.88 216.158 25.096C216.47 24.304 216.906 23.632 217.466 23.08C218.034 22.528 218.706 22.104 219.482 21.808C220.266 21.512 221.134 21.364 222.086 21.364ZM222.086 31.432C222.942 31.432 223.57 31.132 223.97 30.532C224.378 29.924 224.582 29.004 224.582 27.772C224.582 26.54 224.378 25.624 223.97 25.024C223.57 24.424 222.942 24.124 222.086 24.124C221.206 24.124 220.562 24.424 220.154 25.024C219.746 25.624 219.542 26.54 219.542 27.772C219.542 29.004 219.746 29.924 220.154 30.532C220.562 31.132 221.206 31.432 222.086 31.432ZM239.199 34C238.967 34 238.771 33.948 238.611 33.844C238.459 33.74 238.351 33.584 238.287 33.376L237.999 32.428C237.751 32.692 237.491 32.932 237.219 33.148C236.947 33.364 236.651 33.552 236.331 33.712C236.019 33.864 235.679 33.98 235.311 34.06C234.951 34.148 234.559 34.192 234.135 34.192C233.487 34.192 232.887 34.048 232.335 33.76C231.783 33.472 231.307 33.056 230.907 32.512C230.507 31.968 230.191 31.304 229.959 30.52C229.735 29.728 229.623 28.828 229.623 27.82C229.623 26.892 229.751 26.032 230.007 25.24C230.263 24.44 230.623 23.752 231.087 23.176C231.559 22.592 232.123 22.136 232.779 21.808C233.435 21.48 234.159 21.316 234.951 21.316C235.591 21.316 236.131 21.412 236.571 21.604C237.019 21.788 237.423 22.032 237.783 22.336V16.036H241.503V34H239.199ZM235.431 31.336C235.703 31.336 235.947 31.312 236.163 31.264C236.387 31.208 236.591 31.132 236.775 31.036C236.959 30.94 237.131 30.82 237.291 30.676C237.459 30.532 237.623 30.364 237.783 30.172V24.892C237.495 24.58 237.187 24.364 236.859 24.244C236.539 24.116 236.199 24.052 235.839 24.052C235.495 24.052 235.179 24.12 234.891 24.256C234.603 24.392 234.351 24.612 234.135 24.916C233.927 25.212 233.763 25.6 233.643 26.08C233.523 26.56 233.463 27.14 233.463 27.82C233.463 28.476 233.511 29.028 233.607 29.476C233.703 29.924 233.835 30.288 234.003 30.568C234.179 30.84 234.387 31.036 234.627 31.156C234.867 31.276 235.135 31.336 235.431 31.336ZM249.713 21.364C250.537 21.364 251.289 21.492 251.969 21.748C252.657 22.004 253.245 22.376 253.733 22.864C254.229 23.352 254.613 23.952 254.885 24.664C255.165 25.368 255.305 26.168 255.305 27.064C255.305 27.344 255.293 27.572 255.269 27.748C255.245 27.924 255.201 28.064 255.137 28.168C255.073 28.272 254.985 28.344 254.873 28.384C254.769 28.424 254.633 28.444 254.465 28.444H247.289C247.409 29.484 247.725 30.24 248.237 30.712C248.749 31.176 249.409 31.408 250.217 31.408C250.649 31.408 251.021 31.356 251.333 31.252C251.645 31.148 251.921 31.032 252.161 30.904C252.409 30.776 252.633 30.66 252.833 30.556C253.041 30.452 253.257 30.4 253.481 30.4C253.777 30.4 254.001 30.508 254.153 30.724L255.233 32.056C254.849 32.496 254.433 32.856 253.985 33.136C253.545 33.408 253.089 33.624 252.617 33.784C252.153 33.936 251.685 34.04 251.213 34.096C250.749 34.16 250.305 34.192 249.881 34.192C249.009 34.192 248.189 34.052 247.421 33.772C246.661 33.484 245.993 33.06 245.417 32.5C244.849 31.94 244.397 31.244 244.061 30.412C243.733 29.58 243.569 28.612 243.569 27.508C243.569 26.676 243.709 25.888 243.989 25.144C244.277 24.4 244.685 23.748 245.213 23.188C245.749 22.628 246.393 22.184 247.145 21.856C247.905 21.528 248.761 21.364 249.713 21.364ZM249.785 23.932C249.073 23.932 248.517 24.136 248.117 24.544C247.717 24.944 247.453 25.524 247.325 26.284H251.969C251.969 25.988 251.929 25.7 251.849 25.42C251.777 25.14 251.653 24.892 251.477 24.676C251.309 24.452 251.085 24.272 250.805 24.136C250.525 24 250.185 23.932 249.785 23.932ZM256.72 32.116C256.72 31.828 256.772 31.56 256.876 31.312C256.988 31.064 257.136 30.848 257.32 30.664C257.512 30.48 257.736 30.336 257.992 30.232C258.248 30.12 258.528 30.064 258.832 30.064C259.128 30.064 259.404 30.12 259.66 30.232C259.916 30.336 260.14 30.48 260.332 30.664C260.524 30.848 260.672 31.064 260.776 31.312C260.888 31.56 260.944 31.828 260.944 32.116C260.944 32.404 260.888 32.676 260.776 32.932C260.672 33.18 260.524 33.396 260.332 33.58C260.14 33.764 259.916 33.908 259.66 34.012C259.404 34.116 259.128 34.168 258.832 34.168C258.528 34.168 258.248 34.116 257.992 34.012C257.736 33.908 257.512 33.764 257.32 33.58C257.136 33.396 256.988 33.18 256.876 32.932C256.772 32.676 256.72 32.404 256.72 32.116ZM266.952 21.556V34.024C266.952 34.608 266.876 35.156 266.724 35.668C266.58 36.188 266.336 36.64 265.992 37.024C265.656 37.416 265.208 37.724 264.648 37.948C264.096 38.172 263.408 38.284 262.584 38.284C262.28 38.284 261.996 38.264 261.732 38.224C261.476 38.192 261.208 38.14 260.928 38.068L261.048 36.112C261.064 35.944 261.12 35.82 261.216 35.74C261.312 35.66 261.504 35.62 261.792 35.62C262.08 35.62 262.316 35.596 262.5 35.548C262.684 35.5 262.828 35.416 262.932 35.296C263.044 35.176 263.12 35.012 263.16 34.804C263.208 34.604 263.232 34.344 263.232 34.024V21.556H266.952ZM267.384 18.148C267.384 18.444 267.324 18.724 267.204 18.988C267.084 19.244 266.92 19.472 266.712 19.672C266.504 19.864 266.26 20.02 265.98 20.14C265.708 20.252 265.416 20.308 265.104 20.308C264.8 20.308 264.516 20.252 264.252 20.14C263.988 20.02 263.752 19.864 263.544 19.672C263.344 19.472 263.184 19.244 263.064 18.988C262.952 18.724 262.896 18.444 262.896 18.148C262.896 17.844 262.952 17.56 263.064 17.296C263.184 17.032 263.344 16.8 263.544 16.6C263.752 16.4 263.988 16.244 264.252 16.132C264.516 16.02 264.8 15.964 265.104 15.964C265.416 15.964 265.708 16.02 265.98 16.132C266.26 16.244 266.504 16.4 266.712 16.6C266.92 16.8 267.084 17.032 267.204 17.296C267.324 17.56 267.384 17.844 267.384 18.148ZM277.517 24.28C277.421 24.432 277.317 24.54 277.205 24.604C277.101 24.668 276.965 24.7 276.797 24.7C276.621 24.7 276.445 24.664 276.269 24.592C276.093 24.512 275.901 24.428 275.693 24.34C275.493 24.252 275.265 24.172 275.009 24.1C274.753 24.02 274.461 23.98 274.133 23.98C273.661 23.98 273.297 24.072 273.041 24.256C272.793 24.432 272.669 24.68 272.669 25C272.669 25.232 272.749 25.424 272.909 25.576C273.077 25.728 273.297 25.864 273.569 25.984C273.841 26.096 274.149 26.204 274.493 26.308C274.837 26.412 275.189 26.528 275.549 26.656C275.909 26.784 276.261 26.936 276.605 27.112C276.949 27.28 277.257 27.492 277.529 27.748C277.801 27.996 278.017 28.3 278.177 28.66C278.345 29.02 278.429 29.452 278.429 29.956C278.429 30.572 278.317 31.14 278.093 31.66C277.869 32.18 277.533 32.628 277.085 33.004C276.645 33.38 276.097 33.672 275.441 33.88C274.793 34.088 274.045 34.192 273.197 34.192C272.773 34.192 272.349 34.152 271.925 34.072C271.501 33.992 271.089 33.884 270.689 33.748C270.297 33.612 269.933 33.452 269.597 33.268C269.261 33.076 268.973 32.872 268.733 32.656L269.597 31.288C269.701 31.128 269.825 31.004 269.969 30.916C270.113 30.82 270.301 30.772 270.533 30.772C270.749 30.772 270.941 30.82 271.109 30.916C271.285 31.012 271.473 31.116 271.673 31.228C271.873 31.34 272.105 31.444 272.369 31.54C272.641 31.636 272.981 31.684 273.389 31.684C273.677 31.684 273.921 31.656 274.121 31.6C274.321 31.536 274.481 31.452 274.601 31.348C274.721 31.244 274.809 31.128 274.865 31C274.921 30.872 274.949 30.74 274.949 30.604C274.949 30.356 274.865 30.152 274.697 29.992C274.529 29.832 274.309 29.696 274.037 29.584C273.765 29.464 273.453 29.356 273.101 29.26C272.757 29.156 272.405 29.04 272.045 28.912C271.685 28.784 271.329 28.632 270.977 28.456C270.633 28.272 270.325 28.044 270.053 27.772C269.781 27.492 269.561 27.152 269.393 26.752C269.225 26.352 269.141 25.868 269.141 25.3C269.141 24.772 269.241 24.272 269.441 23.8C269.649 23.32 269.957 22.9 270.365 22.54C270.773 22.18 271.285 21.896 271.901 21.688C272.517 21.472 273.237 21.364 274.061 21.364C274.509 21.364 274.941 21.404 275.357 21.484C275.781 21.564 276.177 21.676 276.545 21.82C276.913 21.964 277.249 22.136 277.553 22.336C277.857 22.528 278.125 22.74 278.357 22.972L277.517 24.28Z" fill="black"/>
<path d="M45.121 443.156V449H41.065V431.516H47.233C48.465 431.516 49.521 431.664 50.401 431.96C51.289 432.248 52.017 432.648 52.585 433.16C53.161 433.672 53.585 434.276 53.857 434.972C54.129 435.668 54.265 436.42 54.265 437.228C54.265 438.1 54.125 438.9 53.845 439.628C53.565 440.356 53.137 440.98 52.561 441.5C51.985 442.02 51.253 442.428 50.365 442.724C49.485 443.012 48.441 443.156 47.233 443.156H45.121ZM45.121 440.096H47.233C48.289 440.096 49.049 439.844 49.513 439.34C49.977 438.836 50.209 438.132 50.209 437.228C50.209 436.828 50.149 436.464 50.029 436.136C49.909 435.808 49.725 435.528 49.477 435.296C49.237 435.056 48.929 434.872 48.553 434.744C48.185 434.616 47.745 434.552 47.233 434.552H45.121V440.096ZM71.6337 449H67.5537V441.608H60.4497V449H56.3697V431.516H60.4497V438.824H67.5537V431.516H71.6337V449ZM78.5663 443.156V449H74.5103V431.516H80.6783C81.9103 431.516 82.9663 431.664 83.8463 431.96C84.7343 432.248 85.4623 432.648 86.0303 433.16C86.6063 433.672 87.0303 434.276 87.3023 434.972C87.5743 435.668 87.7103 436.42 87.7103 437.228C87.7103 438.1 87.5703 438.9 87.2903 439.628C87.0103 440.356 86.5823 440.98 86.0063 441.5C85.4303 442.02 84.6983 442.428 83.8103 442.724C82.9303 443.012 81.8863 443.156 80.6783 443.156H78.5663ZM78.5663 440.096H80.6783C81.7343 440.096 82.4943 439.844 82.9583 439.34C83.4223 438.836 83.6543 438.132 83.6543 437.228C83.6543 436.828 83.5943 436.464 83.4743 436.136C83.3543 435.808 83.1703 435.528 82.9223 435.296C82.6823 435.056 82.3743 434.872 81.9983 434.744C81.6303 434.616 81.1903 434.552 80.6783 434.552H78.5663V440.096Z" fill="black"/>
<path d="M382.15 441.008C382.31 441.312 382.462 441.628 382.606 441.956C382.758 442.284 382.902 442.62 383.038 442.964C383.174 442.612 383.318 442.272 383.47 441.944C383.622 441.608 383.778 441.284 383.938 440.972L388.426 432.14C388.506 431.988 388.586 431.872 388.666 431.792C388.754 431.704 388.85 431.64 388.954 431.6C389.058 431.56 389.174 431.536 389.302 431.528C389.438 431.52 389.594 431.516 389.77 431.516H392.866V449H389.29V438.944C389.29 438.456 389.314 437.928 389.362 437.36L384.73 446.348C384.586 446.628 384.39 446.84 384.142 446.984C383.902 447.128 383.626 447.2 383.314 447.2H382.762C382.45 447.2 382.17 447.128 381.922 446.984C381.682 446.84 381.49 446.628 381.346 446.348L376.69 437.348C376.722 437.628 376.746 437.908 376.762 438.188C376.778 438.46 376.786 438.712 376.786 438.944V449H373.21V431.516H376.306C376.482 431.516 376.634 431.52 376.762 431.528C376.898 431.536 377.018 431.56 377.122 431.6C377.226 431.64 377.318 431.704 377.398 431.792C377.486 431.872 377.57 431.988 377.65 432.14L382.15 441.008ZM400.844 452.228C400.732 452.476 400.596 452.656 400.436 452.768C400.276 452.888 400.02 452.948 399.668 452.948H396.884L399.284 447.908L394.316 436.556H397.604C397.892 436.556 398.116 436.62 398.276 436.748C398.436 436.876 398.548 437.028 398.612 437.204L400.652 442.568C400.844 443.064 401 443.56 401.12 444.056C401.2 443.8 401.288 443.548 401.384 443.3C401.48 443.052 401.572 442.8 401.66 442.544L403.508 437.204C403.572 437.02 403.696 436.868 403.88 436.748C404.072 436.62 404.276 436.556 404.492 436.556H407.492L400.844 452.228ZM418.766 435.068C418.646 435.26 418.518 435.404 418.382 435.5C418.254 435.596 418.086 435.644 417.878 435.644C417.694 435.644 417.494 435.588 417.278 435.476C417.07 435.356 416.83 435.224 416.558 435.08C416.294 434.936 415.99 434.808 415.646 434.696C415.302 434.576 414.91 434.516 414.47 434.516C413.71 434.516 413.142 434.68 412.766 435.008C412.398 435.328 412.214 435.764 412.214 436.316C412.214 436.668 412.326 436.96 412.55 437.192C412.774 437.424 413.066 437.624 413.426 437.792C413.794 437.96 414.21 438.116 414.674 438.26C415.146 438.396 415.626 438.552 416.114 438.728C416.602 438.896 417.078 439.096 417.542 439.328C418.014 439.56 418.43 439.856 418.79 440.216C419.158 440.576 419.454 441.016 419.678 441.536C419.902 442.048 420.014 442.668 420.014 443.396C420.014 444.204 419.874 444.96 419.594 445.664C419.314 446.368 418.906 446.984 418.37 447.512C417.842 448.032 417.186 448.444 416.402 448.748C415.626 449.044 414.742 449.192 413.75 449.192C413.206 449.192 412.65 449.136 412.082 449.024C411.522 448.912 410.978 448.756 410.45 448.556C409.922 448.348 409.426 448.104 408.962 447.824C408.498 447.544 408.094 447.232 407.75 446.888L408.95 444.992C409.038 444.848 409.162 444.732 409.322 444.644C409.482 444.556 409.654 444.512 409.838 444.512C410.078 444.512 410.318 444.588 410.558 444.74C410.806 444.892 411.082 445.06 411.386 445.244C411.698 445.428 412.054 445.596 412.454 445.748C412.854 445.9 413.326 445.976 413.87 445.976C414.606 445.976 415.178 445.816 415.586 445.496C415.994 445.168 416.198 444.652 416.198 443.948C416.198 443.54 416.086 443.208 415.862 442.952C415.638 442.696 415.342 442.484 414.974 442.316C414.614 442.148 414.202 442 413.738 441.872C413.274 441.744 412.798 441.604 412.31 441.452C411.822 441.292 411.346 441.1 410.882 440.876C410.418 440.644 410.002 440.344 409.634 439.976C409.274 439.6 408.982 439.136 408.758 438.584C408.534 438.024 408.422 437.336 408.422 436.52C408.422 435.864 408.554 435.224 408.818 434.6C409.082 433.976 409.47 433.42 409.982 432.932C410.494 432.444 411.122 432.056 411.866 431.768C412.61 431.472 413.462 431.324 414.422 431.324C414.958 431.324 415.478 431.368 415.982 431.456C416.494 431.536 416.978 431.66 417.434 431.828C417.89 431.988 418.314 432.184 418.706 432.416C419.106 432.64 419.462 432.896 419.774 433.184L418.766 435.068ZM439.286 440.252C439.286 441.004 439.206 441.728 439.046 442.424C438.894 443.112 438.67 443.76 438.374 444.368C438.086 444.976 437.726 445.54 437.294 446.06C436.87 446.58 436.386 447.04 435.842 447.44L440.27 452.276H436.934C436.454 452.276 436.018 452.216 435.626 452.096C435.234 451.984 434.886 451.752 434.582 451.4L432.41 448.964C432.058 449.036 431.698 449.092 431.33 449.132C430.97 449.172 430.598 449.192 430.214 449.192C428.854 449.192 427.614 448.964 426.494 448.508C425.374 448.052 424.414 447.424 423.614 446.624C422.822 445.816 422.206 444.868 421.766 443.78C421.334 442.692 421.118 441.516 421.118 440.252C421.118 438.988 421.334 437.812 421.766 436.724C422.206 435.636 422.822 434.692 423.614 433.892C424.414 433.092 425.374 432.464 426.494 432.008C427.614 431.552 428.854 431.324 430.214 431.324C431.574 431.324 432.81 431.556 433.922 432.02C435.042 432.476 435.998 433.104 436.79 433.904C437.582 434.704 438.194 435.648 438.626 436.736C439.066 437.824 439.286 438.996 439.286 440.252ZM435.134 440.252C435.134 439.388 435.022 438.612 434.798 437.924C434.574 437.228 434.25 436.64 433.826 436.16C433.41 435.68 432.898 435.312 432.29 435.056C431.682 434.8 430.99 434.672 430.214 434.672C429.43 434.672 428.73 434.8 428.114 435.056C427.506 435.312 426.99 435.68 426.566 436.16C426.15 436.64 425.83 437.228 425.606 437.924C425.382 438.612 425.27 439.388 425.27 440.252C425.27 441.124 425.382 441.908 425.606 442.604C425.83 443.292 426.15 443.876 426.566 444.356C426.99 444.836 427.506 445.204 428.114 445.46C428.73 445.708 429.43 445.832 430.214 445.832C430.99 445.832 431.682 445.708 432.29 445.46C432.898 445.204 433.41 444.836 433.826 444.356C434.25 443.876 434.574 443.292 434.798 442.604C435.022 441.908 435.134 441.124 435.134 440.252ZM445.281 445.76H451.761V449H441.225V431.516H445.281V445.76Z" fill="black"/>
<defs>
<filter id="filter0_d" x="0" y="291" width="132" height="130" filterUnits="userSpaceOnUse" color-interpolation-filters="sRGB">
<feFlood flood-opacity="0" result="BackgroundImageFix"/>
<feColorMatrix in="SourceAlpha" type="matrix" values="0 0 0 0 0 0 0 0 0 0 0 0 0 0 0 0 0 0 127 0"/>
<feOffset dy="2"/>
<feGaussianBlur stdDeviation="2"/>
<feColorMatrix type="matrix" values="0 0 0 0 0 0 0 0 0 0 0 0 0 0 0 0 0 0 0.25 0"/>
<feBlend mode="normal" in2="BackgroundImageFix" result="effect1_dropShadow"/>
<feBlend mode="normal" in="SourceGraphic" in2="effect1_dropShadow" result="shape"/>
</filter>
<filter id="filter1_d" x="172" y="48" width="132" height="130" filterUnits="userSpaceOnUse" color-interpolation-filters="sRGB">
<feFlood flood-opacity="0" result="BackgroundImageFix"/>
<feColorMatrix in="SourceAlpha" type="matrix" values="0 0 0 0 0 0 0 0 0 0 0 0 0 0 0 0 0 0 127 0"/>
<feOffset dy="2"/>
<feGaussianBlur stdDeviation="2"/>
<feColorMatrix type="matrix" values="0 0 0 0 0 0 0 0 0 0 0 0 0 0 0 0 0 0 0.25 0"/>
<feBlend mode="normal" in2="BackgroundImageFix" result="effect1_dropShadow"/>
<feBlend mode="normal" in="SourceGraphic" in2="effect1_dropShadow" result="shape"/>
</filter>
<filter id="filter2_d" x="344" y="291" width="132" height="130" filterUnits="userSpaceOnUse" color-interpolation-filters="sRGB">
<feFlood flood-opacity="0" result="BackgroundImageFix"/>
<feColorMatrix in="SourceAlpha" type="matrix" values="0 0 0 0 0 0 0 0 0 0 0 0 0 0 0 0 0 0 127 0"/>
<feOffset dy="2"/>
<feGaussianBlur stdDeviation="2"/>
<feColorMatrix type="matrix" values="0 0 0 0 0 0 0 0 0 0 0 0 0 0 0 0 0 0 0.25 0"/>
<feBlend mode="normal" in2="BackgroundImageFix" result="effect1_dropShadow"/>
<feBlend mode="normal" in="SourceGraphic" in2="effect1_dropShadow" result="shape"/>
</filter>
</defs>
</svg>
