<svg xmlns="http://www.w3.org/2000/svg" style="isolation:isolate" width="195" height="195"><defs><clipPath id="a"><path d="M0 0h195v195H0z"/></clipPath></defs><g clip-path="url(#a)"><path fill="#12100E" d="M0 0h195v195H0z"/><g fill="#FFF"><path d="M121.246 38.75H73.754c-19.301 0-35.004 15.703-35.004 35.004v47.492c0 19.301 15.703 35.004 35.004 35.004h47.492c19.301 0 35.004-15.703 35.004-35.004V73.754c0-19.301-15.703-35.004-35.004-35.004zm23.184 82.496c0 12.804-10.38 23.184-23.184 23.184H73.754c-12.804 0-23.184-10.38-23.184-23.184V73.754c0-12.804 10.38-23.184 23.184-23.184h47.492c12.804 0 23.184 10.38 23.184 23.184v47.492z"/><path d="M97.5 67.11c-16.757 0-30.39 13.633-30.39 30.39 0 16.756 13.633 30.389 30.39 30.389s30.39-13.632 30.39-30.389c0-16.757-13.633-30.39-30.39-30.39zm0 48.959c-10.256 0-18.569-8.313-18.569-18.569 0-10.256 8.314-18.569 18.569-18.569 10.256 0 18.569 8.313 18.569 18.569 0 10.255-8.314 18.569-18.569 18.569z"/><circle vector-effect="non-scaling-stroke" cx="127.89" cy="67.11" r="7.282"/></g></g></svg>