<svg xmlns="http://www.w3.org/2000/svg" style="isolation:isolate" width="195" height="195"><defs><clipPath id="a"><path d="M0 0h195v195H0z"/></clipPath></defs><g clip-path="url(#a)"><path fill="#12100E" d="M0 0h195v195H0z"/><path d="M71.014 155.5c53.877 0 83.337-44.637 83.337-83.337 0-1.265 0-2.533-.081-3.787a59.594 59.594 0 0 0 14.611-15.165 58.583 58.583 0 0 1-16.817 4.614 29.393 29.393 0 0 0 12.87-16.207 58.658 58.658 0 0 1-18.601 7.116c-9.08-9.655-23.505-12.017-35.185-5.764-11.683 6.254-17.719 19.565-14.722 32.473a83.154 83.154 0 0 1-60.368-30.601c-7.78 13.381-3.819 30.505 9.048 39.106a29.06 29.06 0 0 1-13.198-3.677v.375c-.002 13.926 9.8 25.928 23.445 28.714a29.267 29.267 0 0 1-13.233.496 29.33 29.33 0 0 0 27.368 20.357 58.796 58.796 0 0 1-36.381 12.507 59.115 59.115 0 0 1-6.988-.406 82.912 82.912 0 0 0 44.895 13.151" fill="#FFF"/></g></svg>